aileron_ultralight-italic.sfdir

StartChar: exclam
Encoding: 33 33 250
Width: 156
Flags: MW
HStem: -14 21G<23 34> -14 40<30 34> 670 20G<143 166 166 166>
VStem: 12 40<3.5 8.5> 12 154
LayerCount: 2
Fore
SplineSet
60 110 m 1xa8
 41 110 l 1
 143 690 l 1
 166 690 l 1
 60 110 l 1xa8
36 26 m 0x70
 46 26 52 19 52 10 c 0
 52 -3 40 -14 28 -14 c 0
 18 -14 12 -7 12 2 c 0
 12 15 24 26 36 26 c 0x70
EndSplineSet
EndChar

StartChar: quotedbl
Encoding: 34 34 257
Width: 160
Flags: MW
HStem: 715 20G<93 115 115 115 175 197 197 197>
VStem: 52 145
LayerCount: 2
Fore
SplineSet
68 491 m 1
 52 491 l 1
 93 735 l 1
 115 735 l 1
 68 491 l 1
150 491 m 1
 134 491 l 1
 175 735 l 1
 197 735 l 1
 150 491 l 1
EndSplineSet
EndChar

StartChar: numbersign
Encoding: 35 35 252
Width: 530
Flags: MW
HStem: 0 21G<68 89 68 68 200 221 200 200> 245 21<55 164 51 172 193 296 55 185 325 441> 424 21<117 233 113 241 117 255 262 366 394 503> 670 20G<337 358 358 358 469 490 490 490>
VStem: 51 456<245 445>
LayerCount: 2
Fore
SplineSet
386 424 m 1
 325 266 l 1
 445 266 l 1
 441 245 l 1
 317 245 l 1
 221 0 l 1
 200 0 l 1
 296 245 l 1
 185 245 l 1
 89 0 l 1
 68 0 l 1
 164 245 l 1
 51 245 l 1
 55 266 l 1
 172 266 l 1
 233 424 l 1
 113 424 l 1
 117 445 l 1
 241 445 l 1
 337 690 l 1
 358 690 l 1
 262 445 l 1
 373 445 l 1
 469 690 l 1
 490 690 l 1
 394 445 l 1
 507 445 l 1
 503 424 l 1
 386 424 l 1
366 424 m 1
 255 424 l 1
 193 266 l 1
 304 266 l 1
 366 424 l 1
EndSplineSet
EndChar

StartChar: dollar
Encoding: 36 36 285
Width: 530
Flags: MW
HStem: -14 21<211 215 215 233> 683 21<335 338 338 357>
VStem: 34 22<180 180> 121 23<474 551.5 474 555> 439 23<134.5 217.5> 498 22<514 514>
LayerCount: 2
Fore
SplineSet
520 514 m 1
 498 514 l 1
 497 626 444 677 357 683 c 1
 298 354 l 1
 401 322 462 268 462 174 c 0
 462 87 397 -10 233 -14 c 1
 220 -90 l 1
 198 -90 l 1
 211 -14 l 1
 73 -8 32 96 34 180 c 1
 56 180 l 1
 63 63 121 11 215 7 c 1
 273 336 l 1
 194 362 121 420 121 510 c 0
 121 600 184 701 338 704 c 1
 352 780 l 1
 374 780 l 1
 360 704 l 1
 475 697 518 613 520 514 c 1
144 512 m 0
 144 436 202 383 277 358 c 1
 335 683 l 1
 201 680 144 591 144 512 c 0
439 173 m 0
 439 262 386 303 294 331 c 1
 237 7 l 1
 381 11 439 96 439 173 c 0
EndSplineSet
EndChar

StartChar: percent
Encoding: 37 37 305
Width: 699
Flags: MW
HStem: -14 21<432 504.5 432 508.5> 0 21G<64 92 64 64> 283 21<454.5 527> 386 21<200 272.5 200 276.5> 670 20G<631 659 659 659> 683 21<222.5 295>
VStem: 116 23<481.5 550 481.5 555.5> 348 23<81.5 150 81.5 155.5> 356 23<540 608.5> 588 23<140 208.5>
LayerCount: 2
Fore
SplineSet
225 386 m 0xb740
 157 386 116 440 116 515 c 0
 116 596 167 704 270 704 c 0
 338 704 379 650 379 575 c 0xb6c0
 379 494 328 386 225 386 c 0xb740
659 690 m 1x7b40
 92 0 l 1
 64 0 l 1
 631 690 l 1
 659 690 l 1x7b40
267 683 m 0xb6c0
 178 683 139 585 139 515 c 0
 139 448 172 407 228 407 c 0
 317 407 356 505 356 575 c 0
 356 642 323 683 267 683 c 0xb6c0
502 304 m 0
 570 304 611 250 611 175 c 0
 611 94 560 -14 457 -14 c 0
 389 -14 348 40 348 115 c 0xb740
 348 196 399 304 502 304 c 0
460 7 m 0xb740
 549 7 588 105 588 175 c 0
 588 242 555 283 499 283 c 0
 410 283 371 185 371 115 c 0
 371 48 404 7 460 7 c 0xb740
EndSplineSet
EndChar

StartChar: ampersand
Encoding: 38 38 313
Width: 638
Flags: MW
HStem: -14 21<225.5 307> 334 21<378 503 393 499 525 631 393 521> 674 20G<529 529> 683 21<342.5 428.5>
VStem: 49 24<82.5 191.5> 150 24<438.5 546.5>
LayerCount: 2
Fore
SplineSet
635 355 m 1xdc
 631 334 l 1
 521 334 l 1
 463 1 l 1
 404 -9 329 -14 285 -14 c 0
 141 -14 49 17 49 126 c 0
 49 257 151 330 280 344 c 1
 206 354 150 394 150 483 c 0
 150 610 264 704 411 704 c 0xdc
 460 704 492 701 529 694 c 1xec
 525 672 l 1
 486 680 453 683 404 683 c 0
 281 683 174 610 174 487 c 0
 174 382 261 360 332 356 c 0
 352 355 371 355 393 355 c 2
 503 355 l 1
 530 507 l 1
 552 507 l 1
 525 355 l 1
 635 355 l 1xdc
499 334 m 1
 389 334 l 2
 367 334 348 334 328 332 c 0
 198 321 73 276 73 131 c 0
 73 34 160 7 291 7 c 0
 332 7 402 11 444 19 c 1
 499 334 l 1
EndSplineSet
EndChar

StartChar: quotesingle
Encoding: 39 39 258
Width: 78
Flags: MW
HStem: 715 20G<93 115 115 115>
VStem: 52 63
LayerCount: 2
Fore
SplineSet
68 491 m 1
 52 491 l 1
 93 735 l 1
 115 735 l 1
 68 491 l 1
EndSplineSet
EndChar

StartChar: parenleft
Encoding: 40 40 266
Width: 243
Flags: MW
HStem: -80 860<141 315 141 315>
VStem: 88 23<145.5 284.5>
LayerCount: 2
Fore
SplineSet
163 -80 m 1
 141 -80 l 1
 107 -8 88 91 88 196 c 0
 88 373 155 615 293 780 c 1
 315 780 l 1
 171 597 111 377 111 196 c 0
 111 95 129 -1 163 -80 c 1
EndSplineSet
EndChar

StartChar: parenright
Encoding: 41 41 267
Width: 243
Flags: MW
HStem: -80 860<-42 132 -42 132>
VStem: 162 23<415.5 554.5>
LayerCount: 2
Fore
SplineSet
110 780 m 1
 132 780 l 1
 166 708 185 609 185 504 c 0
 185 327 118 85 -20 -80 c 1
 -42 -80 l 1
 102 103 162 323 162 504 c 0
 162 605 144 701 110 780 c 1
EndSplineSet
EndChar

StartChar: asterisk
Encoding: 42 42 244
Width: 530
Flags: MW
HStem: 100 374<124 310 286 340>
VStem: 95 350<315 315>
LayerCount: 2
Fore
SplineSet
273 280 m 1
 442 337 l 1
 445 315 l 1
 276 263 l 1
 362 114 l 1
 340 100 l 1
 260 254 l 1
 124 100 l 1
 106 114 l 1
 245 263 l 1
 95 315 l 1
 106 337 l 1
 255 280 l 1
 286 474 l 1
 310 474 l 1
 273 280 l 1
EndSplineSet
EndChar

StartChar: plus
Encoding: 43 43 307
Width: 530
Flags: MW
HStem: 307 21<76 261 72 265 287 472 76 283>
VStem: 72 404<307 328>
LayerCount: 2
Fore
SplineSet
472 307 m 1
 283 307 l 1
 244 87 l 1
 222 87 l 1
 261 307 l 1
 72 307 l 1
 76 328 l 1
 265 328 l 1
 304 548 l 1
 326 548 l 1
 287 328 l 1
 476 328 l 1
 472 307 l 1
EndSplineSet
EndChar

StartChar: hyphen
Encoding: 45 45 271
Width: 274
Flags: MW
HStem: 271 21<34 240 30 244>
VStem: 30 214<271 292>
LayerCount: 2
Fore
SplineSet
240 271 m 1
 30 271 l 1
 34 292 l 1
 244 292 l 1
 240 271 l 1
EndSplineSet
EndChar

StartChar: period
Encoding: 46 46 253
Width: 127
Flags: MW
HStem: -14 40<-6.5 0.5>
VStem: -23 40<2 10>
LayerCount: 2
Fore
SplineSet
-1 26 m 0
 10 26 17 18 17 9 c 0
 17 -5 6 -14 -5 -14 c 0
 -16 -14 -23 -6 -23 3 c 0
 -23 17 -12 26 -1 26 c 0
EndSplineSet
EndChar

StartChar: slash
Encoding: 47 47 260
Width: 263
Flags: MW
HStem: -30 750<-57 348 -57 348>
VStem: -57 405
LayerCount: 2
Fore
SplineSet
-35 -30 m 1
 -57 -30 l 1
 326 720 l 1
 348 720 l 1
 -35 -30 l 1
EndSplineSet
EndChar

StartChar: zero
Encoding: 48 48 233
Width: 530
Flags: MW
HStem: -14 21<165 325 165 330> 683 21<233 393>
VStem: 37 23<157 296.5 157 308.5> 498 23<393.5 533>
LayerCount: 2
Fore
SplineSet
342 704 m 0
 462 704 521 615 521 468 c 0
 521 295 444 -14 216 -14 c 0
 96 -14 37 75 37 222 c 0
 37 395 114 704 342 704 c 0
219 7 m 0
 431 7 498 320 498 467 c 0
 498 599 447 683 339 683 c 0
 127 683 60 370 60 223 c 0
 60 91 111 7 219 7 c 0
EndSplineSet
EndChar

StartChar: one
Encoding: 49 49 234
Width: 530
Flags: MW
HStem: 0 21G<268 290 268 268> 667 23<385 412> 670 20G<401 412 412 412>
VStem: 174 238<549 690>
LayerCount: 2
Fore
SplineSet
412 690 m 1xb0
 290 0 l 1
 268 0 l 1
 385 667 l 1xd0
 174 549 l 1
 179 573 l 1
 356 673 l 2
 382 688 390 690 401 690 c 2
 412 690 l 1xb0
EndSplineSet
EndChar

StartChar: two
Encoding: 50 50 235
Width: 530
Flags: MW
HStem: 0 21<32 433> 683 21<304.5 400.5>
VStem: 109 22 493 25<505.5 592>
LayerCount: 2
Fore
SplineSet
32 21 m 1
 437 21 l 1
 433 0 l 1
 -8 0 l 1
 -5 16 l 1
 272 248 l 2
 448 395 493 457 493 554 c 0
 493 630 445 683 356 683 c 0
 253 683 152 610 132 498 c 1
 130 488 l 1
 108 488 l 1
 110 498 l 2
 135 625 241 704 359 704 c 0
 466 704 518 632 518 555 c 0
 518 443 447 369 290 237 c 2
 32 21 l 1
EndSplineSet
EndChar

StartChar: three
Encoding: 51 51 236
Width: 530
Flags: MW
HStem: -14 21<161 284 161 287.5> 343 21<258 271 254 275> 683 21<309.5 405.5>
VStem: 35 22<194 204 194 204> 119 22 454 24<145.5 252> 504 24<504 592>
LayerCount: 2
Fore
SplineSet
346 357 m 1
 428 343 478 297 478 215 c 0
 478 74 359 -14 216 -14 c 0
 101 -14 25 58 35 194 c 1
 35 204 l 1
 57 204 l 1
 57 194 l 1
 49 86 102 7 220 7 c 0
 348 7 454 83 454 208 c 0xfc
 454 296 399 343 271 343 c 2
 254 343 l 1
 258 364 l 1
 275 364 l 2
 375 364 504 434 504 547 c 0
 504 637 450 683 361 683 c 0
 258 683 164 621 142 509 c 2
 140 499 l 1
 118 499 l 1
 120 509 l 2
 145 635 251 704 366 704 c 0
 474 704 528 636 528 550 c 0xfe
 528 458 444 376 346 357 c 1
EndSplineSet
EndChar

StartChar: four
Encoding: 52 52 237
Width: 530
Flags: MW
HStem: 0 21G<339 361 339 339> 200 21<48 374 400 495 48 396> 670 20G<471 488 488 488>
VStem: 12 487<200 221>
LayerCount: 2
Fore
SplineSet
495 200 m 1
 396 200 l 1
 361 0 l 1
 339 0 l 1
 374 200 l 1
 12 200 l 1
 15 216 l 1
 471 690 l 1
 488 690 l 1
 400 221 l 1
 499 221 l 1
 495 200 l 1
378 221 m 1
 459 652 l 1
 435 624 396 582 348 532 c 2
 48 221 l 1
 378 221 l 1
EndSplineSet
EndChar

StartChar: five
Encoding: 53 53 238
Width: 530
Flags: MW
HStem: -14 21<157 263 151.5 273> 411 21<271.5 341.5> 665 21<214 214 214 546>
VStem: 32 22<178 178> 448 24<168.5 301.5>
LayerCount: 2
Fore
SplineSet
214 665 m 1
 100 338 l 1
 145 385 l 1
 191 418 242 432 301 432 c 0
 412 432 472 354 472 251 c 0
 472 86 342 -14 204 -14 c 0
 110 -14 22 41 32 178 c 1
 33 188 l 1
 55 188 l 1
 54 178 l 1
 46 79 94 7 209 7 c 0
 317 7 448 83 448 248 c 0
 448 355 388 411 295 411 c 0
 213 411 140 376 87 295 c 1
 65 295 l 1
 199 686 l 1
 549 686 l 1
 546 665 l 1
 214 665 l 1
EndSplineSet
EndChar

StartChar: six
Encoding: 54 54 239
Width: 530
Flags: MW
HStem: -14 21<170 294.5 170 299> 437 21<265.5 351> 683 21<299 402.5>
VStem: 32 23<139 263.5 139 340.5> 463 24<190 310> 502 22<518 528 518 580>
LayerCount: 2
Fore
SplineSet
358 704 m 0
 480 704 522 627 524 528 c 1
 524 518 l 1
 502 518 l 1
 502 528 l 2xf4
 502 632 451 683 354 683 c 0
 244 683 94 598 60 303 c 1
 94 360 l 1
 150 424 226 458 305 458 c 0
 428 458 487 359 487 262 c 0xfc
 487 111 379 -14 219 -14 c 0
 108 -14 32 65 32 208 c 0
 32 473 149 704 358 704 c 0
299 437 m 0
 174 437 55 336 55 191 c 0
 55 87 116 7 224 7 c 0
 365 7 463 122 463 258 c 0xfc
 463 362 403 437 299 437 c 0
EndSplineSet
EndChar

StartChar: seven
Encoding: 55 55 240
Width: 530
Flags: MW
HStem: 0 21G<58 84 58 58> 669 21<118 535 114 570>
VStem: 58 512
LayerCount: 2
Fore
SplineSet
570 690 m 1
 568 679 l 1
 84 0 l 1
 58 0 l 1
 535 669 l 1
 114 669 l 1
 118 690 l 1
 570 690 l 1
EndSplineSet
EndChar

StartChar: eight
Encoding: 56 56 241
Width: 530
Flags: MW
HStem: -15 21<175.5 270.5 175.5 282> 348 21<241.5 338 241.5 340.5> 683 21<288.5 393.5>
VStem: 19 24<99 199.5> 114 25<460 550.5> 455 25<136.5 244.5 136.5 246.5> 497 24<510.5 591.5>
LayerCount: 2
Fore
SplineSet
359 359 m 1
 440 339 480 280 480 209 c 0xfc
 480 64 349 -15 215 -15 c 0
 108 -15 19 42 19 145 c 0
 19 254 96 334 214 360 c 1
 157 376 114 426 114 494 c 0
 114 607 210 704 349 704 c 0
 456 704 521 637 521 554 c 0xfe
 521 467 456 381 359 359 c 1
139 500 m 0
 139 414 193 369 290 369 c 0
 386 369 497 425 497 551 c 0xfe
 497 632 441 683 346 683 c 0
 231 683 139 609 139 500 c 0
220 6 m 0
 321 6 455 64 455 204 c 0
 455 289 398 348 283 348 c 0
 135 348 43 262 43 149 c 0
 43 49 131 6 220 6 c 0
EndSplineSet
EndChar

StartChar: nine
Encoding: 57 57 242
Width: 530
Flags: MW
HStem: -14 21<156.5 260 156.5 305.5> 232 21<208 293.5> 683 21<264.5 389>
VStem: 35 22<162 172 110 172> 72 24<380 500 380 503.5> 504 23<426.5 551>
LayerCount: 2
Fore
SplineSet
340 704 m 0
 451 704 527 625 527 482 c 0
 527 217 410 -14 201 -14 c 0
 79 -14 37 63 35 162 c 1
 35 172 l 1
 57 172 l 1
 57 162 l 2xf4
 57 58 108 7 205 7 c 0
 315 7 465 92 499 387 c 1
 465 330 l 1
 409 266 333 232 254 232 c 0
 131 232 72 331 72 428 c 0xfc
 72 579 180 704 340 704 c 0
260 253 m 0
 385 253 504 354 504 499 c 0
 504 603 443 683 335 683 c 0
 194 683 96 568 96 432 c 0xfc
 96 328 156 253 260 253 c 0
EndSplineSet
EndChar

StartChar: colon
Encoding: 58 58 247
Width: 127
Flags: MW
HStem: -14 21G<-10.5 0.5> -14 40<-6.5 0.5> 500 40<85.5 92.5> 520 20G<85.5 96.5>
VStem: -23 40<2 10> 69 40<516 524>
LayerCount: 2
Fore
SplineSet
91 540 m 0x9c
 102 540 109 532 109 523 c 0
 109 509 98 500 87 500 c 0xac
 76 500 69 508 69 517 c 0
 69 531 80 540 91 540 c 0x9c
-1 26 m 0x5c
 10 26 17 18 17 9 c 0
 17 -5 6 -14 -5 -14 c 0
 -16 -14 -23 -6 -23 3 c 0
 -23 17 -12 26 -1 26 c 0x5c
EndSplineSet
EndChar

StartChar: semicolon
Encoding: 59 59 259
Width: 127
Flags: MW
HStem: 500 40<85.5 92.5> 520 20G<85.5 96.5>
VStem: 69 40<516 524>
LayerCount: 2
Fore
SplineSet
91 540 m 0x60
 102 540 109 532 109 523 c 0
 109 509 98 500 87 500 c 0xa0
 76 500 69 508 69 517 c 0
 69 531 80 540 91 540 c 0x60
1 19 m 1
 -74 -116 l 1
 -95 -116 l 1
 -24 24 l 1
 1 24 l 1
 1 19 l 1
EndSplineSet
EndChar

StartChar: less
Encoding: 60 60 298
Width: 530
Flags: MW
HStem: 60 410<435 507>
VStem: 68 439<255 470>
LayerCount: 2
Fore
SplineSet
503 445 m 1
 99 265 l 1
 439 85 l 1
 435 60 l 1
 68 255 l 1
 72 275 l 1
 507 470 l 1
 503 445 l 1
EndSplineSet
EndChar

StartChar: equal
Encoding: 61 61 293
Width: 530
Flags: MW
HStem: 217 21<50 466 46 470> 397 21<82 498 78 502>
VStem: 46 456<217 418>
LayerCount: 2
Fore
SplineSet
498 397 m 1
 78 397 l 1
 82 418 l 1
 502 418 l 1
 498 397 l 1
466 217 m 1
 46 217 l 1
 50 238 l 1
 470 238 l 1
 466 217 l 1
EndSplineSet
EndChar

StartChar: greater
Encoding: 62 62 294
Width: 530
Flags: MW
HStem: 60 410<28 100>
VStem: 28 439<60 275>
LayerCount: 2
Fore
SplineSet
467 275 m 1
 463 255 l 1
 28 60 l 1
 32 85 l 1
 436 265 l 1
 96 445 l 1
 100 470 l 1
 467 275 l 1
EndSplineSet
EndChar

StartChar: question
Encoding: 63 63 255
Width: 510
Flags: MW
HStem: -14 21G<206 217> -14 40<213 217> 683 21<282.5 385.5>
VStem: 195 40<3.5 8.5> 483 23<530 595>
LayerCount: 2
Fore
SplineSet
345 704 m 0xa8
 454 704 506 629 506 563 c 0
 506 487 469 434 377 343 c 0
 282 250 255 217 238 110 c 1
 218 110 l 1
 232 215 266 260 362 356 c 0
 457 451 483 497 483 563 c 0
 483 627 429 683 342 683 c 0
 223 683 151 607 123 494 c 1
 101 494 l 1
 127 620 220 704 345 704 c 0xa8
219 26 m 0x78
 229 26 235 19 235 10 c 0
 235 -3 223 -14 211 -14 c 0
 201 -14 195 -7 195 2 c 0
 195 15 207 26 219 26 c 0x78
EndSplineSet
EndChar

StartChar: at
Encoding: 64 64 315
Width: 844
Flags: MW
HStem: -104 21<308 438> -15 21G<674 674> 67 21<339 389> 75 21<584 651.5 584 653.5> 462 21<403 474.5 394.5 484.5> 643 21<370.5 548.5>
VStem: 54 24<138.5 371 138.5 375.5> 243 24<176 288.5> 505 24<145 173> 538.34 12.66 766 24<261 430>
LayerCount: 2
Fore
SplineSet
592 465 m 1xefe0
 542 256 l 2
 531 207 529 187 529 168 c 0
 529 122 560 96 608 96 c 0
 695 96 766 189 766 333 c 0
 766 527 640 643 457 643 c 0
 284 643 78 495 78 247 c 0
 78 30 228 -83 388 -83 c 0
 492 -83 565 -63 662 4 c 1
 674 -15 l 1
 562 -90 488 -104 388 -104 c 0
 223 -104 54 9 54 244 c 0
 54 507 268 664 463 664 c 0
 658 664 790 530 790 338 c 0
 790 165 701 75 606 75 c 0
 557 75 505 97 505 173 c 1xdfa0
 487 135 l 1xefa0
 452 88 412 67 366 67 c 0
 312 67 243 98 243 218 c 0
 243 359 334 483 455 483 c 0
 494 483 517 467 530 449 c 1
 551 397 l 1
 567 465 l 1
 592 465 l 1xefe0
525 279 m 2
 534 319 l 2xdfe0
 552 397 518 462 451 462 c 0
 355 462 267 356 267 222 c 0
 267 130 308 88 370 88 c 0xefa0
 431 88 493 139 525 279 c 2
EndSplineSet
EndChar

StartChar: B
Encoding: 66 66 12
Width: 580
GlyphClass: 2
Flags: MW
HStem: 0 21<54 220> 351 21<116 279 279 287 116 292 112 279> 669 21<169 320 169 169>
VStem: 492 24<150 245.5> 525 25<502 590.5>
LayerCount: 2
Fore
SplineSet
385 364 m 1
 474 349 516 292 516 215 c 0xf0
 516 85 405 9 289 2 c 0
 264 0 244 0 220 0 c 2
 28 0 l 1
 150 690 l 1
 324 690 l 2
 351 690 367 690 402 688 c 0
 493 682 550 631 550 551 c 0xf8
 550 453 483 378 385 364 c 1
116 372 m 1
 279 372 l 2
 295 372 311 372 334 373 c 0
 416 377 525 418 525 546 c 0xf8
 525 635 462 665 385 668 c 0
 362 669 346 669 320 669 c 2
 169 669 l 1
 116 372 l 1
282 22 m 0xf0
 378 29 492 81 492 212 c 0
 492 279 456 345 344 350 c 0
 321 351 308 351 292 351 c 2
 112 351 l 1
 54 21 l 1
 237 21 l 2
 253 21 269 21 282 22 c 0xf0
EndSplineSet
Position2: "'cpsp' Capital Spacing in Latin lookup 0 subtable" dx=5 dy=0 dh=10 dv=0
EndChar

StartChar: F
Encoding: 70 70 31
Width: 511
GlyphClass: 2
Flags: MW
HStem: 0 21G<28 50 28 28> 335 20<113 476 109 480> 670 20<168 168 168 565>
VStem: 28 541
LayerCount: 2
Fore
SplineSet
168 670 m 1
 113 355 l 1
 480 355 l 1
 476 335 l 1
 109 335 l 1
 50 0 l 1
 28 0 l 1
 150 690 l 1
 569 690 l 1
 565 670 l 1
 168 670 l 1
EndSplineSet
Position2: "'cpsp' Capital Spacing in Latin lookup 0 subtable" dx=5 dy=0 dh=10 dv=0
EndChar

StartChar: G
Encoding: 71 71 32
Width: 727
GlyphClass: 2
Flags: MW
HStem: -14 21<254.5 358.5> 0 21G<575 597 575 575> 287 20<396 626 393 651> 683 21<367 521.5>
VStem: 66 24<181.5 396.5> 661 22<474 484 474 545.5>
AnchorPoint: "Anchor-0" 278 0 basechar 0
LayerCount: 2
Fore
SplineSet
461 704 m 0xbc
 612 704 683 608 683 484 c 2
 683 474 l 1
 661 474 l 1
 661 484 l 2
 661 607 590 683 453 683 c 0
 281 683 90 537 90 270 c 0
 90 93 190 7 319 7 c 0xbc
 424 7 588 75 626 287 c 1
 393 287 l 1
 396 307 l 1
 651 307 l 1
 597 0 l 1
 575 0 l 1x7c
 608 184 l 1
 576 119 l 1
 502 23 403 -14 314 -14 c 0
 164 -14 66 91 66 269 c 0
 66 524 251 704 461 704 c 0xbc
EndSplineSet
Position2: "'cpsp' Capital Spacing in Latin lookup 0 subtable" dx=5 dy=0 dh=10 dv=0
EndChar

StartChar: H
Encoding: 72 72 36
Width: 618
GlyphClass: 2
Flags: MW
HStem: 0 21G<28 50 28 28 494 516 494 494> 328 21<112 552 108 556> 670 20G<150 172 172 172 616 638 638 638>
VStem: 28 610
LayerCount: 2
Fore
SplineSet
638 690 m 1
 516 0 l 1
 494 0 l 1
 552 328 l 1
 108 328 l 1
 50 0 l 1
 28 0 l 1
 150 690 l 1
 172 690 l 1
 112 349 l 1
 556 349 l 1
 616 690 l 1
 638 690 l 1
EndSplineSet
Position2: "'cpsp' Capital Spacing in Latin lookup 0 subtable" dx=5 dy=0 dh=10 dv=0
EndChar

StartChar: I
Encoding: 73 73 38
Width: 152
GlyphClass: 2
Flags: MW
HStem: 0 21G<28 50 28 28> 670 20G<150 172 172 172>
VStem: 28 144
LayerCount: 2
Fore
SplineSet
50 0 m 1
 28 0 l 1
 150 690 l 1
 172 690 l 1
 50 0 l 1
EndSplineSet
Position2: "'cpsp' Capital Spacing in Latin lookup 0 subtable" dx=5 dy=0 dh=10 dv=0
EndChar

StartChar: J
Encoding: 74 74 47
Width: 460
GlyphClass: 2
Flags: MW
HStem: -14 21<137.5 231 137.5 242> 670 20G<460 482 482 482>
VStem: 10.87 21.92
LayerCount: 2
Fore
SplineSet
482 690 m 1
 406 260 l 2
 401 229 396 201 388 169 c 0
 366 77 306 -14 178 -14 c 0
 70 -14 -6 53 14 194 c 1
 18 224 l 1
 40 224 l 1
 36 194 l 1
 16 56 91 7 184 7 c 0
 278 7 340 68 367 172 c 0
 373 194 377 221 383 252 c 2
 460 690 l 1
 482 690 l 1
EndSplineSet
Position2: "'cpsp' Capital Spacing in Latin lookup 0 subtable" dx=5 dy=0 dh=10 dv=0
EndChar

StartChar: K
Encoding: 75 75 48
Width: 532
GlyphClass: 2
Flags: MW
HStem: 0 21G<28 50 28 28 436 467 436 436> 670 20G<150 172 172 172 563 595 595 595>
VStem: 28 567
AnchorPoint: "Anchor-0" 229 0 basechar 0
LayerCount: 2
Fore
SplineSet
172 345 m 1
 467 0 l 1
 436 0 l 1
 153 333 l 1
 102 292 l 1
 50 0 l 1
 28 0 l 1
 150 690 l 1
 172 690 l 1
 106 319 l 1
 563 690 l 1
 595 690 l 1
 172 345 l 1
EndSplineSet
Position2: "'cpsp' Capital Spacing in Latin lookup 0 subtable" dx=5 dy=0 dh=10 dv=0
EndChar

StartChar: M
Encoding: 77 77 56
Width: 758
GlyphClass: 2
Flags: MW
HStem: 0 21<347 347 347 357 329 347> 673 17<167 167>
VStem: 28 750<0 690>
LayerCount: 2
Fore
SplineSet
778 690 m 1
 656 0 l 1
 634 0 l 1
 755 672 l 1
 357 0 l 1
 329 0 l 1
 167 673 l 1
 50 0 l 1
 28 0 l 1
 150 690 l 1
 185 690 l 1
 347 21 l 1
 743 690 l 1
 778 690 l 1
EndSplineSet
Position2: "'cpsp' Capital Spacing in Latin lookup 0 subtable" dx=5 dy=0 dh=10 dv=0
EndChar

StartChar: N
Encoding: 78 78 57
Width: 600
GlyphClass: 2
Flags: MW
HStem: 0 20<479 479 479 498 464 479> 672 18<168 168>
VStem: 28 592
AnchorPoint: "Anchor-0" 263 0 basechar 0
LayerCount: 2
Fore
SplineSet
620 690 m 1
 498 0 l 1
 464 0 l 1
 168 672 l 1
 50 0 l 1
 28 0 l 1
 150 690 l 1
 183 690 l 1
 479 20 l 1
 598 690 l 1
 620 690 l 1
EndSplineSet
Position2: "'cpsp' Capital Spacing in Latin lookup 0 subtable" dx=5 dy=0 dh=10 dv=0
EndChar

StartChar: P
Encoding: 80 80 73
Width: 479
GlyphClass: 2
Flags: MW
HStem: 0 21G<29 51 29 29> 308 21<109 236 105 240> 669 21<169 300 169 169>
VStem: 516 24<472 575.5>
LayerCount: 2
Fore
SplineSet
401 685 m 0
 480 675 540 630 540 538 c 0
 540 399 446 327 336 313 c 0
 303 309 271 308 236 308 c 2
 105 308 l 1
 51 0 l 1
 29 0 l 1
 150 690 l 1
 303 690 l 2
 338 690 370 689 401 685 c 0
336 334 m 0
 436 346 516 409 516 535 c 0
 516 616 466 655 394 664 c 0
 363 668 336 669 300 669 c 2
 169 669 l 1
 109 329 l 1
 240 329 l 2
 276 329 303 330 336 334 c 0
EndSplineSet
Position2: "'cpsp' Capital Spacing in Latin lookup 0 subtable" dx=5 dy=0 dh=10 dv=0
EndChar

StartChar: Q
Encoding: 81 81 75
Width: 723
GlyphClass: 2
Flags: MW
HStem: -14 21<266 345> 3 19 683 21<325 504>
VStem: 67 23<194 373 194 375.5> 680 23<338 496>
LayerCount: 2
Fore
SplineSet
703 413 m 0xb8
 703 263 627 94 485 22 c 1
 547 20 581 3 619 -35 c 1
 604 -52 l 1
 562 -9 526 3 473 3 c 0x78
 453 3 431 -1 402 -7 c 0
 377 -12 358 -14 332 -14 c 0
 176 -14 67 101 67 277 c 0
 67 474 198 704 438 704 c 0
 594 704 703 589 703 413 c 0xb8
90 277 m 0
 90 111 197 7 335 7 c 0
 555 7 680 221 680 413 c 0
 680 579 573 683 435 683 c 0
 215 683 90 469 90 277 c 0
EndSplineSet
Position2: "'cpsp' Capital Spacing in Latin lookup 0 subtable" dx=5 dy=0 dh=10 dv=0
EndChar

StartChar: S
Encoding: 83 83 80
Width: 544
GlyphClass: 2
Flags: MW
HStem: -14 21<179.5 304 179.5 309.5> 683 21<290.5 389.5>
VStem: 18 22<180 180> 108 25<467 561.5> 462 25<125.5 220> 511 22<514 567>
AnchorPoint: "Anchor-0" 242 0 basechar 0
LayerCount: 2
Fore
SplineSet
346 704 m 0
 475 704 538 617 533 514 c 1
 511 514 l 1xf4
 511 620 438 683 341 683 c 0
 240 683 133 627 133 506 c 0
 133 428 190 397 305 362 c 0
 425 326 487 276 487 179 c 0
 487 66 384 -14 235 -14 c 0
 114 -14 8 47 18 180 c 1
 40 180 l 1
 33 67 117 7 242 7 c 0
 366 7 462 75 462 176 c 0xfc
 462 264 408 306 291 341 c 0
 168 378 108 417 108 501 c 0
 108 622 205 704 346 704 c 0
EndSplineSet
Position2: "'cpsp' Capital Spacing in Latin lookup 0 subtable" dx=5 dy=0 dh=10 dv=0
EndChar

StartChar: T
Encoding: 84 84 85
Width: 580
GlyphClass: 2
Flags: MW
HStem: 0 21G<249 271 249 249> 670 20<107 367 103 657 389 653 389 389>
VStem: 103 554<670 690>
AnchorPoint: "Anchor-0" 255 0 basechar 0
LayerCount: 2
Fore
SplineSet
653 670 m 1
 389 670 l 1
 271 0 l 1
 249 0 l 1
 367 670 l 1
 103 670 l 1
 107 690 l 1
 657 690 l 1
 653 670 l 1
EndSplineSet
Position2: "'cpsp' Capital Spacing in Latin lookup 0 subtable" dx=5 dy=0 dh=10 dv=0
EndChar

StartChar: V
Encoding: 86 86 99
Width: 585
GlyphClass: 2
Flags: MW
HStem: 0 19<264 264 264 278 246 264> 670 20G<101 124 124 124 641 667 667 667>
VStem: 101 566<690 690>
LayerCount: 2
Fore
SplineSet
278 0 m 1
 246 0 l 1
 101 690 l 1
 124 690 l 1
 264 19 l 1
 641 690 l 1
 667 690 l 1
 278 0 l 1
EndSplineSet
Position2: "'cpsp' Capital Spacing in Latin lookup 0 subtable" dx=5 dy=0 dh=10 dv=0
EndChar

StartChar: W
Encoding: 87 87 100
Width: 823
GlyphClass: 2
Flags: MW
HStem: 0 28<171 171 171 180 153 171> 658 22<496 496> 670 20G<101 123 123 123 878 901 901 901>
VStem: 101 800<690 690>
LayerCount: 2
Fore
SplineSet
901 690 m 1xb0
 592 0 l 1
 566 0 l 1
 496 658 l 1xd0
 180 0 l 1
 153 0 l 1
 101 690 l 1
 123 690 l 1xb0
 171 28 l 1
 482 680 l 1
 515 680 l 1xd0
 584 30 l 1
 878 690 l 1
 901 690 l 1xb0
EndSplineSet
Position2: "'cpsp' Capital Spacing in Latin lookup 0 subtable" dx=5 dy=0 dh=10 dv=0
EndChar

StartChar: X
Encoding: 88 88 105
Width: 563
GlyphClass: 2
Flags: MW
HStem: 0 21G<-19 8 -19 -19 478 506 478 478> 670 20G<120 144 144 144 598 598>
VStem: -19 644
LayerCount: 2
Fore
SplineSet
317 347 m 1
 506 0 l 1
 478 0 l 1
 301 332 l 1
 8 0 l 1
 -19 0 l 1
 290 349 l 1
 120 690 l 1
 144 690 l 1
 307 365 l 1
 598 690 l 1
 625 689 l 1
 317 347 l 1
EndSplineSet
Position2: "'cpsp' Capital Spacing in Latin lookup 0 subtable" dx=5 dy=0 dh=10 dv=0
EndChar

StartChar: Z
Encoding: 90 90 111
Width: 538
GlyphClass: 2
Flags: MW
HStem: 0 21<24 465> 669 21<139 548 135 581>
VStem: -11 592
LayerCount: 2
Fore
SplineSet
577 670 m 1
 24 21 l 1
 469 21 l 1
 465 0 l 1
 -11 0 l 1
 -8 17 l 1
 548 669 l 1
 135 669 l 1
 139 690 l 1
 581 690 l 1
 577 670 l 1
EndSplineSet
Position2: "'cpsp' Capital Spacing in Latin lookup 0 subtable" dx=5 dy=0 dh=10 dv=0
EndChar

StartChar: bracketleft
Encoding: 91 91 264
Width: 242
Flags: MW
HStem: -80 21<37 164> 759 21<181 312 181 181>
VStem: 11 305
LayerCount: 2
Fore
SplineSet
163 780 m 1
 316 780 l 1
 312 759 l 1
 181 759 l 1
 37 -59 l 1
 168 -59 l 1
 164 -80 l 1
 11 -80 l 1
 163 780 l 1
EndSplineSet
EndChar

StartChar: backslash
Encoding: 92 92 245
Width: 263
Flags: MW
HStem: -30 750<75 216 75 194>
VStem: 75 141
LayerCount: 2
Fore
SplineSet
216 -30 m 1
 194 -30 l 1
 75 720 l 1
 97 720 l 1
 216 -30 l 1
EndSplineSet
EndChar

StartChar: bracketright
Encoding: 93 93 265
Width: 244
Flags: MW
HStem: -80 21<-39 92 -39 110 -43 92> 759 21<109 236 105 262>
VStem: -43 305
LayerCount: 2
Fore
SplineSet
110 -80 m 1
 -43 -80 l 1
 -39 -59 l 1
 92 -59 l 1
 236 759 l 1
 105 759 l 1
 109 780 l 1
 262 780 l 1
 110 -80 l 1
EndSplineSet
EndChar

StartChar: asciicircum
Encoding: 94 94 314
Width: 530
Flags: MW
HStem: 595 21<325 325>
VStem: 71 371<215 215>
LayerCount: 2
Fore
SplineSet
417 215 m 1
 325 595 l 1
 97 215 l 1
 71 215 l 1
 313 616 l 1
 342 616 l 1
 442 215 l 1
 417 215 l 1
EndSplineSet
EndChar

StartChar: underscore
Encoding: 95 95 261
Width: 500
Flags: MW
HStem: -80 21<52 448 48 452>
VStem: 48 404<-80 -59>
LayerCount: 2
Fore
SplineSet
448 -80 m 1
 48 -80 l 1
 52 -59 l 1
 452 -59 l 1
 448 -80 l 1
EndSplineSet
EndChar

StartChar: grave
Encoding: 96 96 333
Width: 300
Flags: MW
HStem: 580 110<84 152 84 134>
VStem: 84 68
LayerCount: 2
Fore
SplineSet
152 580 m 1
 134 580 l 1
 84 690 l 1
 110 690 l 1
 152 580 l 1
EndSplineSet
EndChar

StartChar: b
Encoding: 98 98 126
Width: 548
GlyphClass: 2
Flags: MW
HStem: -14 21<199 322 174 328.5> 0 21G<25 47 25 25> 519 21<297 385.5> 715 20G<155 177 177 177>
VStem: 69 13.45 499 23<246.5 381.5>
LayerCount: 2
Fore
SplineSet
336 540 m 0xbc
 453 540 522 451 522 327 c 0
 522 159 419 -14 238 -14 c 0
 160 -14 120 8 86 63 c 1xbc
 69 122 l 1
 47 0 l 1
 25 0 l 1x7c
 155 735 l 1
 177 735 l 1
 119 407 l 1
 157 466 l 1
 214 522 258 540 336 540 c 0xbc
241 7 m 0
 403 7 499 167 499 326 c 0
 499 437 440 519 331 519 c 0
 227 519 129 460 98 288 c 1
 88 229 l 2
 66 104 107 7 241 7 c 0
EndSplineSet
EndChar

StartChar: d
Encoding: 100 100 132
Width: 546
GlyphClass: 2
Flags: MW
HStem: -14 21<161.5 250> 0 21G<407 429 407 407> 519 21<225 348 218.5 373> 715 20G<537 559 559 559>
VStem: 25 23<144.5 279.5 144.5 283> 464.52 13.48
LayerCount: 2
Fore
SplineSet
559 735 m 1xbc
 429 0 l 1
 407 0 l 1x7c
 428 119 l 1
 390 60 l 1
 333 4 289 -14 211 -14 c 0
 94 -14 25 75 25 199 c 0
 25 367 128 540 309 540 c 0
 387 540 427 518 461 463 c 1
 478 404 l 1
 537 735 l 1
 559 735 l 1xbc
449 238 m 1
 459 297 l 2
 481 422 440 519 306 519 c 0
 144 519 48 359 48 200 c 0
 48 89 107 7 216 7 c 0xbc
 320 7 418 66 449 238 c 1
EndSplineSet
EndChar

StartChar: f
Encoding: 102 102 145
Width: 223
GlyphClass: 2
Flags: MW
HStem: 0 21G<29 51 29 29> 505 21<74 117 71 121 143 247 74 140> 733 16 733 21<234 264>
VStem: 29 272
LayerCount: 2
Fore
SplineSet
254 754 m 0xe8
 274 754 283 753 301 749 c 1
 297 728 l 1
 283 732 270 733 258 733 c 0
 210 733 181 706 169 663 c 1xe8
 164 641 161 624 158 609 c 2
 143 526 l 1
 250 526 l 1
 247 505 l 1
 140 505 l 1
 51 0 l 1
 29 0 l 1
 117 505 l 1
 71 505 l 1
 74 526 l 1
 121 526 l 1
 134 601 l 2
 138 621 141 637 147 663 c 1xd8
 165 729 213 754 254 754 c 0xe8
EndSplineSet
EndChar

StartChar: g
Encoding: 103 103 146
Width: 546
GlyphClass: 2
Flags: MW
HStem: -220 21<135.5 241 135.5 245> -14 21<161.5 250> 510 20G<500 522 522 522> 519 21<225 348 218.5 371>
VStem: 0 22<-62 -47 -114 -47> 25 23<144.5 279.5 144.5 283> 464.54 13.46
LayerCount: 2
Fore
SplineSet
522 530 m 1xea
 453 140 l 2
 439 57 432 16 425 -18 c 0
 400 -137 317 -220 173 -220 c 0
 76 -220 0 -173 0 -62 c 2
 0 -47 l 1
 22 -47 l 1
 22 -62 l 2xda
 22 -166 92 -199 179 -199 c 0
 303 -199 380 -131 404 -11 c 0
 411 24 416 51 424 100 c 2
 427 117 l 1
 390 60 l 1
 333 4 289 -14 211 -14 c 0
 94 -14 25 75 25 199 c 0
 25 367 128 540 309 540 c 0
 387 540 427 518 461 463 c 1xd6
 478 405 l 1
 500 530 l 1
 522 530 l 1xea
444 215 m 1
 461 309 l 1
 478 428 436 519 306 519 c 0
 144 519 48 359 48 200 c 0xd6
 48 89 107 7 216 7 c 0
 315 7 409 61 444 215 c 1
EndSplineSet
EndChar

StartChar: h
Encoding: 104 104 150
Width: 531
GlyphClass: 2
Flags: MW
HStem: 0 21G<25 47 25 25 396 418 396 396> 519 21<295.5 371> 720 20G<155 177 177 177>
VStem: 458 23<379 429.5>
LayerCount: 2
Fore
SplineSet
328 540 m 0
 428 540 481 485 481 396 c 0
 481 362 478 339 470 292 c 2
 418 0 l 1
 396 0 l 1
 446 283 l 2
 454 327 458 361 458 393 c 0
 458 466 418 519 324 519 c 0
 223 519 126 450 101 312 c 1
 47 0 l 1
 25 0 l 1
 155 740 l 1
 177 740 l 1
 118 406 l 1
 150 462 l 1
 199 517 263 540 328 540 c 0
EndSplineSet
EndChar

StartChar: i
Encoding: 105 105 152
Width: 163
GlyphClass: 2
Flags: MW
HStem: 0 21G<24 46 24 24> 506 20G<117 139 139 139> 613 40<144 150>
VStem: 127 40<629 637>
LayerCount: 2
Fore
SplineSet
150 653 m 0
 160 653 167 645 167 636 c 0
 167 622 156 613 144 613 c 0
 134 613 127 621 127 630 c 0
 127 644 138 653 150 653 c 0
46 0 m 1
 24 0 l 1
 117 526 l 1
 139 526 l 1
 46 0 l 1
EndSplineSet
EndChar

StartChar: j
Encoding: 106 106 161
Width: 151
GlyphClass: 2
Flags: MW
HStem: -210 20.21 506 20G<126 148 148 148> 613 40<149 155>
VStem: 132 40<629 637>
LayerCount: 2
Fore
SplineSet
155 653 m 0
 165 653 172 645 172 636 c 0
 172 622 161 613 149 613 c 0
 139 613 132 621 132 630 c 0
 132 644 143 653 155 653 c 0
148 526 m 1
 43 -73 l 2
 39 -93 36 -107 31 -125 c 0
 15 -188 -22 -210 -64 -210 c 0
 -75 -210 -86 -209 -99 -206 c 1
 -95 -187 l 1
 -38 -198 -5 -181 10 -123 c 0
 14 -109 16 -100 19 -84 c 2
 126 526 l 1
 148 526 l 1
EndSplineSet
EndChar

StartChar: k
Encoding: 107 107 162
Width: 473
GlyphClass: 2
Flags: MW
HStem: 0 21G<25 47 25 25 369 398 369 369> 506 20G<439 474 474 474> 715 20G<155 177 177 177>
VStem: 25 449
AnchorPoint: "Anchor-0" 183 0 basechar 0
LayerCount: 2
Fore
SplineSet
158 276 m 1
 398 0 l 1
 369 0 l 1
 140 263 l 1
 86 220 l 1
 47 0 l 1
 25 0 l 1
 155 735 l 1
 177 735 l 1
 91 248 l 1
 439 526 l 1
 474 526 l 1
 158 276 l 1
EndSplineSet
EndChar

StartChar: m
Encoding: 109 109 170
Width: 809
GlyphClass: 2
Flags: MW
HStem: 0 21G<25 47 25 25 350 372 350 350 675 697 675 675> 506 20G<117 139 139 139> 520 20<277.5 341 602.5 664.5>
VStem: 412 23<403 403 403 434> 737 23<379 433>
LayerCount: 2
Fore
SplineSet
630 540 m 0xb8
 717 540 760 487 760 401 c 0
 760 357 757 346 748 292 c 2
 697 0 l 1
 675 0 l 1
 725 283 l 2
 733 329 737 353 737 391 c 0
 737 475 704 520 625 520 c 0
 537 520 451 452 425 302 c 2
 372 0 l 1
 350 0 l 1
 400 283 l 2
 409 336 412 359 412 391 c 0
 412 477 382 520 300 520 c 0xb8
 212 520 126 452 100 302 c 2
 47 0 l 1
 25 0 l 1
 117 526 l 1
 139 526 l 1xd8
 119 413 l 1
 154 471 l 1
 198 518 250 540 305 540 c 0
 391 540 434 489 435 403 c 1
 479 471 l 1
 523 518 575 540 630 540 c 0xb8
EndSplineSet
EndChar

StartChar: n
Encoding: 110 110 171
Width: 531
GlyphClass: 2
Flags: MW
HStem: 0 21G<25 47 25 25 396 418 396 396> 506 20G<117 139 139 139> 519 21<295.5 371>
VStem: 458 23<379 429.5>
AnchorPoint: "Anchor-0" 216 0 basechar 0
LayerCount: 2
Fore
SplineSet
328 540 m 0xb0
 428 540 481 485 481 396 c 0
 481 362 478 339 470 292 c 2
 418 0 l 1
 396 0 l 1
 446 283 l 2
 454 327 458 361 458 393 c 0
 458 466 418 519 324 519 c 0xb0
 223 519 126 450 101 312 c 1
 47 0 l 1
 25 0 l 1
 117 526 l 1
 139 526 l 1xd0
 118 406 l 1
 150 462 l 1
 199 517 263 540 328 540 c 0xb0
EndSplineSet
EndChar

StartChar: o
Encoding: 111 111 177
Width: 551
GlyphClass: 2
Flags: MW
HStem: -14 21<185.5 327.5 185.5 336.5> 519 21<222.5 364.5>
VStem: 26 23<149 279 147.5 281> 501 23<247 377 245 378.5>
LayerCount: 2
Fore
SplineSet
314 540 m 0
 452 540 524 442 524 312 c 0
 524 178 437 -14 236 -14 c 0
 98 -14 26 84 26 214 c 0
 26 348 113 540 314 540 c 0
240 7 m 0
 415 7 501 182 501 312 c 0
 501 445 419 519 310 519 c 0
 135 519 49 344 49 214 c 0
 49 81 131 7 240 7 c 0
EndSplineSet
EndChar

StartChar: p
Encoding: 112 112 187
Width: 548
GlyphClass: 2
Flags: MW
HStem: -14 21<199 322 174 328.5> 506 20G<119 141 141 141> 519 21<297 385.5>
VStem: 69 13.45 499 23<246.5 381.5>
LayerCount: 2
Fore
SplineSet
336 540 m 0xb8
 453 540 522 451 522 327 c 0
 522 159 419 -14 238 -14 c 0
 160 -14 120 8 86 63 c 1
 69 122 l 1
 12 -196 l 1
 -10 -196 l 1
 119 526 l 1
 141 526 l 1xd8
 120 408 l 1
 157 466 l 1
 214 522 258 540 336 540 c 0xb8
241 7 m 0
 403 7 499 167 499 326 c 0
 499 437 440 519 331 519 c 0
 227 519 129 460 98 288 c 1
 88 229 l 2
 66 104 107 7 241 7 c 0
EndSplineSet
EndChar

StartChar: q
Encoding: 113 113 189
Width: 546
GlyphClass: 2
Flags: MW
HStem: -14 21<161.5 250> 506 20G<500 522 522 522> 519 21<225 348 218.5 373>
VStem: 25 23<144.5 279.5 144.5 283> 464.52 13.48
LayerCount: 2
Fore
SplineSet
522 526 m 1xd8
 393 -196 l 1
 371 -196 l 1
 427 118 l 1
 390 60 l 1
 333 4 289 -14 211 -14 c 0
 94 -14 25 75 25 199 c 0
 25 367 128 540 309 540 c 0
 387 540 427 518 461 463 c 1xb8
 478 404 l 1
 500 526 l 1
 522 526 l 1xd8
449 238 m 1
 459 297 l 2
 481 422 440 519 306 519 c 0
 144 519 48 359 48 200 c 0
 48 89 107 7 216 7 c 0
 320 7 418 66 449 238 c 1
EndSplineSet
EndChar

StartChar: r
Encoding: 114 114 190
Width: 264
GlyphClass: 2
Flags: MW
HStem: 0 21G<25 47 25 25> 510 20G<118 140 140 140> 519 21<256.5 300>
VStem: 25 279
AnchorPoint: "Anchor-0" 36 0 basechar 0
LayerCount: 2
Fore
SplineSet
281 540 m 0xb0
 289 540 297 540 304 539 c 1
 300 519 l 1xb0
 233 524 135 498 98 295 c 1
 97 288 l 1
 47 0 l 1
 25 0 l 1
 118 530 l 1
 140 530 l 1xd0
 120 416 l 1
 150 473 l 1
 186 515 232 540 281 540 c 0xb0
EndSplineSet
EndChar

StartChar: t
Encoding: 116 116 200
Width: 243
GlyphClass: 2
Flags: MW
HStem: -7 18.02 -7 21 504 18<62 123 59 126 148 248>
VStem: 48 22<36 63.5>
AnchorPoint: "Anchor-0" 100 0 basechar 0
LayerCount: 2
Fore
SplineSet
145 504 m 1xb0
 79 128 l 2
 72 91 70 73 70 57 c 0xb0
 70 15 99 5 164 14 c 1x70
 161 -4 l 1
 147 -6 136 -7 116 -7 c 0
 71 -7 48 10 48 53 c 0
 48 74 50 94 57 132 c 2
 123 504 l 1
 59 504 l 1
 62 522 l 1
 126 522 l 1
 145 630 l 1
 167 630 l 1
 148 522 l 1
 251 522 l 1
 248 504 l 1
 145 504 l 1xb0
EndSplineSet
EndChar

StartChar: u
Encoding: 117 117 205
Width: 527
GlyphClass: 2
Flags: MW
HStem: -14 21<156 231.5> 0 21G<388 410 388 388> 506 20G<109 131 131 131 480 502 502 502>
VStem: 46 23<96.5 147>
LayerCount: 2
Fore
SplineSet
502 526 m 1xb0
 410 0 l 1
 388 0 l 1x70
 409 120 l 1
 377 64 l 1
 328 9 264 -14 199 -14 c 0
 99 -14 46 41 46 130 c 0
 46 164 49 187 57 234 c 2
 109 526 l 1
 131 526 l 1
 81 243 l 2
 73 199 69 165 69 133 c 0
 69 60 109 7 203 7 c 0
 304 7 401 76 426 214 c 1
 480 526 l 1
 502 526 l 1xb0
EndSplineSet
EndChar

StartChar: v
Encoding: 118 118 214
Width: 472
GlyphClass: 2
Flags: MW
HStem: 0 20<188 188 188 200 170 188> 506 20G<56 80 80 80 476 502 502 502>
VStem: 56 446<526 526>
LayerCount: 2
Fore
SplineSet
502 526 m 1
 200 0 l 1
 170 0 l 1
 56 526 l 1
 80 526 l 1
 188 20 l 1
 476 526 l 1
 502 526 l 1
EndSplineSet
EndChar

StartChar: w
Encoding: 119 119 215
Width: 717
GlyphClass: 2
Flags: MW
HStem: 0 21<144 144 144 157 126 144> 0 24<477 477 477 487 458 477> 504 20<396 396>
VStem: 56 691<526 526>
LayerCount: 2
Fore
SplineSet
747 526 m 1xb0
 487 0 l 1
 458 0 l 1
 396 504 l 1
 157 0 l 1
 126 0 l 1
 56 526 l 1
 78 526 l 1
 144 21 l 1xb0
 382 524 l 1
 414 524 l 1
 477 24 l 1x70
 722 526 l 1
 747 526 l 1xb0
EndSplineSet
EndChar

StartChar: x
Encoding: 120 120 220
Width: 441
GlyphClass: 2
Flags: MW
HStem: 0 21G<-40 -11 -40 -40 340 366 340 340> 506 20G<70 94 94 94 436 465 465 465>
VStem: -40 505
LayerCount: 2
Fore
SplineSet
226 264 m 1
 366 0 l 1
 340 0 l 1
 211 248 l 1
 -11 0 l 1
 -40 0 l 1
 201 268 l 1
 70 526 l 1
 94 526 l 1
 217 284 l 1
 436 526 l 1
 465 526 l 1
 226 264 l 1
EndSplineSet
EndChar

StartChar: z
Encoding: 122 122 226
Width: 464
GlyphClass: 2
Flags: MW
HStem: 0 19<8 384> 501 21<91 436 88 470>
VStem: -25 495
LayerCount: 2
Fore
SplineSet
467 502 m 1
 8 19 l 1
 387 19 l 1
 384 0 l 1
 -25 0 l 1
 -22 18 l 1
 436 501 l 1
 88 501 l 1
 91 522 l 1
 470 522 l 1
 467 502 l 1
EndSplineSet
EndChar

StartChar: bar
Encoding: 124 124 316
Width: 251
Flags: MW
HStem: -200 1000<33 231 33 231>
VStem: 33 198
LayerCount: 2
Fore
SplineSet
55 -200 m 1
 33 -200 l 1
 209 800 l 1
 231 800 l 1
 55 -200 l 1
EndSplineSet
EndChar

StartChar: braceright
Encoding: 125 125 263
Width: 287
Flags: MW
HStem: -80 21<-39 -26 -43 -21> 339 22<237 241> 759 21<109 123 105 126>
VStem: 152 23<414.5 446 414.5 446.5> 215 23<677 717.5>
LayerCount: 2
Fore
SplineSet
175 432 m 0
 175 397 192 366 241 361 c 1
 237 339 l 1
 137 329 133 233 130 135 c 0
 126 5 109 -80 -26 -80 c 2
 -43 -80 l 1
 -39 -59 l 1
 -21 -59 l 2
 92 -59 103 15 107 125 c 1
 112 230 115 328 210 350 c 1
 165 362 152 397 152 431 c 0
 152 462 158 493 185 571 c 0
 210 642 215 662 215 692 c 0
 215 743 178 759 123 759 c 2
 105 759 l 1
 109 780 l 1
 126 780 l 2
 192 780 238 753 238 692 c 0
 238 661 229 632 204 561 c 0
 180 494 175 460 175 432 c 0
EndSplineSet
EndChar

StartChar: asciitilde
Encoding: 126 126 290
Width: 600
Flags: MW
HStem: 233 21<407 444> 325 21<164.5 201.5>
VStem: 84 441<229 350>
LayerCount: 2
Fore
SplineSet
504 350 m 1
 525 350 l 1
 510 267 471 233 417 233 c 0
 380 233 361 240 296 280 c 0
 239 315 217 325 186 325 c 0
 141 325 116 291 105 229 c 1
 84 229 l 1
 99 312 138 346 191 346 c 0
 229 346 249 338 313 299 c 0
 371 263 392 254 422 254 c 0
 468 254 493 288 504 350 c 1
EndSplineSet
EndChar

StartChar: exclamdown
Encoding: 161 161 251
Width: 156
Flags: MW
HStem: 500 40<121 125>
VStem: 103 40<517.5 522.5>
LayerCount: 2
Fore
SplineSet
119 500 m 0
 109 500 103 507 103 516 c 0
 103 529 115 540 127 540 c 0
 137 540 143 533 143 524 c 0
 143 511 131 500 119 500 c 0
95 416 m 1
 114 416 l 1
 12 -164 l 1
 -11 -164 l 1
 95 416 l 1
EndSplineSet
EndChar

StartChar: cent
Encoding: 162 162 283
Width: 530
Flags: MW
HStem: -14 21<211 214 214 233> 520 20<327 331>
VStem: 36 22<144.5 280.5> 483 22<363 410>
LayerCount: 2
Fore
SplineSet
345 620 m 1
 331 540 l 1
 443 539 508 467 505 363 c 1
 483 363 l 1
 483 457 431 518 327 520 c 1
 236 6 l 1
 328 9 406 62 448 157 c 1
 470 157 l 1
 426 48 337 -11 233 -14 c 1
 219 -90 l 1
 197 -90 l 1
 211 -14 l 1
 107 -7 36 73 36 210 c 0
 36 351 131 527 309 539 c 1
 323 620 l 1
 345 620 l 1
58 211 m 0
 58 78 127 13 214 7 c 1
 305 519 l 1
 155 508 58 352 58 211 c 0
EndSplineSet
EndChar

StartChar: sterling
Encoding: 163 163 287
Width: 531
Flags: MW
HStem: 0 21<49 431> 352 21<71 153 71 163 67 153 187 411 187 187> 683 21<269.5 384>
VStem: 128 23<476.5 544.5 476.5 546.5> 191 23<197 254.5 197 257> 482 22<508 508>
LayerCount: 2
Fore
SplineSet
330 704 m 0
 463 704 498 614 504 508 c 1
 482 508 l 1
 477 610 442 683 326 683 c 0
 213 683 151 585 151 504 c 0
 151 449 161 413 178 373 c 1
 415 373 l 1
 411 352 l 1
 187 352 l 1
 206 308 214 269 214 240 c 0
 214 154 169 79 49 21 c 1
 435 21 l 1
 431 0 l 1
 -4 0 l 1
 -1 19 l 1
 124 70 191 140 191 239 c 0
 191 275 182 309 163 352 c 1
 67 352 l 1
 71 373 l 1
 153 373 l 1
 139 407 128 447 128 503 c 0
 128 590 195 704 330 704 c 0
EndSplineSet
EndChar

StartChar: currency
Encoding: 164 164 284
Width: 530
Flags: MW
HStem: 121 21<223.5 270.5> 460 21<271.5 318.5>
VStem: 96 23<268 309.5> 423 23<290 335 290 358>
LayerCount: 2
Fore
SplineSet
446 315 m 0
 446 265 426 212 385 173 c 1
 427 123 l 1
 408 107 l 1
 366 158 l 1
 335 135 295 121 246 121 c 0
 201 121 163 139 137 169 c 1
 69 112 l 1
 56 128 l 1
 124 186 l 1
 106 214 96 249 96 287 c 0
 96 332 117 387 158 427 c 1
 113 481 l 1
 132 497 l 1
 177 443 l 1
 208 466 247 481 296 481 c 0
 341 481 379 464 405 434 c 1
 475 493 l 1
 488 477 l 1
 418 417 l 1
 436 390 446 355 446 315 c 0
119 289 m 0
 119 205 170 142 250 142 c 0
 367 142 423 242 423 313 c 0
 423 403 372 460 292 460 c 0
 175 460 119 360 119 289 c 0
EndSplineSet
EndChar

StartChar: yen
Encoding: 165 165 288
Width: 530
Flags: MW
HStem: 0 21G<207 229 207 207> 221 21<66 246 62 250 272 452 66 268> 321 21<83 257 83 264 80 257 302 470> 670 20G<97 120 120 120 555 583 583 583>
VStem: 62 521<221 690>
LayerCount: 2
Fore
SplineSet
302 342 m 1
 473 342 l 1
 470 321 l 1
 286 321 l 1
 272 242 l 1
 456 242 l 1
 452 221 l 1
 268 221 l 1
 229 0 l 1
 207 0 l 1
 246 221 l 1
 62 221 l 1
 66 242 l 1
 250 242 l 1
 264 321 l 1
 80 321 l 1
 83 342 l 1
 257 342 l 1
 97 690 l 1
 120 690 l 1
 278 344 l 1
 555 690 l 1
 583 690 l 1
 302 342 l 1
EndSplineSet
EndChar

StartChar: brokenbar
Encoding: 166 166 317
Width: 251
Flags: MW
HStem: 670 20G<190 212 212 212>
VStem: 40 172
LayerCount: 2
Fore
SplineSet
152 350 m 1
 130 350 l 1
 190 690 l 1
 212 690 l 1
 152 350 l 1
62 -160 m 1
 40 -160 l 1
 100 180 l 1
 122 180 l 1
 62 -160 l 1
EndSplineSet
EndChar

StartChar: section
Encoding: 167 167 324
Width: 530
Flags: MW
HStem: -174 21<171 261.5 171 268> 103 14 418 14 683 21<267 359>
VStem: 49 23<230 315> 149 23<524.5 587 514 593> 375 23<-67 -1 -71 6> 476 23<215.5 295>
LayerCount: 2
Fore
SplineSet
499 256 m 0
 499 175 430 114 308 103 c 1
 371 72 398 27 398 -29 c 0
 398 -113 319 -174 217 -174 c 0
 115 -174 41 -124 26 -9 c 1
 48 -9 l 1
 65 -108 125 -153 217 -153 c 0
 306 -153 375 -105 375 -29 c 0
 375 41 334 85 206 113 c 1
 133 130 49 176 49 272 c 0
 49 358 120 421 232 432 c 1
 179 457 149 493 149 556 c 0
 149 630 209 704 317 704 c 0
 428 704 478 640 492 549 c 1
 470 549 l 1
 452 642 401 683 317 683 c 0
 217 683 172 619 172 555 c 0
 172 473 245 443 320 424 c 0
 428 397 499 350 499 256 c 0
273 117 m 1
 388 122 476 167 476 256 c 0
 476 334 422 373 305 406 c 0
 292 410 279 414 268 418 c 1
 160 413 72 366 72 275 c 0
 72 185 144 150 218 133 c 0
 238 128 256 123 273 117 c 1
EndSplineSet
EndChar

StartChar: dieresis
Encoding: 168 168 331
Width: 300
Flags: MW
HStem: 613 40<108 112 188 192>
VStem: 90 40<630.5 635.5> 170 40<630.5 635.5>
LayerCount: 2
Fore
SplineSet
114 653 m 0
 124 653 130 646 130 637 c 0
 130 624 118 613 106 613 c 0
 96 613 90 620 90 629 c 0
 90 642 102 653 114 653 c 0
194 653 m 0
 204 653 210 646 210 637 c 0
 210 624 198 613 186 613 c 0
 176 613 170 620 170 629 c 0
 170 642 182 653 194 653 c 0
EndSplineSet
EndChar

StartChar: copyright
Encoding: 169 169 318
Width: 838
Flags: MW
HStem: -16 23<324 514 324 520.5> 149 21<373 456 373 459> 543 21<373 462.5> 704 22<324 514>
VStem: 56 22<258 452 258 458.5> 243 22<303.5 405 303.5 420> 760 22<258 452>
LayerCount: 2
Fore
SplineSet
419 726 m 0
 622 726 782 562 782 355 c 0
 782 148 622 -16 419 -16 c 0
 216 -16 56 148 56 355 c 0
 56 562 216 726 419 726 c 0
419 704 m 0
 229 704 78 549 78 355 c 0
 78 161 229 7 419 7 c 0
 609 7 760 161 760 355 c 0
 760 549 609 704 419 704 c 0
422 564 m 0
 506 564 573 518 585 426 c 1
 563 426 l 1
 549 497 503 543 422 543 c 0
 324 543 265 454 265 356 c 0
 265 251 328 170 418 170 c 0
 494 170 545 208 562 286 c 1
 584 286 l 1
 566 194 503 149 415 149 c 0
 323 149 243 227 243 355 c 0
 243 485 324 564 422 564 c 0
EndSplineSet
EndChar

StartChar: guillemotleft
Encoding: 171 171 272
Width: 456
Flags: MW
HStem: 82 332<205 294 205 294 263 325 263 352>
VStem: 97 317<248 414>
LayerCount: 2
Fore
SplineSet
126 246 m 1
 232 82 l 1
 205 82 l 1
 97 248 l 1
 263 414 l 1
 294 414 l 1
 126 246 l 1
246 246 m 1
 352 82 l 1
 325 82 l 1
 217 248 l 1
 383 414 l 1
 414 414 l 1
 246 246 l 1
EndSplineSet
EndChar

StartChar: logicalnot
Encoding: 172 172 300
Width: 530
Flags: MW
HStem: 344 21<92 417 88 443>
VStem: 88 355<344 365>
LayerCount: 2
Fore
SplineSet
415 210 m 1
 393 210 l 1
 417 344 l 1
 88 344 l 1
 92 365 l 1
 443 365 l 1
 415 210 l 1
EndSplineSet
EndChar

StartChar: registered
Encoding: 174 174 323
Width: 522
Flags: MW
HStem: 344 21<184.5 309.5 184.5 314.5> 537 19<223 251 251 254.5 223 261 220 251> 641 19<238 264 238 238> 743 21<212.5 337.5>
VStem: 47 23<482.5 574.5 482.5 580> 291 21<500 513> 320 23<590 614.5> 452 23<533.5 625.5>
LayerCount: 2
Fore
SplineSet
288 764 m 0
 406 764 475 685 475 581 c 0
 475 475 395 344 234 344 c 0
 116 344 47 423 47 527 c 0
 47 633 127 764 288 764 c 0
238 365 m 0
 381 365 452 486 452 581 c 0
 452 670 391 743 284 743 c 0
 141 743 70 622 70 527 c 0
 70 438 131 365 238 365 c 0
291 659 m 0xff
 324 655 343 632 343 604 c 0xff
 343 572 320 553 290 547 c 1
 303 542 312 531 312 513 c 0
 312 487 314 476 321 456 c 1
 298 456 l 1
 294 466 291 482 291 498 c 0
 291 528 286 537 261 537 c 2
 220 537 l 1
 206 456 l 1xfd
 186 456 l 1
 222 660 l 1
 268 660 l 2
 275 660 282 660 291 659 c 0xff
273 557 m 0
 303 560 320 577 320 603 c 0
 320 626 308 636 286 640 c 0
 280 641 273 641 264 641 c 2
 238 641 l 1
 223 556 l 1
 251 556 l 2
 258 556 264 556 273 557 c 0
EndSplineSet
EndChar

StartChar: macron
Encoding: 175 175 335
Width: 300
Flags: MW
HStem: 620 21<82 218 78 222>
VStem: 78 144<620 641>
LayerCount: 2
Fore
SplineSet
218 620 m 1
 78 620 l 1
 82 641 l 1
 222 641 l 1
 218 620 l 1
EndSplineSet
EndChar

StartChar: degree
Encoding: 176 176 321
Width: 277
Flags: MW
HStem: 547 21<171.5 218 171.5 220.5> 728 21<194 240.5>
VStem: 102 24<612 659.5 612 667> 286 24<636.5 684>
LayerCount: 2
Fore
SplineSet
224 749 m 0
 276 749 310 713 310 665 c 0
 310 593 253 547 188 547 c 0
 136 547 102 583 102 631 c 0
 102 703 159 749 224 749 c 0
220 728 m 0
 168 728 126 688 126 631 c 0
 126 593 151 568 192 568 c 0
 244 568 286 608 286 665 c 0
 286 703 261 728 220 728 c 0
EndSplineSet
EndChar

StartChar: plusminus
Encoding: 177 177 308
Width: 530
Flags: MW
HStem: 0 21<22 419 19 422> 307 21<76 262 73 265 287 473 76 284> 518 20G<302 324 324 324>
VStem: 19 457<0 328>
LayerCount: 2
Fore
SplineSet
476 328 m 1
 473 307 l 1
 284 307 l 1
 247 97 l 1
 225 97 l 1
 262 307 l 1
 73 307 l 1
 76 328 l 1
 265 328 l 1
 302 538 l 1
 324 538 l 1
 287 328 l 1
 476 328 l 1
22 21 m 1
 422 21 l 1
 419 0 l 1
 19 0 l 1
 22 21 l 1
EndSplineSet
EndChar

StartChar: acute
Encoding: 180 180 326
Width: 300
Flags: MW
HStem: 670 20G<208 236 236 236>
VStem: 128 108
LayerCount: 2
Fore
SplineSet
147 580 m 1
 128 580 l 1
 208 690 l 1
 236 690 l 1
 147 580 l 1
EndSplineSet
EndChar

StartChar: paragraph
Encoding: 182 182 322
Width: 518
Flags: MW
HStem: 669 21<369 497 369 369>
VStem: 78 445<439.5 690>
LayerCount: 2
Fore
SplineSet
523 690 m 1
 381 -110 l 1
 359 -110 l 1
 497 669 l 1
 369 669 l 1
 231 -110 l 1
 209 -110 l 1
 285 320 l 1
 262 320 l 2
 244 320 223 320 206 321 c 0
 121 326 78 401 78 478 c 0
 78 563 135 681 271 689 c 0
 289 690 310 690 328 690 c 2
 523 690 l 1
EndSplineSet
EndChar

StartChar: periodcentered
Encoding: 183 183 254
Width: 136
Flags: MW
HStem: 283 44<70 76>
VStem: 51 44<301.5 308.5>
LayerCount: 2
Fore
SplineSet
77 327 m 0
 89 327 95 320 95 309 c 0
 95 294 83 283 69 283 c 0
 57 283 51 290 51 301 c 0
 51 316 63 327 77 327 c 0
EndSplineSet
EndChar

StartChar: cedilla
Encoding: 184 184 329
Width: 300
Flags: MW
HStem: -210 21<97 134.5 97 135> -69 18 1 21G<180 180>
VStem: 195 23<-142 -103>
LayerCount: 2
Fore
SplineSet
180 1 m 1
 143 -51 l 1
 188 -55 218 -78 218 -121 c 0
 218 -181 168 -210 102 -210 c 0
 84 -210 67 -208 51 -203 c 1
 55 -182 l 1
 73 -188 88 -189 106 -189 c 0
 163 -189 195 -162 195 -122 c 0
 195 -84 168 -66 107 -69 c 1
 162 7 l 1
 180 1 l 1
EndSplineSet
EndChar

StartChar: guillemotright
Encoding: 187 187 273
Width: 456
Flags: MW
HStem: 82 332<36 125 36 125 98 156 98 187>
VStem: 36 317<82 248>
LayerCount: 2
Fore
SplineSet
233 248 m 1
 67 82 l 1
 36 82 l 1
 204 250 l 1
 98 414 l 1
 125 414 l 1
 233 248 l 1
353 248 m 1
 187 82 l 1
 156 82 l 1
 324 250 l 1
 218 414 l 1
 245 414 l 1
 353 248 l 1
EndSplineSet
EndChar

StartChar: questiondown
Encoding: 191 191 256
Width: 469
Flags: MW
HStem: -179 21<130.5 233.5 130.5 233.5> 499 40<299 303>
VStem: 10 23<-70 -5 -70 0> 281 40<516.5 521.5>
LayerCount: 2
Fore
SplineSet
297 499 m 0
 287 499 281 506 281 515 c 0
 281 528 293 539 305 539 c 0
 315 539 321 532 321 523 c 0
 321 510 309 499 297 499 c 0
171 -179 m 0
 62 -179 10 -104 10 -38 c 0
 10 38 47 91 139 182 c 0
 234 275 261 308 278 415 c 1
 298 415 l 1
 284 310 250 265 154 169 c 0
 59 74 33 28 33 -38 c 0
 33 -102 87 -158 174 -158 c 0
 293 -158 365 -82 393 31 c 1
 415 31 l 1
 389 -95 296 -179 171 -179 c 0
EndSplineSet
EndChar

StartChar: Aacute
Encoding: 193 193 2
Width: 620
GlyphClass: 2
Flags: MW
HStem: 0 21G<-11 16 -11 -11 532 532 532 556> 269 21<179 472 179 476 167 472> 671 19<393 393> 736 94<392 489 392 489>
VStem: -11 567<0 0>
LayerCount: 2
Fore
SplineSet
411 736 m 1
 392 736 l 1
 461 830 l 1
 489 830 l 1
 411 736 l 1
476 269 m 1
 167 269 l 1
 16 0 l 1
 -11 0 l 1
 378 690 l 1
 411 690 l 1
 556 0 l 1
 532 0 l 1
 476 269 l 1
472 290 m 1
 393 671 l 1
 179 290 l 1
 472 290 l 1
EndSplineSet
Position2: "'cpsp' Capital Spacing in Latin lookup 0 subtable" dx=5 dy=0 dh=10 dv=0
EndChar

StartChar: Acircumflex
Encoding: 194 194 4
Width: 620
GlyphClass: 2
Flags: MW
HStem: 0 21G<-11 16 -11 -11 532 532 532 556> 269 21<179 472 179 476 167 472> 671 19<393 393> 815 15<421 421>
VStem: -11 567<0 0>
LayerCount: 2
Fore
SplineSet
355 736 m 1
 329 736 l 1
 410 830 l 1
 435 830 l 1
 484 736 l 1
 460 736 l 1
 421 815 l 1
 355 736 l 1
476 269 m 1
 167 269 l 1
 16 0 l 1
 -11 0 l 1
 378 690 l 1
 411 690 l 1
 556 0 l 1
 532 0 l 1
 476 269 l 1
472 290 m 1
 393 671 l 1
 179 290 l 1
 472 290 l 1
EndSplineSet
Position2: "'cpsp' Capital Spacing in Latin lookup 0 subtable" dx=5 dy=0 dh=10 dv=0
EndChar

StartChar: Atilde
Encoding: 195 195 10
Width: 620
GlyphClass: 2
Flags: MW
HStem: 0 21G<-11 16 -11 -11 532 532 532 556> 269 21<179 472 179 476 167 472> 671 19<393 393> 761 21<459.5 469 459.5 476> 785 21<355 364.5>
VStem: 321 20<765 765> 483 20<802 802>
LayerCount: 2
Fore
SplineSet
360 785 m 0
 350 785 343 780 341 765 c 1
 321 765 l 1
 322 791 336 806 360 806 c 0xee
 376 806 393 802 419 793 c 0
 441 785 455 782 464 782 c 0
 474 782 481 787 483 802 c 1
 503 802 l 1
 502 776 488 761 464 761 c 0xf6
 448 761 431 765 405 774 c 0
 383 782 369 785 360 785 c 0
476 269 m 1
 167 269 l 1
 16 0 l 1
 -11 0 l 1
 378 690 l 1
 411 690 l 1
 556 0 l 1
 532 0 l 1
 476 269 l 1
472 290 m 1
 393 671 l 1
 179 290 l 1
 472 290 l 1
EndSplineSet
Position2: "'cpsp' Capital Spacing in Latin lookup 0 subtable" dx=5 dy=0 dh=10 dv=0
EndChar

StartChar: Adieresis
Encoding: 196 196 5
Width: 620
GlyphClass: 2
Flags: MW
HStem: 0 21G<-11 16 -11 -11 532 532 532 556> 269 21<179 472 179 476 167 472> 671 19<393 393> 763 40<375 379 445 449>
VStem: 357 40<780.5 785.5> 427 40<780.5 785.5>
LayerCount: 2
Fore
SplineSet
373 763 m 0
 363 763 357 770 357 779 c 0
 357 792 369 803 381 803 c 0
 391 803 397 796 397 787 c 0
 397 774 385 763 373 763 c 0
443 763 m 0xf4
 433 763 427 770 427 779 c 0
 427 792 439 803 451 803 c 0
 461 803 467 796 467 787 c 0
 467 774 455 763 443 763 c 0xf4
476 269 m 1
 167 269 l 1
 16 0 l 1
 -11 0 l 1
 378 690 l 1
 411 690 l 1
 556 0 l 1
 532 0 l 1
 476 269 l 1
472 290 m 1
 393 671 l 1
 179 290 l 1
 472 290 l 1
EndSplineSet
Position2: "'cpsp' Capital Spacing in Latin lookup 0 subtable" dx=5 dy=0 dh=10 dv=0
EndChar

StartChar: Aring
Encoding: 197 197 9
Width: 620
GlyphClass: 2
Flags: MW
HStem: 0 21G<-11 16 -11 -11 532 532 532 556> 269 21<179 472 179 476 167 472> 671 19<393 393> 722 21<394 419 394 419.5> 823 21<405 430>
VStem: 348 24<765.5 787 765.5 793.5> 452 24<779 800.5>
LayerCount: 2
Fore
SplineSet
401 722 m 0
 371 722 348 740 348 771 c 0
 348 816 386 844 423 844 c 0
 453 844 476 826 476 795 c 0
 476 750 438 722 401 722 c 0
419 823 m 0
 391 823 372 800 372 774 c 0
 372 757 383 743 405 743 c 0
 433 743 452 766 452 792 c 0
 452 809 441 823 419 823 c 0
476 269 m 1
 167 269 l 1
 16 0 l 1
 -11 0 l 1
 378 690 l 1
 411 690 l 1
 556 0 l 1
 532 0 l 1
 476 269 l 1
472 290 m 1
 393 671 l 1
 179 290 l 1
 472 290 l 1
EndSplineSet
Position2: "'cpsp' Capital Spacing in Latin lookup 0 subtable" dx=5 dy=0 dh=10 dv=0
EndChar

StartChar: AE
Encoding: 198 198 11
Width: 937
GlyphClass: 2
Flags: MW
HStem: 0 20<480 857> 269 21<235 492 218 495> 335 20<524 886 522 890> 670 20<545 545 566 566 566 965>
VStem: -30 999<0 690>
LayerCount: 2
Fore
SplineSet
566 670 m 1
 524 355 l 1
 890 355 l 1
 886 335 l 1
 522 335 l 1
 480 20 l 1
 861 20 l 1
 857 0 l 1
 456 0 l 1
 492 269 l 1
 218 269 l 1
 -2 0 l 1
 -30 0 l 1
 537 690 l 1
 969 690 l 1
 965 670 l 1
 566 670 l 1
545 670 m 1
 235 290 l 1
 495 290 l 1
 545 670 l 1
EndSplineSet
Position2: "'cpsp' Capital Spacing in Latin lookup 0 subtable" dx=5 dy=0 dh=10 dv=0
EndChar

StartChar: Ccedilla
Encoding: 199 199 16
Width: 695
GlyphClass: 2
Flags: MW
HStem: -210 21<208 245.5 208 246> -69 18 -14 21<307 391 253.5 394.5> -9 16<261 261> 683 21<357 507.5>
VStem: 67 24<190.5 403.5> 306 23<-142 -103> 655 22<474 484 474 546.5>
AnchorPoint: "Anchor-0" 275 0 basechar 0
LayerCount: 2
Fore
SplineSet
447 704 m 0xaf
 598 704 677 608 677 484 c 2
 677 474 l 1
 655 474 l 1
 655 484 l 2
 655 609 576 683 439 683 c 0
 275 683 91 538 91 270 c 0
 91 93 190 7 317 7 c 0
 465 7 559 101 606 217 c 2
 610 227 l 1
 632 227 l 1
 628 217 l 2
 577 90 477 -14 312 -14 c 0
 302 -14 291 -13 281 -12 c 1xaf
 254 -51 l 1
 299 -55 329 -78 329 -121 c 0
 329 -181 279 -210 213 -210 c 0
 195 -210 178 -208 162 -203 c 1
 166 -182 l 1
 184 -188 199 -189 217 -189 c 0
 274 -189 306 -162 306 -122 c 0
 306 -84 279 -66 218 -69 c 1
 261 -9 l 1xdf
 143 12 67 112 67 269 c 0
 67 538 245 704 447 704 c 0xaf
EndSplineSet
Position2: "'cpsp' Capital Spacing in Latin lookup 0 subtable" dx=5 dy=0 dh=10 dv=0
EndChar

StartChar: Egrave
Encoding: 200 200 28
Width: 537
GlyphClass: 2
Flags: MW
HStem: 0 20<54 457> 335 20<113 486 109 490> 670 20<168 168 168 565> 670 160<168 322 296 322 296 565>
VStem: 28 541
AnchorPoint: "Anchor-0" 222 0 basechar 0
LayerCount: 2
Fore
SplineSet
343 736 m 1xd8
 296 830 l 1
 322 830 l 1
 361 736 l 1
 343 736 l 1xd8
168 670 m 1xe8
 113 355 l 1
 490 355 l 1
 486 335 l 1
 109 335 l 1
 54 20 l 1
 461 20 l 1
 457 0 l 1
 28 0 l 1
 150 690 l 1
 569 690 l 1
 565 670 l 1
 168 670 l 1xe8
EndSplineSet
Position2: "'cpsp' Capital Spacing in Latin lookup 0 subtable" dx=5 dy=0 dh=10 dv=0
EndChar

StartChar: Eacute
Encoding: 201 201 23
Width: 537
GlyphClass: 2
Flags: MW
HStem: 0 20<54 457> 335 20<113 486 109 490> 670 20<168 168 168 565> 670 160<409 437 409 565>
VStem: 28 541
AnchorPoint: "Anchor-0" 222 0 basechar 0
LayerCount: 2
Fore
SplineSet
359 736 m 1xd8
 340 736 l 1
 409 830 l 1
 437 830 l 1
 359 736 l 1xd8
168 670 m 1xe8
 113 355 l 1
 490 355 l 1
 486 335 l 1
 109 335 l 1
 54 20 l 1
 461 20 l 1
 457 0 l 1
 28 0 l 1
 150 690 l 1
 569 690 l 1
 565 670 l 1
 168 670 l 1xe8
EndSplineSet
Position2: "'cpsp' Capital Spacing in Latin lookup 0 subtable" dx=5 dy=0 dh=10 dv=0
EndChar

StartChar: Ecircumflex
Encoding: 202 202 25
Width: 537
GlyphClass: 2
Flags: MW
HStem: 0 20<54 457> 335 20<113 486 109 490> 670 20<168 168 168 565> 815 15<369 369>
VStem: 28 541
AnchorPoint: "Anchor-0" 222 0 basechar 0
LayerCount: 2
Fore
SplineSet
303 736 m 1
 277 736 l 1
 358 830 l 1
 383 830 l 1
 432 736 l 1
 408 736 l 1
 369 815 l 1
 303 736 l 1
168 670 m 1
 113 355 l 1
 490 355 l 1
 486 335 l 1
 109 335 l 1
 54 20 l 1
 461 20 l 1
 457 0 l 1
 28 0 l 1
 150 690 l 1
 569 690 l 1
 565 670 l 1
 168 670 l 1
EndSplineSet
Position2: "'cpsp' Capital Spacing in Latin lookup 0 subtable" dx=5 dy=0 dh=10 dv=0
EndChar

StartChar: Edieresis
Encoding: 203 203 26
Width: 537
GlyphClass: 2
Flags: MW
HStem: 0 20<54 457> 335 20<113 486 109 490> 670 20<168 168 168 565> 670 133<323 334 393 404 323 565>
VStem: 28 541 305 40<780.5 785.5> 375 40<780.5 785.5>
AnchorPoint: "Anchor-0" 222 0 basechar 0
LayerCount: 2
Fore
SplineSet
321 763 m 0xd4
 311 763 305 770 305 779 c 0
 305 792 317 803 329 803 c 0
 339 803 345 796 345 787 c 0
 345 774 333 763 321 763 c 0xd4
391 763 m 0xd2
 381 763 375 770 375 779 c 0
 375 792 387 803 399 803 c 0
 409 803 415 796 415 787 c 0
 415 774 403 763 391 763 c 0xd2
168 670 m 1xe8
 113 355 l 1
 490 355 l 1
 486 335 l 1
 109 335 l 1
 54 20 l 1
 461 20 l 1
 457 0 l 1
 28 0 l 1
 150 690 l 1
 569 690 l 1
 565 670 l 1
 168 670 l 1xe8
EndSplineSet
Position2: "'cpsp' Capital Spacing in Latin lookup 0 subtable" dx=5 dy=0 dh=10 dv=0
EndChar

StartChar: Igrave
Encoding: 204 204 44
Width: 152
GlyphClass: 2
Flags: MW
HStem: 0 21G<28 50 28 28> 670 20G<150 172 172 172> 736 94<113 178 113 160>
VStem: 28 150
LayerCount: 2
Fore
SplineSet
178 736 m 1
 160 736 l 1
 113 830 l 1
 139 830 l 1
 178 736 l 1
50 0 m 1
 28 0 l 1
 150 690 l 1
 172 690 l 1
 50 0 l 1
EndSplineSet
Position2: "'cpsp' Capital Spacing in Latin lookup 0 subtable" dx=5 dy=0 dh=10 dv=0
EndChar

StartChar: Iacute
Encoding: 205 205 40
Width: 152
GlyphClass: 2
Flags: MW
HStem: 0 21G<28 50 28 28> 670 20G<150 172 172 172> 736 94<157 254 157 254>
VStem: 28 226
LayerCount: 2
Fore
SplineSet
176 736 m 1
 157 736 l 1
 226 830 l 1
 254 830 l 1
 176 736 l 1
50 0 m 1
 28 0 l 1
 150 690 l 1
 172 690 l 1
 50 0 l 1
EndSplineSet
Position2: "'cpsp' Capital Spacing in Latin lookup 0 subtable" dx=5 dy=0 dh=10 dv=0
EndChar

StartChar: Icircumflex
Encoding: 206 206 41
Width: 152
GlyphClass: 2
Flags: MW
HStem: 0 21G<28 50 28 28> 670 20G<150 172 172 172> 815 15<186 186>
VStem: 28 221
LayerCount: 2
Fore
SplineSet
225 736 m 1
 186 815 l 1
 120 736 l 1
 94 736 l 1
 175 830 l 1
 200 830 l 1
 249 736 l 1
 225 736 l 1
150 690 m 1
 172 690 l 1
 50 0 l 1
 28 0 l 1
 150 690 l 1
EndSplineSet
Position2: "'cpsp' Capital Spacing in Latin lookup 0 subtable" dx=5 dy=0 dh=10 dv=0
EndChar

StartChar: Idieresis
Encoding: 207 207 42
Width: 152
GlyphClass: 2
Flags: MW
HStem: 0 21G<28 50 28 28> 670 20G<150 172 172 172> 763 40<140 144 210 214>
VStem: 122 40<780.5 785.5> 192 40<780.5 785.5>
LayerCount: 2
Fore
SplineSet
146 803 m 0
 156 803 162 796 162 787 c 0
 162 774 150 763 138 763 c 0
 128 763 122 770 122 779 c 0
 122 792 134 803 146 803 c 0
216 803 m 0xe8
 226 803 232 796 232 787 c 0
 232 774 220 763 208 763 c 0
 198 763 192 770 192 779 c 0
 192 792 204 803 216 803 c 0xe8
50 0 m 1
 28 0 l 1
 150 690 l 1
 172 690 l 1
 50 0 l 1
EndSplineSet
Position2: "'cpsp' Capital Spacing in Latin lookup 0 subtable" dx=5 dy=0 dh=10 dv=0
EndChar

StartChar: Eth
Encoding: 208 208 19
Width: 670
GlyphClass: 2
Flags: MW
HStem: 0 21<54 203> 323 21<30 85 26 89 30 107 111 298> 669 21<169 335 169 169>
VStem: 619 23<313.5 489>
LayerCount: 2
Fore
SplineSet
411 688 m 0
 533 678 642 597 642 406 c 0
 642 204 501 19 292 3 c 0
 256 0 237 0 203 0 c 2
 28 0 l 1
 85 323 l 1
 26 323 l 1
 30 344 l 1
 89 344 l 1
 150 690 l 1
 339 690 l 2
 371 690 387 690 411 688 c 0
297 25 m 0
 500 44 619 223 619 404 c 0
 619 574 529 656 407 667 c 0
 385 669 371 669 335 669 c 2
 169 669 l 1
 111 344 l 1
 302 344 l 1
 298 323 l 1
 107 323 l 1
 54 21 l 1
 211 21 l 2
 242 21 263 22 297 25 c 0
EndSplineSet
Position2: "'cpsp' Capital Spacing in Latin lookup 0 subtable" dx=5 dy=0 dh=10 dv=0
EndChar

StartChar: Ntilde
Encoding: 209 209 62
Width: 600
GlyphClass: 2
Flags: MW
HStem: 0 20<479 479 479 498 464 479> 672 18<168 168> 761 21<448.5 458 448.5 465> 785 21<344 353.5>
VStem: 310 20<765 765> 472 20<802 802>
AnchorPoint: "Anchor-0" 263 0 basechar 0
LayerCount: 2
Fore
SplineSet
349 785 m 0
 339 785 332 780 330 765 c 1
 310 765 l 1
 311 791 325 806 349 806 c 0xdc
 365 806 382 802 408 793 c 0
 430 785 444 782 453 782 c 0
 463 782 470 787 472 802 c 1
 492 802 l 1
 491 776 477 761 453 761 c 0xec
 437 761 420 765 394 774 c 0
 372 782 358 785 349 785 c 0
620 690 m 1
 498 0 l 1
 464 0 l 1
 168 672 l 1
 50 0 l 1
 28 0 l 1
 150 690 l 1
 183 690 l 1
 479 20 l 1
 598 690 l 1
 620 690 l 1
EndSplineSet
Position2: "'cpsp' Capital Spacing in Latin lookup 0 subtable" dx=5 dy=0 dh=10 dv=0
EndChar

StartChar: Oacute
Encoding: 211 211 64
Width: 743
GlyphClass: 2
Flags: MW
HStem: -14 21<272 451 272 458> 683 21<331 510> 736 94<443 540 443 540>
VStem: 68 23<199 383 199 385.5> 691 23<307 491>
LayerCount: 2
Fore
SplineSet
462 736 m 1
 443 736 l 1
 512 830 l 1
 540 830 l 1
 462 736 l 1
444 704 m 0
 600 704 714 589 714 403 c 0
 714 206 578 -14 338 -14 c 0
 182 -14 68 101 68 287 c 0
 68 484 204 704 444 704 c 0
341 7 m 0
 561 7 691 211 691 403 c 0
 691 579 579 683 441 683 c 0
 221 683 91 479 91 287 c 0
 91 111 203 7 341 7 c 0
EndSplineSet
Position2: "'cpsp' Capital Spacing in Latin lookup 0 subtable" dx=5 dy=0 dh=10 dv=0
EndChar

StartChar: Otilde
Encoding: 213 213 71
Width: 743
GlyphClass: 2
Flags: MW
HStem: -14 21<272 451 272 458> 683 21<331 510> 761 21<510.5 520 510.5 527> 785 21<406 415.5>
VStem: 68 23<199 383 199 385.5> 372 20<765 765> 534 20<802 802> 691 23<307 491>
LayerCount: 2
Fore
SplineSet
411 785 m 0
 401 785 394 780 392 765 c 1
 372 765 l 1
 373 791 387 806 411 806 c 0xdf
 427 806 444 802 470 793 c 0
 492 785 506 782 515 782 c 0
 525 782 532 787 534 802 c 1
 554 802 l 1
 553 776 539 761 515 761 c 0xef
 499 761 482 765 456 774 c 0
 434 782 420 785 411 785 c 0
444 704 m 0
 600 704 714 589 714 403 c 0
 714 206 578 -14 338 -14 c 0
 182 -14 68 101 68 287 c 0
 68 484 204 704 444 704 c 0
341 7 m 0
 561 7 691 211 691 403 c 0
 691 579 579 683 441 683 c 0
 221 683 91 479 91 287 c 0
 91 111 203 7 341 7 c 0
EndSplineSet
Position2: "'cpsp' Capital Spacing in Latin lookup 0 subtable" dx=5 dy=0 dh=10 dv=0
EndChar

StartChar: multiply
Encoding: 215 215 302
Width: 530
Flags: MW
HStem: 147 333<396 453>
VStem: 80 387<163 464>
LayerCount: 2
Fore
SplineSet
289 313 m 1
 413 162 l 1
 396 147 l 1
 272 298 l 1
 94 147 l 1
 80 163 l 1
 258 314 l 1
 135 464 l 1
 152 479 l 1
 275 329 l 1
 453 480 l 1
 467 464 l 1
 289 313 l 1
EndSplineSet
EndChar

StartChar: Oslash
Encoding: 216 216 70
Width: 735
GlyphClass: 2
Flags: MW
HStem: -14 21<295 447 295 454> 683 21<327 479>
VStem: 64 23<257 383 257 385.5> 687 23<307 433>
LayerCount: 2
Fore
SplineSet
757 645 m 1
 671 572 l 1
 696 525 710 469 710 403 c 0
 710 206 574 -14 334 -14 c 0
 241 -14 163 27 115 99 c 1
 31 28 l 1
 17 45 l 1
 103 118 l 1
 78 165 64 221 64 287 c 0
 64 484 200 704 440 704 c 0
 533 704 611 663 659 591 c 1
 743 662 l 1
 757 645 l 1
87 287 m 0
 87 227 100 176 122 134 c 1
 641 575 l 1
 595 645 521 683 437 683 c 0
 217 683 87 479 87 287 c 0
687 403 m 0
 687 463 674 514 651 556 c 1
 133 115 l 1
 178 45 253 7 337 7 c 0
 557 7 687 211 687 403 c 0
EndSplineSet
Position2: "'cpsp' Capital Spacing in Latin lookup 0 subtable" dx=5 dy=0 dh=10 dv=0
EndChar

StartChar: Ucircumflex
Encoding: 219 219 92
Width: 600
GlyphClass: 2
Flags: MW
HStem: -14 21<210 337.5 210 340.5> 670 20G<165 187 187 187 587 609 609 609> 815 15<412 412>
VStem: 76 22<110 162.5 110 162.5>
LayerCount: 2
Fore
SplineSet
346 736 m 1
 320 736 l 1
 401 830 l 1
 426 830 l 1
 475 736 l 1
 451 736 l 1
 412 815 l 1
 346 736 l 1
609 690 m 1
 529 239 l 2
 525 217 520 193 515 172 c 0
 489 66 414 -14 267 -14 c 0
 143 -14 76 54 76 147 c 0
 76 178 79 204 85 239 c 2
 165 690 l 1
 187 690 l 1
 107 235 l 2
 102 206 98 177 98 148 c 0
 98 72 149 7 271 7 c 0
 404 7 471 82 495 178 c 0
 500 198 503 213 508 240 c 2
 587 690 l 1
 609 690 l 1
EndSplineSet
Position2: "'cpsp' Capital Spacing in Latin lookup 0 subtable" dx=5 dy=0 dh=10 dv=0
EndChar

StartChar: Udieresis
Encoding: 220 220 93
Width: 600
GlyphClass: 2
Flags: MW
HStem: -14 21<210 337.5 210 340.5> 670 20G<165 187 187 187 587 609 609 609> 763 40<366 370 436 440>
VStem: 76 22<110 162.5 110 162.5> 348 40<780.5 785.5> 418 40<780.5 785.5>
LayerCount: 2
Fore
SplineSet
372 803 m 0
 382 803 388 796 388 787 c 0
 388 774 376 763 364 763 c 0
 354 763 348 770 348 779 c 0
 348 792 360 803 372 803 c 0
442 803 m 0xfc
 452 803 458 796 458 787 c 0
 458 774 446 763 434 763 c 0
 424 763 418 770 418 779 c 0
 418 792 430 803 442 803 c 0xfc
609 690 m 1
 529 239 l 2
 525 217 520 193 515 172 c 0
 489 66 414 -14 267 -14 c 0
 143 -14 76 54 76 147 c 0
 76 178 79 204 85 239 c 2
 165 690 l 1
 187 690 l 1
 107 235 l 2
 102 206 98 177 98 148 c 0
 98 72 149 7 271 7 c 0
 404 7 471 82 495 178 c 0
 500 198 503 213 508 240 c 2
 587 690 l 1
 609 690 l 1
EndSplineSet
Position2: "'cpsp' Capital Spacing in Latin lookup 0 subtable" dx=5 dy=0 dh=10 dv=0
EndChar

StartChar: Yacute
Encoding: 221 221 107
Width: 545
GlyphClass: 2
Flags: MW
HStem: 0 21G<221 243 221 221> 670 20G<98 122 122 122 583 612 612 612> 736 94<350 447 350 447>
VStem: 98 514<690 690>
LayerCount: 2
Fore
SplineSet
369 736 m 1
 350 736 l 1
 419 830 l 1
 447 830 l 1
 369 736 l 1
291 270 m 1
 243 0 l 1
 221 0 l 1
 269 271 l 1
 98 690 l 1
 122 690 l 1
 284 295 l 1
 583 690 l 1
 612 690 l 1
 291 270 l 1
EndSplineSet
Position2: "'cpsp' Capital Spacing in Latin lookup 0 subtable" dx=5 dy=0 dh=10 dv=0
EndChar

StartChar: Thorn
Encoding: 222 222 74
Width: 537
GlyphClass: 2
Flags: MW
HStem: 0 21G<28 50 28 28> 210 21<91 218 87 222> 551 21<151 278 148 282> 551 139<150 172 150 278 148 172>
VStem: 496 25<428 467>
LayerCount: 2
Fore
SplineSet
380 567 m 0xe8
 460 556 521 519 521 434 c 0
 521 422 519 410 517 396 c 0
 497 281 413 227 318 215 c 0
 285 211 253 210 218 210 c 2
 87 210 l 1
 50 0 l 1
 28 0 l 1
 150 690 l 1
 172 690 l 1xd8
 151 572 l 1
 282 572 l 2
 317 572 349 571 380 567 c 0xe8
493 396 m 0
 495 408 496 419 496 430 c 0
 496 504 445 537 372 546 c 0
 341 550 314 551 278 551 c 2
 148 551 l 1
 91 231 l 1
 222 231 l 2
 258 231 285 232 318 236 c 0
 404 246 475 292 493 396 c 0
EndSplineSet
Position2: "'cpsp' Capital Spacing in Latin lookup 0 subtable" dx=5 dy=0 dh=10 dv=0
EndChar

StartChar: germandbls
Encoding: 223 223 199
Width: 505
GlyphClass: 2
Flags: MW
HStem: -4 21<252.5 329.5 252.5 337.5> 0 21G<25 47 25 25> 733 21<283 397>
VStem: 327 23<357 398.5 357 402> 444 23<120.5 167.5> 486 23<596.5 653>
LayerCount: 2
Fore
SplineSet
360 754 m 0xb4
 445 754 509 703 509 618 c 0xb4
 509 575 499 533 458 486 c 1
 387 455 350 425 350 372 c 0
 350 342 363 321 394 287 c 0
 442 235 467 197 467 152 c 0
 467 83 410 -4 265 -4 c 0
 232 -4 197 -1 159 8 c 1
 163 29 l 1
 201 20 236 17 269 17 c 0
 390 17 444 91 444 150 c 0xbc
 444 185 428 216 380 269 c 0
 341 312 327 340 327 370 c 0
 327 434 367 467 448 506 c 1
 476 541 486 573 486 617 c 0
 486 689 436 733 358 733 c 0
 208 733 154 605 134 492 c 2
 47 0 l 1
 25 0 l 1x74
 111 490 l 2
 133 614 195 754 360 754 c 0xb4
EndSplineSet
EndChar

StartChar: agrave
Encoding: 224 224 120
Width: 495
GlyphClass: 2
Flags: MW
HStem: -14 21<139 204.5> 0 21G<371 394 371 371> 285.37 19.93 519 21<269.5 353> 580 110<271 321 271 339> 670 20G<271 297 297 297>
VStem: 30 23<78 172 78 190.5> 371 23<0 0> 431 23<404.5 441>
LayerCount: 2
Fore
SplineSet
321 580 m 1xbb80
 271 690 l 1
 297 690 l 1
 339 580 l 1
 321 580 l 1xbb80
312 540 m 0
 408 540 454 487 454 413 c 0
 454 396 452 374 445 336 c 2
 415 170 l 2
 405 110 400 69 394 0 c 1
 371 0 l 1x7780
 387 128 l 1
 356 77 l 1
 307 17 240 -14 169 -14 c 0
 93 -14 30 26 30 111 c 0
 30 270 220 317 417 303 c 1
 422 334 l 2
 428 367 431 389 431 406 c 0
 431 476 398 519 308 519 c 0
 231 519 149 480 119 382 c 1
 97 382 l 1
 119 470 202 540 312 540 c 0
176 7 m 0
 289 7 382 105 400 209 c 2
 413 282 l 1
 190 302 53 232 53 112 c 0
 53 44 102 7 176 7 c 0
EndSplineSet
EndChar

StartChar: atilde
Encoding: 227 227 124
Width: 495
GlyphClass: 2
Flags: MW
HStem: -14 21<139 204.5> 0 21G<371 394 371 371> 285.37 19.93 519 21<269.5 353> 626 21<386.5 396 386.5 403> 650 21<282 291.5>
VStem: 30 23<78 172 78 190.5> 248 20<630 630> 371 23<0 0> 410 20<667 667> 431 23<404.5 441>
LayerCount: 2
Fore
SplineSet
287 650 m 0xb720
 277 650 270 645 268 630 c 1
 248 630 l 1
 249 656 263 671 287 671 c 0xb720
 303 671 320 667 346 658 c 0
 368 650 382 647 391 647 c 0
 401 647 408 652 410 667 c 1
 430 667 l 1
 429 641 415 626 391 626 c 0xbb40
 375 626 358 630 332 639 c 0xb740
 310 647 296 650 287 650 c 0xb720
312 540 m 0
 408 540 454 487 454 413 c 0
 454 396 452 374 445 336 c 2
 415 170 l 2
 405 110 400 69 394 0 c 1
 371 0 l 1x77a0
 387 128 l 1
 356 77 l 1xb7a0
 307 17 240 -14 169 -14 c 0
 93 -14 30 26 30 111 c 0
 30 270 220 317 417 303 c 1
 422 334 l 2
 428 367 431 389 431 406 c 0
 431 476 398 519 308 519 c 0
 231 519 149 480 119 382 c 1
 97 382 l 1
 119 470 202 540 312 540 c 0
176 7 m 0
 289 7 382 105 400 209 c 2
 413 282 l 1
 190 302 53 232 53 112 c 0
 53 44 102 7 176 7 c 0
EndSplineSet
EndChar

StartChar: adieresis
Encoding: 228 228 119
Width: 495
GlyphClass: 2
Flags: MW
HStem: -14 21<139 204.5> 0 21G<371 394 371 371> 285.37 19.93 519 21<269.5 353> 613 40<294 298 374 378>
VStem: 30 23<78 172 78 190.5> 276 40<630.5 635.5> 356 40<630.5 635.5> 371 23<0 0> 431 23<404.5 441>
LayerCount: 2
Fore
SplineSet
292 613 m 0xbf40
 282 613 276 620 276 629 c 0
 276 642 288 653 300 653 c 0
 310 653 316 646 316 637 c 0
 316 624 304 613 292 613 c 0xbf40
372 613 m 0
 362 613 356 620 356 629 c 0
 356 642 368 653 380 653 c 0
 390 653 396 646 396 637 c 0
 396 624 384 613 372 613 c 0
312 540 m 0
 408 540 454 487 454 413 c 0
 454 396 452 374 445 336 c 2
 415 170 l 2
 405 110 400 69 394 0 c 1
 371 0 l 1x7ec0
 387 128 l 1
 356 77 l 1xbec0
 307 17 240 -14 169 -14 c 0
 93 -14 30 26 30 111 c 0
 30 270 220 317 417 303 c 1
 422 334 l 2
 428 367 431 389 431 406 c 0
 431 476 398 519 308 519 c 0
 231 519 149 480 119 382 c 1
 97 382 l 1
 119 470 202 540 312 540 c 0
176 7 m 0
 289 7 382 105 400 209 c 2
 413 282 l 1
 190 302 53 232 53 112 c 0
 53 44 102 7 176 7 c 0
EndSplineSet
EndChar

StartChar: aring
Encoding: 229 229 123
Width: 495
GlyphClass: 2
Flags: MW
HStem: -14 21<139 204.5> 0 21G<371 394 371 371> 285.37 19.93 519 21<269.5 353> 572 21<318 343 318 344> 675 21<329 354>
VStem: 30 23<78 172 78 190.5> 273 23<616 638 616 644> 371 23<0 0> 376 23<630 652> 431 23<404.5 441>
LayerCount: 2
Fore
SplineSet
325 572 m 0xbf60
 295 572 273 591 273 621 c 0
 273 667 309 696 347 696 c 0
 377 696 399 677 399 647 c 0
 399 601 363 572 325 572 c 0xbf60
343 675 m 0
 315 675 296 651 296 625 c 0
 296 607 307 593 329 593 c 0
 357 593 376 617 376 643 c 0
 376 661 365 675 343 675 c 0
312 540 m 0
 408 540 454 487 454 413 c 0
 454 396 452 374 445 336 c 2
 415 170 l 2
 405 110 400 69 394 0 c 1
 371 0 l 1x7fa0
 387 128 l 1
 356 77 l 1xbfa0
 307 17 240 -14 169 -14 c 0
 93 -14 30 26 30 111 c 0
 30 270 220 317 417 303 c 1
 422 334 l 2
 428 367 431 389 431 406 c 0
 431 476 398 519 308 519 c 0
 231 519 149 480 119 382 c 1
 97 382 l 1
 119 470 202 540 312 540 c 0
176 7 m 0
 289 7 382 105 400 209 c 2
 413 282 l 1
 190 302 53 232 53 112 c 0
 53 44 102 7 176 7 c 0
EndSplineSet
EndChar

StartChar: ae
Encoding: 230 230 125
Width: 935
GlyphClass: 2
Flags: MW
HStem: -14 21<143 219.5 574.5 662.5> 258 21<463 871 463 891 460 871> 523 21<274 360 671 782.5>
VStem: 27 25<76 157.5 76 161> 434 20<163 163> 452 24 876.56 24.44
LayerCount: 2
Fore
SplineSet
891 258 m 1xfa
 460 258 l 1
 456 234 454 211 454 191 c 0
 454 59 528 7 621 7 c 0
 704 7 795 54 845 161 c 1
 867 161 l 1
 814 45 715 -14 615 -14 c 0
 484 -14 437 77 434 163 c 1
 400 96 l 1xfa
 336 20 262 -14 177 -14 c 0
 96 -14 27 19 27 98 c 0
 27 224 166 280 407 280 c 2
 441 280 l 1
 450 331 452 356 452 378 c 0
 452 471 409 523 311 523 c 0
 237 523 144 484 114 386 c 1
 92 386 l 1
 114 474 209 544 315 544 c 0
 453 544 481 453 476 383 c 1xf6
 521 487 624 544 718 544 c 0
 849 544 901 449 901 341 c 0
 901 313 896 276 891 258 c 1xfa
712 523 m 0
 604 523 497 444 463 279 c 1
 871 279 l 1
 893 404 853 523 712 523 c 0
184 7 m 0
 305 7 408 97 432 229 c 1
 437 258 l 1
 420 259 403 259 386 259 c 0
 183 259 52 209 52 106 c 0
 52 46 102 7 184 7 c 0
EndSplineSet
EndChar

StartChar: ccedilla
Encoding: 231 231 130
Width: 517
GlyphClass: 2
Flags: MW
HStem: -210 21<154 191.5 154 192> -69 18 -14 20<204 204 171.5 227> 520 20<231.5 366.5>
VStem: 26 22<140.5 289.5 140.5 290.5> 252 23<-142 -103> 473 22<363 410.5>
AnchorPoint: "Anchor-0" 221 0 basechar 0
LayerCount: 2
Fore
SplineSet
318 540 m 0
 432 540 498 468 495 363 c 1
 473 363 l 1
 473 458 420 520 313 520 c 0
 150 520 48 368 48 211 c 0
 48 70 125 6 218 6 c 1
 219 7 l 1
 222 6 l 1
 316 7 395 61 438 157 c 1
 460 157 l 1
 417 49 329 -9 227 -14 c 1
 200 -51 l 1
 245 -55 275 -78 275 -121 c 0
 275 -181 225 -210 159 -210 c 0
 141 -210 124 -208 108 -203 c 1
 112 -182 l 1
 130 -188 145 -189 163 -189 c 0
 220 -189 252 -162 252 -122 c 0
 252 -84 225 -66 164 -69 c 1
 204 -14 l 1
 98 -9 26 71 26 210 c 0
 26 371 128 540 318 540 c 0
EndSplineSet
EndChar

StartChar: edieresis
Encoding: 235 235 140
Width: 523
GlyphClass: 2
Flags: MW
HStem: -14 21<171.5 255.5 171.5 258> 258 21<56 461 56 479 52 461> 519 21<235 351> 613 40<280 284 360 364>
VStem: 24 23<132.5 213 132.5 275> 262 40<630.5 635.5> 342 40<630.5 635.5> 466 23<330.5 394 326 407.5>
AnchorPoint: "Anchor-0" 210 0 basechar 0
LayerCount: 2
Fore
SplineSet
278 613 m 0
 268 613 262 620 262 629 c 0
 262 642 274 653 286 653 c 0
 296 653 302 646 302 637 c 0
 302 624 290 613 278 613 c 0
358 613 m 0
 348 613 342 620 342 629 c 0
 342 642 354 653 366 653 c 0
 376 653 382 646 382 637 c 0
 382 624 370 613 358 613 c 0
479 258 m 1
 52 258 l 1
 49 239 47 221 47 205 c 0
 47 60 129 7 214 7 c 0
 297 7 383 54 433 161 c 1
 455 161 l 1
 398 37 308 -14 208 -14 c 0
 103 -14 24 58 24 204 c 0
 24 346 123 540 311 540 c 0
 441 540 489 448 489 340 c 0
 489 312 484 276 479 258 c 1
308 519 m 0
 162 519 81 390 56 279 c 1
 461 279 l 1
 465 301 466 321 466 340 c 0
 466 475 394 519 308 519 c 0
EndSplineSet
EndChar

StartChar: igrave
Encoding: 236 236 157
Width: 163
GlyphClass: 2
Flags: MW
HStem: 0 21G<24 46 24 24> 506 20G<117 139 139 139> 580 110<82 150 82 132>
VStem: 24 126
LayerCount: 2
Fore
SplineSet
150 580 m 1
 132 580 l 1
 82 690 l 1
 108 690 l 1
 150 580 l 1
46 0 m 1
 24 0 l 1
 117 526 l 1
 139 526 l 1
 46 0 l 1
EndSplineSet
EndChar

StartChar: iacute
Encoding: 237 237 154
Width: 163
GlyphClass: 2
Flags: MW
HStem: 0 21G<24 46 24 24> 506 20G<117 139 139 139> 670 20G<206 234 234 234>
VStem: 24 210
LayerCount: 2
Fore
SplineSet
145 580 m 1
 126 580 l 1
 206 690 l 1
 234 690 l 1
 145 580 l 1
46 0 m 1
 24 0 l 1
 117 526 l 1
 139 526 l 1
 46 0 l 1
EndSplineSet
EndChar

StartChar: icircumflex
Encoding: 238 238 155
Width: 163
GlyphClass: 2
Flags: MW
HStem: 0 21G<24 46 24 24> 506 20G<117 139 139 139> 674 16<157 157>
VStem: 24 192
LayerCount: 2
Fore
SplineSet
193 580 m 1
 157 674 l 1
 86 580 l 1
 62 580 l 1
 147 690 l 1
 171 690 l 1
 216 580 l 1
 193 580 l 1
117 526 m 1
 139 526 l 1
 46 0 l 1
 24 0 l 1
 117 526 l 1
EndSplineSet
EndChar

StartChar: idieresis
Encoding: 239 239 156
Width: 163
GlyphClass: 2
Flags: MW
HStem: 0 21G<24 46 24 24> 506 20G<117 139 139 139> 613 40<105 109 185 189>
VStem: 87 40<630.5 635.5> 167 40<630.5 635.5>
LayerCount: 2
Fore
SplineSet
111 653 m 0
 121 653 127 646 127 637 c 0
 127 624 115 613 103 613 c 0
 93 613 87 620 87 629 c 0
 87 642 99 653 111 653 c 0
191 653 m 0
 201 653 207 646 207 637 c 0
 207 624 195 613 183 613 c 0
 173 613 167 620 167 629 c 0
 167 642 179 653 191 653 c 0
46 0 m 1
 24 0 l 1
 117 526 l 1
 139 526 l 1
 46 0 l 1
EndSplineSet
EndChar

StartChar: eth
Encoding: 240 240 133
Width: 541
GlyphClass: 2
Flags: MW
HStem: -14 21<161.5 299> 523 21<220 337.5 209.5 358.5> 725 20G<334 334>
VStem: 24 23<142 266.5> 468 26<290.5 408.5>
LayerCount: 2
Fore
SplineSet
528 695 m 1
 446 664 l 1
 478 612 494 532 494 400 c 0
 494 173 396 -14 202 -14 c 0
 93 -14 24 83 24 201 c 0
 24 332 106 544 313 544 c 0
 362 544 405 530 439 499 c 1
 471 442 l 1
 466 539 454 608 425 655 c 1
 254 590 l 1
 247 609 l 1
 413 673 l 1
 390 702 359 721 316 731 c 1
 334 745 l 1
 375 733 409 714 435 681 c 1
 520 714 l 1
 528 695 l 1
207 7 m 0
 398 7 468 222 468 359 c 0
 468 458 407 523 310 523 c 0
 130 523 47 336 47 201 c 0
 47 80 116 7 207 7 c 0
EndSplineSet
EndChar

StartChar: ntilde
Encoding: 241 241 176
Width: 531
GlyphClass: 2
Flags: MW
HStem: 0 21G<25 47 25 25 396 418 396 396> 506 20G<117 139 139 139> 519 21<295.5 371> 626 21<377.5 387 377.5 394> 650 21<273 282.5>
VStem: 239 20<630 630> 401 20<667 667> 458 23<379 429.5>
AnchorPoint: "Anchor-0" 216 0 basechar 0
LayerCount: 2
Fore
SplineSet
278 650 m 0xaf
 268 650 261 645 259 630 c 1
 239 630 l 1
 240 656 254 671 278 671 c 0xaf
 294 671 311 667 337 658 c 0
 359 650 373 647 382 647 c 0
 392 647 399 652 401 667 c 1
 421 667 l 1
 420 641 406 626 382 626 c 0xb7
 366 626 349 630 323 639 c 0
 301 647 287 650 278 650 c 0xaf
328 540 m 0
 428 540 481 485 481 396 c 0
 481 362 478 339 470 292 c 2
 418 0 l 1
 396 0 l 1
 446 283 l 2
 454 327 458 361 458 393 c 0
 458 466 418 519 324 519 c 0xaf
 223 519 126 450 101 312 c 1
 47 0 l 1
 25 0 l 1
 117 526 l 1
 139 526 l 1xcf
 118 406 l 1
 150 462 l 1
 199 517 263 540 328 540 c 0
EndSplineSet
EndChar

StartChar: ograve
Encoding: 242 242 181
Width: 551
GlyphClass: 2
Flags: MW
HStem: -14 21<185.5 327.5 185.5 336.5> 519 21<222.5 364.5> 580 110<275 325 275 343>
VStem: 26 23<149 279 147.5 281> 501 23<247 377 245 378.5>
LayerCount: 2
Fore
SplineSet
325 580 m 1
 275 690 l 1
 301 690 l 1
 343 580 l 1
 325 580 l 1
314 540 m 0
 452 540 524 442 524 312 c 0
 524 178 437 -14 236 -14 c 0
 98 -14 26 84 26 214 c 0
 26 348 113 540 314 540 c 0
240 7 m 0
 415 7 501 182 501 312 c 0
 501 445 419 519 310 519 c 0
 135 519 49 344 49 214 c 0
 49 81 131 7 240 7 c 0
EndSplineSet
EndChar

StartChar: oacute
Encoding: 243 243 178
Width: 551
GlyphClass: 2
Flags: MW
HStem: -14 21<185.5 327.5 185.5 336.5> 519 21<222.5 364.5> 670 20G<399 427 427 427>
VStem: 26 23<149 279 147.5 281> 501 23<247 377 245 378.5>
LayerCount: 2
Fore
SplineSet
338 580 m 1
 319 580 l 1
 399 690 l 1
 427 690 l 1
 338 580 l 1
314 540 m 0
 452 540 524 442 524 312 c 0
 524 178 437 -14 236 -14 c 0
 98 -14 26 84 26 214 c 0
 26 348 113 540 314 540 c 0
240 7 m 0
 415 7 501 182 501 312 c 0
 501 445 419 519 310 519 c 0
 135 519 49 344 49 214 c 0
 49 81 131 7 240 7 c 0
EndSplineSet
EndChar

StartChar: otilde
Encoding: 245 245 185
Width: 551
GlyphClass: 2
Flags: MW
HStem: -14 21<185.5 327.5 185.5 336.5> 519 21<222.5 364.5> 626 21<390.5 400 390.5 407> 650 21<286 295.5>
VStem: 26 23<149 279 147.5 281> 252 20<630 630> 414 20<667 667> 501 23<247 377 245 378.5>
LayerCount: 2
Fore
SplineSet
291 650 m 0
 281 650 274 645 272 630 c 1
 252 630 l 1
 253 656 267 671 291 671 c 0xdf
 307 671 324 667 350 658 c 0
 372 650 386 647 395 647 c 0
 405 647 412 652 414 667 c 1
 434 667 l 1
 433 641 419 626 395 626 c 0xef
 379 626 362 630 336 639 c 0
 314 647 300 650 291 650 c 0
314 540 m 0
 452 540 524 442 524 312 c 0
 524 178 437 -14 236 -14 c 0
 98 -14 26 84 26 214 c 0
 26 348 113 540 314 540 c 0
240 7 m 0
 415 7 501 182 501 312 c 0
 501 445 419 519 310 519 c 0
 135 519 49 344 49 214 c 0
 49 81 131 7 240 7 c 0
EndSplineSet
EndChar

StartChar: divide
Encoding: 247 247 291
Width: 530
Flags: MW
HStem: 136 52<243.5 251> 307 21<77 473 73 477> 446 52<299 306.5>
VStem: 221 53<157.5 165> 276 53<469 476.5>
LayerCount: 2
Fore
SplineSet
307 498 m 0
 320 498 329 490 329 478 c 0
 329 460 315 446 298 446 c 0
 284 446 276 455 276 468 c 0
 276 485 291 498 307 498 c 0
473 307 m 1
 73 307 l 1
 77 328 l 1
 477 328 l 1
 473 307 l 1
252 188 m 0xd0
 266 188 274 179 274 166 c 0
 274 149 259 136 243 136 c 0
 230 136 221 144 221 156 c 0
 221 174 235 188 252 188 c 0xd0
EndSplineSet
EndChar

StartChar: oslash
Encoding: 248 248 184
Width: 610
GlyphClass: 2
Flags: MW
HStem: -14 21<223 343.5 223 352.5> -6 21G<-7 -7> 516 20G<601 601> 519 21<238.5 360>
VStem: 42 23<192 279 192 281> 517 23<247 333>
LayerCount: 2
Fore
SplineSet
613 521 m 1xac
 513 436 l 1
 531 401 540 358 540 312 c 0
 540 178 453 -14 252 -14 c 0
 173 -14 116 18 82 69 c 1xac
 -7 -6 l 1
 -19 9 l 1
 71 86 l 1
 52 122 42 166 42 214 c 0
 42 348 129 540 330 540 c 0
 411 540 469 507 503 453 c 1x5c
 601 536 l 1
 613 521 l 1xac
65 214 m 0
 65 170 74 132 90 102 c 1
 485 437 l 1
 451 490 394 519 326 519 c 0x9c
 151 519 65 344 65 214 c 0
517 312 m 0
 517 354 509 390 494 420 c 1
 100 85 l 1
 134 34 190 7 256 7 c 0
 431 7 517 182 517 312 c 0
EndSplineSet
EndChar

StartChar: ugrave
Encoding: 249 249 209
Width: 527
GlyphClass: 2
Flags: MW
HStem: -14 21<156 231.5> 0 21G<388 410 388 388> 506 20G<109 131 131 131 480 502 502 502> 580 110<249 299 249 317> 670 20G<249 275 275 275>
VStem: 46 23<96.5 147>
LayerCount: 2
Fore
SplineSet
299 580 m 1xb4
 249 690 l 1
 275 690 l 1
 317 580 l 1
 299 580 l 1xb4
502 526 m 1
 410 0 l 1
 388 0 l 1x6c
 409 120 l 1
 377 64 l 1
 328 9 264 -14 199 -14 c 0
 99 -14 46 41 46 130 c 0
 46 164 49 187 57 234 c 2
 109 526 l 1
 131 526 l 1
 81 243 l 2
 73 199 69 165 69 133 c 0
 69 60 109 7 203 7 c 0
 304 7 401 76 426 214 c 1
 480 526 l 1
 502 526 l 1
EndSplineSet
EndChar

StartChar: uacute
Encoding: 250 250 206
Width: 527
GlyphClass: 2
Flags: MW
HStem: -14 21<156 231.5> 0 21G<388 410 388 388> 506 20G<109 131 131 131 480 502 502 502> 670 20G<373 401 401 401>
VStem: 46 23<96.5 147>
LayerCount: 2
Fore
SplineSet
312 580 m 1xb8
 293 580 l 1
 373 690 l 1
 401 690 l 1
 312 580 l 1xb8
502 526 m 1
 410 0 l 1
 388 0 l 1x78
 409 120 l 1
 377 64 l 1
 328 9 264 -14 199 -14 c 0
 99 -14 46 41 46 130 c 0
 46 164 49 187 57 234 c 2
 109 526 l 1
 131 526 l 1
 81 243 l 2
 73 199 69 165 69 133 c 0
 69 60 109 7 203 7 c 0
 304 7 401 76 426 214 c 1
 480 526 l 1
 502 526 l 1
EndSplineSet
EndChar

StartChar: udieresis
Encoding: 252 252 208
Width: 527
GlyphClass: 2
Flags: MW
HStem: -14 21<156 231.5> 0 21G<388 410 388 388> 506 20G<109 131 131 131 480 502 502 502> 613 40<272 276 352 356>
VStem: 46 23<96.5 147> 254 40<630.5 635.5> 334 40<630.5 635.5>
LayerCount: 2
Fore
SplineSet
270 613 m 0xbe
 260 613 254 620 254 629 c 0
 254 642 266 653 278 653 c 0
 288 653 294 646 294 637 c 0
 294 624 282 613 270 613 c 0xbe
350 613 m 0
 340 613 334 620 334 629 c 0
 334 642 346 653 358 653 c 0
 368 653 374 646 374 637 c 0
 374 624 362 613 350 613 c 0
502 526 m 1
 410 0 l 1
 388 0 l 1x7e
 409 120 l 1
 377 64 l 1
 328 9 264 -14 199 -14 c 0
 99 -14 46 41 46 130 c 0
 46 164 49 187 57 234 c 2
 109 526 l 1
 131 526 l 1
 81 243 l 2
 73 199 69 165 69 133 c 0
 69 60 109 7 203 7 c 0
 304 7 401 76 426 214 c 1
 480 526 l 1
 502 526 l 1
EndSplineSet
EndChar

StartChar: yacute
Encoding: 253 253 222
Width: 472
GlyphClass: 2
Flags: MW
HStem: -210 20<-15.5 14 -15.5 16.5> -5 21G<171 171> 506 20G<56 80 80 80 476 502 502 502> 670 20G<349 377 377 377>
VStem: -44 546
LayerCount: 2
Fore
SplineSet
288 580 m 1
 269 580 l 1
 349 690 l 1
 377 690 l 1
 288 580 l 1
502 526 m 1
 200 0 l 1
 96 -184 46 -210 -13 -210 c 0
 -23 -210 -34 -209 -44 -206 c 1
 -41 -187 l 1
 -28 -190 -20 -190 -11 -190 c 0
 39 -190 82 -156 156 -30 c 1
 171 -5 l 1
 56 526 l 1
 80 526 l 1
 188 20 l 1
 476 526 l 1
 502 526 l 1
EndSplineSet
EndChar

StartChar: thorn
Encoding: 254 254 188
Width: 548
GlyphClass: 2
Flags: MW
HStem: -14 21<194 323 169 330> 519 21<300 385.5> 715 20G<156 178 178 178>
VStem: 69 13.38 499 23<250 381.5>
LayerCount: 2
Fore
SplineSet
336 540 m 0
 453 540 522 451 522 327 c 0
 522 165 432 -14 228 -14 c 0
 160 -14 120 6 86 54 c 1
 69 120 l 1
 12 -196 l 1
 -10 -196 l 1
 156 735 l 1
 178 735 l 1
 119 408 l 1
 157 466 l 1
 214 522 264 540 336 540 c 0
231 7 m 0
 415 7 499 174 499 326 c 0
 499 437 440 519 331 519 c 0
 227 519 129 460 98 288 c 1
 88 229 l 2
 66 104 107 7 231 7 c 0
EndSplineSet
EndChar

StartChar: ydieresis
Encoding: 255 255 224
Width: 472
GlyphClass: 2
Flags: MW
HStem: -210 20<-15.5 14 -15.5 16.5> -5 21G<171 171> 506 20G<56 80 80 80 476 502 502 502> 613 40<248 252 328 332>
VStem: 230 40<630.5 635.5> 310 40<630.5 635.5>
LayerCount: 2
Fore
SplineSet
246 613 m 0
 236 613 230 620 230 629 c 0
 230 642 242 653 254 653 c 0
 264 653 270 646 270 637 c 0
 270 624 258 613 246 613 c 0
326 613 m 0
 316 613 310 620 310 629 c 0
 310 642 322 653 334 653 c 0
 344 653 350 646 350 637 c 0
 350 624 338 613 326 613 c 0
502 526 m 1
 200 0 l 1
 96 -184 46 -210 -13 -210 c 0
 -23 -210 -34 -209 -44 -206 c 1
 -41 -187 l 1
 -28 -190 -20 -190 -11 -190 c 0
 39 -190 82 -156 156 -30 c 1
 171 -5 l 1
 56 526 l 1
 80 526 l 1
 188 20 l 1
 476 526 l 1
 502 526 l 1
EndSplineSet
EndChar

StartChar: Amacron
Encoding: 256 256 7
Width: 620
GlyphClass: 2
Flags: MW
HStem: 0 21G<-11 16 -11 -11 532 532 532 556> 269 21<179 472 179 476 167 472> 671 19<393 393> 772 21<344 480 340 484>
VStem: -11 567<0 0>
LayerCount: 2
Fore
SplineSet
480 772 m 1
 340 772 l 1
 344 793 l 1
 484 793 l 1
 480 772 l 1
476 269 m 1
 167 269 l 1
 16 0 l 1
 -11 0 l 1
 378 690 l 1
 411 690 l 1
 556 0 l 1
 532 0 l 1
 476 269 l 1
472 290 m 1
 393 671 l 1
 179 290 l 1
 472 290 l 1
EndSplineSet
Position2: "'cpsp' Capital Spacing in Latin lookup 0 subtable" dx=5 dy=0 dh=10 dv=0
EndChar

StartChar: amacron
Encoding: 257 257 121
Width: 495
GlyphClass: 2
Flags: MW
HStem: -14 21<139 204.5> 0 21G<371 394 371 371> 285.37 19.93 519 21<269.5 353> 620 21<268 404 264 408>
VStem: 30 23<78 172 78 190.5> 371 23<0 0> 431 23<404.5 441>
LayerCount: 2
Fore
SplineSet
404 620 m 1xbf
 264 620 l 1
 268 641 l 1
 408 641 l 1
 404 620 l 1xbf
312 540 m 0
 408 540 454 487 454 413 c 0
 454 396 452 374 445 336 c 2
 415 170 l 2
 405 110 400 69 394 0 c 1
 371 0 l 1x7f
 387 128 l 1
 356 77 l 1
 307 17 240 -14 169 -14 c 0
 93 -14 30 26 30 111 c 0
 30 270 220 317 417 303 c 1
 422 334 l 2
 428 367 431 389 431 406 c 0
 431 476 398 519 308 519 c 0
 231 519 149 480 119 382 c 1
 97 382 l 1
 119 470 202 540 312 540 c 0
176 7 m 0
 289 7 382 105 400 209 c 2
 413 282 l 1
 190 302 53 232 53 112 c 0
 53 44 102 7 176 7 c 0
EndSplineSet
EndChar

StartChar: Abreve
Encoding: 258 258 3
Width: 620
GlyphClass: 2
Flags: MW
HStem: 0 21G<-11 16 -11 -11 532 532 532 556> 269 21<179 472 179 476 167 472> 671 19<393 393> 722 21<387 424.5 387 428>
VStem: 328.82 20.18
LayerCount: 2
Fore
SplineSet
400 722 m 0
 352 722 320 754 331 830 c 1
 349 830 l 1
 341 757 370 743 404 743 c 0
 445 743 479 768 494 830 c 1
 512 830 l 1
 496 757 456 722 400 722 c 0
476 269 m 1
 167 269 l 1
 16 0 l 1
 -11 0 l 1
 378 690 l 1
 411 690 l 1
 556 0 l 1
 532 0 l 1
 476 269 l 1
472 290 m 1
 393 671 l 1
 179 290 l 1
 472 290 l 1
EndSplineSet
Position2: "'cpsp' Capital Spacing in Latin lookup 0 subtable" dx=5 dy=0 dh=10 dv=0
EndChar

StartChar: Aogonek
Encoding: 260 260 8
Width: 620
GlyphClass: 2
Flags: MW
HStem: -223 20<430.5 448> 0 21G<-11 16 -11 -11 552 556 552 552> 269 21<179 472 179 476 167 472> 671 19<393 393>
VStem: 380 23<-177 -134>
LayerCount: 2
Fore
SplineSet
556 0 m 1
 552 0 l 1
 454 -49 403 -99 403 -162 c 0
 403 -192 419 -203 442 -203 c 0
 465 -203 486 -194 512 -172 c 1
 508 -195 l 1
 486 -214 462 -223 434 -223 c 0
 406 -223 380 -208 380 -165 c 0
 380 -103 428 -41 530 7 c 1
 476 269 l 1
 167 269 l 1
 16 0 l 1
 -11 0 l 1
 378 690 l 1
 411 690 l 1
 556 0 l 1
472 290 m 1
 393 671 l 1
 179 290 l 1
 472 290 l 1
EndSplineSet
Position2: "'cpsp' Capital Spacing in Latin lookup 0 subtable" dx=5 dy=0 dh=10 dv=0
EndChar

StartChar: aogonek
Encoding: 261 261 122
Width: 495
GlyphClass: 2
Flags: MW
HStem: -223 20<271.5 289> -14 21<139 204.5> 0 21G<393 394 393 393> 285.37 19.93 519 21<269.5 353>
VStem: 30 23<78 172 78 190.5> 221 23<-177 -134> 431 23<404.5 441>
LayerCount: 2
Fore
SplineSet
312 540 m 0xdf
 408 540 454 487 454 413 c 0
 454 396 452 374 445 336 c 2
 415 170 l 2
 405 110 400 69 394 0 c 1
 393 0 l 1xbf
 295 -49 244 -99 244 -162 c 0
 244 -192 260 -203 283 -203 c 0
 306 -203 327 -194 353 -172 c 1
 349 -195 l 1
 327 -214 303 -223 275 -223 c 0
 247 -223 221 -208 221 -165 c 0
 221 -103 269 -41 372 7 c 1
 387 128 l 1
 356 77 l 1
 307 17 240 -14 169 -14 c 0
 93 -14 30 26 30 111 c 0
 30 270 220 317 417 303 c 1
 422 334 l 2
 428 367 431 389 431 406 c 0
 431 476 398 519 308 519 c 0
 231 519 149 480 119 382 c 1
 97 382 l 1
 119 470 202 540 312 540 c 0xdf
176 7 m 0
 289 7 382 105 400 209 c 2
 413 282 l 1
 190 302 53 232 53 112 c 0
 53 44 102 7 176 7 c 0
EndSplineSet
EndChar

StartChar: Cacute
Encoding: 262 262 14
Width: 695
GlyphClass: 2
Flags: MW
HStem: -14 21<253.5 391 253.5 394.5> 683 21<357 507.5> 736 94<435 532 435 532>
VStem: 67 24<181.5 403.5> 655 22<474 484 474 546.5>
AnchorPoint: "Anchor-0" 275 0 basechar 0
LayerCount: 2
Fore
SplineSet
454 736 m 1
 435 736 l 1
 504 830 l 1
 532 830 l 1
 454 736 l 1
447 704 m 0
 598 704 677 608 677 484 c 2
 677 474 l 1
 655 474 l 1
 655 484 l 2
 655 609 576 683 439 683 c 0
 275 683 91 538 91 270 c 0
 91 93 190 7 317 7 c 0
 465 7 559 101 606 217 c 2
 610 227 l 1
 632 227 l 1
 628 217 l 2
 577 90 477 -14 312 -14 c 0
 165 -14 67 91 67 269 c 0
 67 538 245 704 447 704 c 0
EndSplineSet
Position2: "'cpsp' Capital Spacing in Latin lookup 0 subtable" dx=5 dy=0 dh=10 dv=0
EndChar

StartChar: cacute
Encoding: 263 263 128
Width: 517
GlyphClass: 2
Flags: MW
HStem: -14 20<172 266.5 172 268> 520 20<231.5 366.5> 670 20G<389 417 417 417>
VStem: 26 22<140.5 289.5 140.5 290.5> 473 22<363 410.5>
AnchorPoint: "Anchor-0" 221 0 basechar 0
LayerCount: 2
Fore
SplineSet
328 580 m 1
 309 580 l 1
 389 690 l 1
 417 690 l 1
 328 580 l 1
318 540 m 0
 432 540 498 468 495 363 c 1
 473 363 l 1
 473 458 420 520 313 520 c 0
 150 520 48 368 48 211 c 0
 48 70 125 6 219 6 c 0
 314 6 395 60 438 157 c 1
 460 157 l 1
 415 45 322 -14 214 -14 c 0
 103 -14 26 67 26 210 c 0
 26 371 128 540 318 540 c 0
EndSplineSet
EndChar

StartChar: Cdotaccent
Encoding: 266 266 17
Width: 695
GlyphClass: 2
Flags: MW
HStem: -14 21<253.5 391 253.5 394.5> 683 21<357 507.5> 763 40<453 457>
VStem: 67 24<181.5 403.5> 435 40<780.5 785.5> 655 22<474 484 474 546.5>
AnchorPoint: "Anchor-0" 275 0 basechar 0
LayerCount: 2
Fore
SplineSet
459 803 m 0
 469 803 475 796 475 787 c 0
 475 774 463 763 451 763 c 0
 441 763 435 770 435 779 c 0
 435 792 447 803 459 803 c 0
447 704 m 0
 598 704 677 608 677 484 c 2
 677 474 l 1
 655 474 l 1
 655 484 l 2
 655 609 576 683 439 683 c 0
 275 683 91 538 91 270 c 0
 91 93 190 7 317 7 c 0
 465 7 559 101 606 217 c 2
 610 227 l 1
 632 227 l 1
 628 217 l 2
 577 90 477 -14 312 -14 c 0
 165 -14 67 91 67 269 c 0
 67 538 245 704 447 704 c 0
EndSplineSet
Position2: "'cpsp' Capital Spacing in Latin lookup 0 subtable" dx=5 dy=0 dh=10 dv=0
EndChar

StartChar: cdotaccent
Encoding: 267 267 131
Width: 517
GlyphClass: 2
Flags: MW
HStem: -14 20<172 266.5 172 268> 520 20<231.5 366.5> 613 40<327 333>
VStem: 26 22<140.5 289.5 140.5 290.5> 310 40<629 637> 473 22<363 410.5>
AnchorPoint: "Anchor-0" 221 0 basechar 0
LayerCount: 2
Fore
SplineSet
333 653 m 0
 343 653 350 645 350 636 c 0
 350 622 339 613 327 613 c 0
 317 613 310 621 310 630 c 0
 310 644 321 653 333 653 c 0
318 540 m 0
 432 540 498 468 495 363 c 1
 473 363 l 1
 473 458 420 520 313 520 c 0
 150 520 48 368 48 211 c 0
 48 70 125 6 219 6 c 0
 314 6 395 60 438 157 c 1
 460 157 l 1
 415 45 322 -14 214 -14 c 0
 103 -14 26 67 26 210 c 0
 26 371 128 540 318 540 c 0
EndSplineSet
EndChar

StartChar: Ccaron
Encoding: 268 268 15
Width: 695
GlyphClass: 2
Flags: MW
HStem: -14 21<253.5 391 253.5 394.5> 683 21<357 507.5> 736 15<436 450 450 450 450 461>
VStem: 67 24<181.5 403.5> 655 22<474 484 474 546.5>
AnchorPoint: "Anchor-0" 275 0 basechar 0
LayerCount: 2
Fore
SplineSet
436 736 m 1
 387 830 l 1
 411 830 l 1
 450 751 l 1
 516 830 l 1
 542 830 l 1
 461 736 l 1
 436 736 l 1
447 704 m 0
 598 704 677 608 677 484 c 2
 677 474 l 1
 655 474 l 1
 655 484 l 2
 655 609 576 683 439 683 c 0
 275 683 91 538 91 270 c 0
 91 93 190 7 317 7 c 0
 465 7 559 101 606 217 c 2
 610 227 l 1
 632 227 l 1
 628 217 l 2
 577 90 477 -14 312 -14 c 0
 165 -14 67 91 67 269 c 0
 67 538 245 704 447 704 c 0
EndSplineSet
Position2: "'cpsp' Capital Spacing in Latin lookup 0 subtable" dx=5 dy=0 dh=10 dv=0
EndChar

StartChar: Dcaron
Encoding: 270 270 20
Width: 670
GlyphClass: 2
Flags: MW
HStem: 0 21<54 203> 669 21<169 335 169 169> 736 15<393 407 407 407 407 418>
VStem: 619 23<313.5 489>
LayerCount: 2
Fore
SplineSet
393 736 m 1
 344 830 l 1
 368 830 l 1
 407 751 l 1
 473 830 l 1
 499 830 l 1
 418 736 l 1
 393 736 l 1
411 688 m 0
 533 678 642 597 642 406 c 0
 642 204 501 19 292 3 c 0
 256 0 237 0 203 0 c 2
 28 0 l 1
 150 690 l 1
 339 690 l 2
 371 690 387 690 411 688 c 0
297 25 m 0
 500 44 619 223 619 404 c 0
 619 574 529 656 407 667 c 0
 385 669 371 669 335 669 c 2
 169 669 l 1
 54 21 l 1
 211 21 l 2
 242 21 263 22 297 25 c 0
EndSplineSet
Position2: "'cpsp' Capital Spacing in Latin lookup 0 subtable" dx=5 dy=0 dh=10 dv=0
EndChar

StartChar: dcroat
Encoding: 273 273 135
Width: 553
GlyphClass: 2
Flags: MW
HStem: -14 21<161.5 250> 0 21G<407 429 407 407> 519 21<225 348 218.5 373> 613 21<406 515 403 519 541 584 406 537> 613 122<403 559 537 559 537 584 537 559>
VStem: 25 23<144.5 279.5 144.5 283> 464.52 13.48
LayerCount: 2
Fore
SplineSet
584 613 m 1xb6
 537 613 l 1
 429 0 l 1
 407 0 l 1x76
 428 119 l 1
 390 60 l 1
 333 4 289 -14 211 -14 c 0
 94 -14 25 75 25 199 c 0
 25 367 128 540 309 540 c 0
 387 540 427 518 461 463 c 1
 478 404 l 1
 515 613 l 1
 403 613 l 1
 406 634 l 1
 519 634 l 1xb6
 537 735 l 1
 559 735 l 1xae
 541 634 l 1
 587 634 l 1
 584 613 l 1xb6
449 238 m 1
 459 297 l 2
 481 422 440 519 306 519 c 0
 144 519 48 359 48 200 c 0
 48 89 107 7 216 7 c 0xb6
 320 7 418 66 449 238 c 1
EndSplineSet
EndChar

StartChar: Emacron
Encoding: 274 274 29
Width: 537
GlyphClass: 2
Flags: MW
HStem: 0 20<54 457> 335 20<113 486 109 490> 670 20<168 168 168 565> 772 21<292 428 288 432>
VStem: 28 541
AnchorPoint: "Anchor-0" 222 0 basechar 0
LayerCount: 2
Fore
SplineSet
428 772 m 1
 288 772 l 1
 292 793 l 1
 432 793 l 1
 428 772 l 1
168 670 m 1
 113 355 l 1
 490 355 l 1
 486 335 l 1
 109 335 l 1
 54 20 l 1
 461 20 l 1
 457 0 l 1
 28 0 l 1
 150 690 l 1
 569 690 l 1
 565 670 l 1
 168 670 l 1
EndSplineSet
Position2: "'cpsp' Capital Spacing in Latin lookup 0 subtable" dx=5 dy=0 dh=10 dv=0
EndChar

StartChar: emacron
Encoding: 275 275 143
Width: 523
GlyphClass: 2
Flags: MW
HStem: -14 21<171.5 255.5 171.5 258> 258 21<56 461 56 479 52 461> 519 21<235 351> 620 21<254 390 250 394>
VStem: 24 23<132.5 213 132.5 275> 466 23<330.5 394 326 407.5>
AnchorPoint: "Anchor-0" 210 0 basechar 0
LayerCount: 2
Fore
SplineSet
390 620 m 1
 250 620 l 1
 254 641 l 1
 394 641 l 1
 390 620 l 1
479 258 m 1
 52 258 l 1
 49 239 47 221 47 205 c 0
 47 60 129 7 214 7 c 0
 297 7 383 54 433 161 c 1
 455 161 l 1
 398 37 308 -14 208 -14 c 0
 103 -14 24 58 24 204 c 0
 24 346 123 540 311 540 c 0
 441 540 489 448 489 340 c 0
 489 312 484 276 479 258 c 1
308 519 m 0
 162 519 81 390 56 279 c 1
 461 279 l 1
 465 301 466 321 466 340 c 0
 466 475 394 519 308 519 c 0
EndSplineSet
EndChar

StartChar: Edotaccent
Encoding: 278 278 27
Width: 537
GlyphClass: 2
Flags: MW
HStem: 0 20<54 457> 335 20<113 486 109 490> 670 20<168 168 168 565> 763 40<358 362>
VStem: 340 40<780.5 785.5>
AnchorPoint: "Anchor-0" 222 0 basechar 0
LayerCount: 2
Fore
SplineSet
356 763 m 0
 346 763 340 770 340 779 c 0
 340 792 352 803 364 803 c 0
 374 803 380 796 380 787 c 0
 380 774 368 763 356 763 c 0
168 670 m 1
 113 355 l 1
 490 355 l 1
 486 335 l 1
 109 335 l 1
 54 20 l 1
 461 20 l 1
 457 0 l 1
 28 0 l 1
 150 690 l 1
 569 690 l 1
 565 670 l 1
 168 670 l 1
EndSplineSet
Position2: "'cpsp' Capital Spacing in Latin lookup 0 subtable" dx=5 dy=0 dh=10 dv=0
EndChar

StartChar: edotaccent
Encoding: 279 279 141
Width: 523
GlyphClass: 2
Flags: MW
HStem: -14 21<171.5 255.5 171.5 258> 258 21<56 461 56 479 52 461> 519 21<235 351> 613 40<319 325>
VStem: 24 23<132.5 213 132.5 275> 302 40<629 637> 466 23<330.5 394 326 407.5>
AnchorPoint: "Anchor-0" 210 0 basechar 0
LayerCount: 2
Fore
SplineSet
319 613 m 0
 309 613 302 621 302 630 c 0
 302 644 313 653 325 653 c 0
 335 653 342 645 342 636 c 0
 342 622 331 613 319 613 c 0
479 258 m 1
 52 258 l 1
 49 239 47 221 47 205 c 0
 47 60 129 7 214 7 c 0
 297 7 383 54 433 161 c 1
 455 161 l 1
 398 37 308 -14 208 -14 c 0
 103 -14 24 58 24 204 c 0
 24 346 123 540 311 540 c 0
 441 540 489 448 489 340 c 0
 489 312 484 276 479 258 c 1
308 519 m 0
 162 519 81 390 56 279 c 1
 461 279 l 1
 465 301 466 321 466 340 c 0
 466 475 394 519 308 519 c 0
EndSplineSet
EndChar

StartChar: Eogonek
Encoding: 280 280 30
Width: 537
GlyphClass: 2
Flags: MW
HStem: -223 20<335.5 353> 0 20<54 421 457 457> 335 20<113 486 109 490> 670 20<168 168 168 565>
VStem: 285 23<-177 -136>
AnchorPoint: "Anchor-0" 222 0 basechar 0
LayerCount: 2
Fore
SplineSet
168 670 m 1
 113 355 l 1
 490 355 l 1
 486 335 l 1
 109 335 l 1
 54 20 l 1
 461 20 l 1
 457 0 l 1
 359 -49 308 -99 308 -162 c 0
 308 -192 324 -203 347 -203 c 0
 370 -203 391 -194 417 -172 c 1
 413 -195 l 1
 391 -214 367 -223 339 -223 c 0
 311 -223 285 -208 285 -165 c 0
 285 -107 328 -47 421 0 c 1
 28 0 l 1
 150 690 l 1
 569 690 l 1
 565 670 l 1
 168 670 l 1
EndSplineSet
Position2: "'cpsp' Capital Spacing in Latin lookup 0 subtable" dx=5 dy=0 dh=10 dv=0
EndChar

StartChar: eogonek
Encoding: 281 281 144
Width: 523
GlyphClass: 2
Flags: MW
HStem: -223 20<171.5 189> -14 21<171.5 212> 258 21<56 461 56 479 52 461> 519 21<235 351>
VStem: 24 23<132.5 213 132.5 275> 121 23<-177 -138.5> 466 23<330.5 394 326 407.5>
AnchorPoint: "Anchor-0" 210 0 basechar 0
LayerCount: 2
Fore
SplineSet
479 258 m 1
 52 258 l 1
 49 239 47 221 47 205 c 0
 47 60 129 7 214 7 c 0
 297 7 383 54 433 161 c 1
 455 161 l 1
 414 73 357 22 292 -1 c 1
 195 -49 144 -99 144 -162 c 0
 144 -192 160 -203 183 -203 c 0
 206 -203 227 -194 253 -172 c 1
 249 -195 l 1
 227 -214 203 -223 175 -223 c 0
 147 -223 121 -208 121 -165 c 0
 121 -112 157 -58 233 -13 c 1
 225 -14 216 -14 208 -14 c 0
 103 -14 24 58 24 204 c 0
 24 346 123 540 311 540 c 0
 441 540 489 448 489 340 c 0
 489 312 484 276 479 258 c 1
308 519 m 0
 162 519 81 390 56 279 c 1
 461 279 l 1
 465 301 466 321 466 340 c 0
 466 475 394 519 308 519 c 0
EndSplineSet
EndChar

StartChar: Ecaron
Encoding: 282 282 24
Width: 537
GlyphClass: 2
Flags: MW
HStem: 0 20<54 457> 335 20<113 486 109 490> 670 20<168 168 168 565> 670 160<168 316 292 316 421 447 292 565> 736 15<341 355 355 355 355 366>
VStem: 28 541
AnchorPoint: "Anchor-0" 222 0 basechar 0
LayerCount: 2
Fore
SplineSet
341 736 m 1xec
 292 830 l 1
 316 830 l 1xd4
 355 751 l 1xec
 421 830 l 1
 447 830 l 1xd4
 366 736 l 1
 341 736 l 1xec
168 670 m 1xec
 113 355 l 1
 490 355 l 1
 486 335 l 1
 109 335 l 1
 54 20 l 1
 461 20 l 1
 457 0 l 1
 28 0 l 1
 150 690 l 1
 569 690 l 1
 565 670 l 1
 168 670 l 1xec
EndSplineSet
Position2: "'cpsp' Capital Spacing in Latin lookup 0 subtable" dx=5 dy=0 dh=10 dv=0
EndChar

StartChar: Gbreve
Encoding: 286 286 33
Width: 727
GlyphClass: 2
Flags: MW
HStem: -14 21<254.5 358.5> 0 21G<575 597 575 575> 287 20<396 626 393 651> 683 21<367 521.5> 722 21<443 480.5 443 484>
VStem: 66 24<181.5 396.5> 384.82 20.18 661 22<474 484 474 545.5>
AnchorPoint: "Anchor-0" 278 0 basechar 0
LayerCount: 2
Fore
SplineSet
456 722 m 0xbf
 408 722 376 754 387 830 c 1
 405 830 l 1
 397 757 426 743 460 743 c 0
 501 743 535 768 550 830 c 1
 568 830 l 1
 552 757 512 722 456 722 c 0xbf
461 704 m 0xb7
 612 704 683 608 683 484 c 2
 683 474 l 1
 661 474 l 1
 661 484 l 2
 661 607 590 683 453 683 c 0
 281 683 90 537 90 270 c 0
 90 93 190 7 319 7 c 0xb7
 424 7 588 75 626 287 c 1
 393 287 l 1
 396 307 l 1
 651 307 l 1
 597 0 l 1
 575 0 l 1x77
 608 184 l 1
 576 119 l 1
 502 23 403 -14 314 -14 c 0
 164 -14 66 91 66 269 c 0
 66 524 251 704 461 704 c 0xb7
EndSplineSet
Position2: "'cpsp' Capital Spacing in Latin lookup 0 subtable" dx=5 dy=0 dh=10 dv=0
EndChar

StartChar: gbreve
Encoding: 287 287 147
Width: 546
GlyphClass: 2
Flags: MW
HStem: -220 21<135.5 241 135.5 245> -14 21<161.5 250> 510 20G<500 522 522 522> 519 21<225 348 218.5 371> 570 21<313.5 357.5 313.5 360.5> 670 20G<262 280 280 280 425 443 443 443>
VStem: 0 22<-62 -47 -114 -47> 25 23<144.5 279.5 144.5 283> 259.42 20.58 464.54 13.46
LayerCount: 2
Fore
SplineSet
331 570 m 0xeec0
 273 570 251 614 262 690 c 1
 280 690 l 1
 271 617 292 591 335 591 c 0
 380 591 411 628 425 690 c 1
 443 690 l 1
 428 617 390 570 331 570 c 0xeec0
522 530 m 1
 453 140 l 2
 439 57 432 16 425 -18 c 0
 400 -137 317 -220 173 -220 c 0
 76 -220 0 -173 0 -62 c 2
 0 -47 l 1
 22 -47 l 1
 22 -62 l 2xd6c0
 22 -166 92 -199 179 -199 c 0
 303 -199 380 -131 404 -11 c 0
 411 24 416 51 424 100 c 2
 427 117 l 1
 390 60 l 1
 333 4 289 -14 211 -14 c 0
 94 -14 25 75 25 199 c 0
 25 367 128 540 309 540 c 0
 387 540 427 518 461 463 c 1xd5c0
 478 405 l 1
 500 530 l 1
 522 530 l 1
444 215 m 1
 461 309 l 1
 478 428 436 519 306 519 c 0
 144 519 48 359 48 200 c 0xd5c0
 48 89 107 7 216 7 c 0
 315 7 409 61 444 215 c 1
EndSplineSet
EndChar

StartChar: gcommaaccent
Encoding: 291 291 148
Width: 546
GlyphClass: 2
Flags: MW
HStem: -220 21<135.5 241 135.5 245> -14 21<161.5 250> 510 20G<500 522 522 522> 519 21<225 348 218.5 371> 581 108<319 395 319 395> 669 20G<377 395 395 395>
VStem: 0 22<-62 -47 -114 -47> 25 23<144.5 279.5 144.5 283> 464.54 13.46
LayerCount: 2
Fore
SplineSet
346 581 m 1xea80
 319 581 l 1
 319 584 l 1
 377 689 l 1
 395 689 l 1
 346 581 l 1xea80
522 530 m 1
 453 140 l 2
 439 57 432 16 425 -18 c 0
 400 -137 317 -220 173 -220 c 0
 76 -220 0 -173 0 -62 c 2
 0 -47 l 1
 22 -47 l 1
 22 -62 l 2xd680
 22 -166 92 -199 179 -199 c 0
 303 -199 380 -131 404 -11 c 0
 411 24 416 51 424 100 c 2
 427 117 l 1
 390 60 l 1
 333 4 289 -14 211 -14 c 0
 94 -14 25 75 25 199 c 0
 25 367 128 540 309 540 c 0
 387 540 427 518 461 463 c 1xd580
 478 405 l 1
 500 530 l 1
 522 530 l 1
444 215 m 1
 461 309 l 1
 478 428 436 519 306 519 c 0
 144 519 48 359 48 200 c 0xd580
 48 89 107 7 216 7 c 0
 315 7 409 61 444 215 c 1
EndSplineSet
EndChar

StartChar: Hbar
Encoding: 294 294 37
Width: 617
GlyphClass: 2
Flags: MW
HStem: 0 21G<28 50 28 28 494 516 494 494> 328 21<112 552 108 556> 520 21<84 120 80 124 84 142 146 586 612 647> 520 170<80 172 80 172 142 172 150 172 150 586 616 638>
VStem: 28 623<0 541>
LayerCount: 2
Fore
SplineSet
647 520 m 1xe8
 608 520 l 1
 516 0 l 1
 494 0 l 1
 552 328 l 1
 108 328 l 1
 50 0 l 1
 28 0 l 1
 120 520 l 1
 80 520 l 1
 84 541 l 1
 124 541 l 1xe8
 150 690 l 1
 172 690 l 1xd8
 146 541 l 1
 590 541 l 1xe8
 616 690 l 1
 638 690 l 1xd8
 612 541 l 1
 651 541 l 1
 647 520 l 1xe8
586 520 m 1
 142 520 l 1
 112 349 l 1
 556 349 l 1
 586 520 l 1
EndSplineSet
Position2: "'cpsp' Capital Spacing in Latin lookup 0 subtable" dx=5 dy=0 dh=10 dv=0
EndChar

StartChar: hbar
Encoding: 295 295 151
Width: 546
GlyphClass: 2
Flags: MW
HStem: 0 21G<40 62 40 40 411 433 411 411> 519 21<310.5 386> 613 21<97 148 93 151 97 169 173 274> 613 127<93 192 93 192 169 192 170 192 170 274>
VStem: 473 23<379 429.5>
LayerCount: 2
Fore
SplineSet
343 540 m 0xe8
 443 540 496 485 496 396 c 0
 496 362 493 339 485 292 c 2
 433 0 l 1
 411 0 l 1
 461 283 l 2
 469 327 473 361 473 393 c 0
 473 466 433 519 339 519 c 0
 238 519 141 450 116 312 c 1
 62 0 l 1
 40 0 l 1
 148 613 l 1
 93 613 l 1
 97 634 l 1
 151 634 l 1xe8
 170 740 l 1
 192 740 l 1xd8
 173 634 l 1
 278 634 l 1
 274 613 l 1
 169 613 l 1
 133 406 l 1
 165 462 l 1
 214 517 278 540 343 540 c 0xe8
EndSplineSet
EndChar

StartChar: Imacron
Encoding: 298 298 45
Width: 152
GlyphClass: 2
Flags: MW
HStem: 0 21G<28 50 28 28> 670 20G<150 172 172 172> 772 21<109 245 105 249>
VStem: 28 221
LayerCount: 2
Fore
SplineSet
245 772 m 1
 105 772 l 1
 109 793 l 1
 249 793 l 1
 245 772 l 1
50 0 m 1
 28 0 l 1
 150 690 l 1
 172 690 l 1
 50 0 l 1
EndSplineSet
Position2: "'cpsp' Capital Spacing in Latin lookup 0 subtable" dx=5 dy=0 dh=10 dv=0
EndChar

StartChar: imacron
Encoding: 299 299 159
Width: 163
GlyphClass: 2
Flags: MW
HStem: 0 21G<24 46 24 24> 506 20G<117 139 139 139> 620 21<79 215 75 219>
VStem: 24 195
LayerCount: 2
Fore
SplineSet
215 620 m 1
 75 620 l 1
 79 641 l 1
 219 641 l 1
 215 620 l 1
46 0 m 1
 24 0 l 1
 117 526 l 1
 139 526 l 1
 46 0 l 1
EndSplineSet
EndChar

StartChar: Iogonek
Encoding: 302 302 46
Width: 152
GlyphClass: 2
Flags: MW
HStem: -223 20<-71.5 -54> 670 20G<150 172 172 172>
VStem: -122 23<-177 -134>
LayerCount: 2
Fore
SplineSet
172 690 m 1
 50 0 l 1
 -48 -49 -99 -99 -99 -162 c 0
 -99 -192 -83 -203 -60 -203 c 0
 -37 -203 -16 -194 10 -172 c 1
 6 -195 l 1
 -16 -214 -40 -223 -68 -223 c 0
 -96 -223 -122 -208 -122 -165 c 0
 -122 -103 -74 -41 29 8 c 1
 150 690 l 1
 172 690 l 1
EndSplineSet
Position2: "'cpsp' Capital Spacing in Latin lookup 0 subtable" dx=5 dy=0 dh=10 dv=0
EndChar

StartChar: iogonek
Encoding: 303 303 160
Width: 163
GlyphClass: 2
Flags: MW
HStem: -223 20<-75.5 -58> 506 20G<117 139 139 139> 613 40<144 150>
VStem: -126 23<-177 -134> 127 40<629 637>
LayerCount: 2
Fore
SplineSet
150 653 m 0
 160 653 167 645 167 636 c 0
 167 622 156 613 144 613 c 0
 134 613 127 621 127 630 c 0
 127 644 138 653 150 653 c 0
117 526 m 1
 139 526 l 1
 46 0 l 1
 -52 -49 -103 -99 -103 -162 c 0
 -103 -192 -87 -203 -64 -203 c 0
 -41 -203 -20 -194 6 -172 c 1
 2 -195 l 1
 -20 -214 -44 -223 -72 -223 c 0
 -100 -223 -126 -208 -126 -165 c 0
 -126 -103 -78 -41 25 8 c 1
 117 526 l 1
EndSplineSet
EndChar

StartChar: Idotaccent
Encoding: 304 304 43
Width: 152
GlyphClass: 2
Flags: MW
HStem: 0 21G<28 50 28 28> 670 20G<150 172 172 172> 763 40<175 179>
VStem: 157 40<780.5 785.5>
LayerCount: 2
Fore
SplineSet
181 803 m 0
 191 803 197 796 197 787 c 0
 197 774 185 763 173 763 c 0
 163 763 157 770 157 779 c 0
 157 792 169 803 181 803 c 0
50 0 m 1
 28 0 l 1
 150 690 l 1
 172 690 l 1
 50 0 l 1
EndSplineSet
Position2: "'cpsp' Capital Spacing in Latin lookup 0 subtable" dx=5 dy=0 dh=10 dv=0
EndChar

StartChar: dotlessi
Encoding: 305 305 153
Width: 163
GlyphClass: 2
Flags: MW
HStem: 0 21G<24 46 24 24> 506 20G<117 139 139 139>
VStem: 24 115
LayerCount: 2
Fore
SplineSet
46 0 m 1
 24 0 l 1
 117 526 l 1
 139 526 l 1
 46 0 l 1
EndSplineSet
EndChar

StartChar: IJ
Encoding: 306 306 39
Width: 612
GlyphClass: 2
Flags: MW
HStem: -14 21<289.5 383 289.5 394> 0 21G<28 50 28 28> 670 20G<150 172 172 172 612 634 634 634>
VStem: 162.87 21.92
LayerCount: 2
Fore
SplineSet
50 0 m 1x70
 28 0 l 1
 150 690 l 1
 172 690 l 1
 50 0 l 1x70
634 690 m 1
 558 260 l 2
 553 229 548 201 540 169 c 0
 518 77 458 -14 330 -14 c 0
 222 -14 146 53 166 194 c 1
 170 224 l 1
 192 224 l 1
 188 194 l 1
 168 56 243 7 336 7 c 0xb0
 430 7 492 68 519 172 c 0
 525 194 529 221 535 252 c 2
 612 690 l 1
 634 690 l 1
EndSplineSet
Position2: "'cpsp' Capital Spacing in Latin lookup 0 subtable" dx=5 dy=0 dh=10 dv=0
EndChar

StartChar: ij
Encoding: 307 307 158
Width: 314
GlyphClass: 2
Flags: MW
HStem: -210 20.21 0 21G<24 46 24 24> 506 20G<117 139 139 139 289 311 311 311> 613 40<144 150 312 318>
VStem: 127 40<629 637> 295 40<629 637>
LayerCount: 2
Fore
SplineSet
150 653 m 0
 160 653 167 645 167 636 c 0
 167 622 156 613 144 613 c 0
 134 613 127 621 127 630 c 0
 127 644 138 653 150 653 c 0
318 653 m 0
 328 653 335 645 335 636 c 0
 335 622 324 613 312 613 c 0
 302 613 295 621 295 630 c 0
 295 644 306 653 318 653 c 0
46 0 m 1
 24 0 l 1
 117 526 l 1
 139 526 l 1
 46 0 l 1
311 526 m 1
 206 -73 l 2
 202 -93 199 -107 194 -125 c 0
 178 -188 141 -210 99 -210 c 0
 88 -210 77 -209 64 -206 c 1
 68 -187 l 1
 125 -198 158 -181 173 -123 c 0
 177 -109 179 -100 182 -84 c 2
 289 526 l 1
 311 526 l 1
EndSplineSet
EndChar

StartChar: Kcommaaccent
Encoding: 310 310 49
Width: 532
GlyphClass: 2
Flags: MW
HStem: -159 108<158 234 158 234> 0 21G<28 50 28 28 436 467 436 436> 670 20G<150 172 172 172 563 595 595 595>
VStem: 28 567
AnchorPoint: "Anchor-0" 229 0 basechar 0
LayerCount: 2
Fore
SplineSet
172 345 m 1
 467 0 l 1
 436 0 l 1
 153 333 l 1
 102 292 l 1
 50 0 l 1
 28 0 l 1
 150 690 l 1
 172 690 l 1
 106 319 l 1
 563 690 l 1
 595 690 l 1
 172 345 l 1
207 -51 m 1
 234 -51 l 1
 234 -54 l 1
 176 -159 l 1
 158 -159 l 1
 207 -51 l 1
EndSplineSet
Position2: "'cpsp' Capital Spacing in Latin lookup 0 subtable" dx=5 dy=0 dh=10 dv=0
EndChar

StartChar: kcommaaccent
Encoding: 311 311 163
Width: 473
GlyphClass: 2
Flags: MW
HStem: -159 108<112 188 112 188> 0 21G<25 47 25 25 369 398 369 369> 506 20G<439 474 474 474> 715 20G<155 177 177 177>
VStem: 25 449
AnchorPoint: "Anchor-0" 183 0 basechar 0
LayerCount: 2
Fore
SplineSet
158 276 m 1
 398 0 l 1
 369 0 l 1
 140 263 l 1
 86 220 l 1
 47 0 l 1
 25 0 l 1
 155 735 l 1
 177 735 l 1
 91 248 l 1
 439 526 l 1
 474 526 l 1
 158 276 l 1
161 -51 m 1
 188 -51 l 1
 188 -54 l 1
 130 -159 l 1
 112 -159 l 1
 161 -51 l 1
EndSplineSet
EndChar

StartChar: Lacute
Encoding: 313 313 51
Width: 518
GlyphClass: 2
Flags: MW
HStem: 0 20<54 457> 670 20G<150 172 172 172> 736 94<159 256 159 256>
VStem: 28 433<0 20>
AnchorPoint: "Anchor-0" 222 0 basechar 0
LayerCount: 2
Fore
SplineSet
178 736 m 1
 159 736 l 1
 228 830 l 1
 256 830 l 1
 178 736 l 1
461 20 m 1
 457 0 l 1
 28 0 l 1
 150 690 l 1
 172 690 l 1
 54 20 l 1
 461 20 l 1
EndSplineSet
Position2: "'cpsp' Capital Spacing in Latin lookup 0 subtable" dx=5 dy=0 dh=10 dv=0
EndChar

StartChar: Lcommaaccent
Encoding: 315 315 53
Width: 518
GlyphClass: 2
Flags: MW
HStem: -159 108<151 227 151 227> 0 20<54 457> 670 20G<150 172 172 172>
VStem: 28 433<0 20>
AnchorPoint: "Anchor-0" 222 0 basechar 0
LayerCount: 2
Fore
SplineSet
461 20 m 1
 457 0 l 1
 28 0 l 1
 150 690 l 1
 172 690 l 1
 54 20 l 1
 461 20 l 1
200 -51 m 1
 227 -51 l 1
 227 -54 l 1
 169 -159 l 1
 151 -159 l 1
 200 -51 l 1
EndSplineSet
Position2: "'cpsp' Capital Spacing in Latin lookup 0 subtable" dx=5 dy=0 dh=10 dv=0
EndChar

StartChar: lcommaaccent
Encoding: 316 316 167
Width: 175
GlyphClass: 2
Flags: MW
HStem: -159 108<-5 71 -5 71> -5 21 715 20G<151 173 173 173>
VStem: 30 23<28.5 39.5>
AnchorPoint: "Anchor-0" 66 0 basechar 0
LayerCount: 2
Fore
SplineSet
173 735 m 1
 65 120 l 2
 54 60 53 49 53 40 c 0
 53 17 66 11 104 16 c 1
 100 -3 l 1
 90 -5 81 -5 71 -5 c 0
 47 -5 30 4 30 34 c 0
 30 45 32 58 43 120 c 2
 151 735 l 1
 173 735 l 1
71 -54 m 1
 13 -159 l 1
 -5 -159 l 1
 44 -51 l 1
 71 -51 l 1
 71 -54 l 1
EndSplineSet
EndChar

StartChar: Lcaron
Encoding: 317 317 52
Width: 518
GlyphClass: 2
Flags: MW
HStem: 0 20<54 457> 670 20G<150 172 172 172>
VStem: 28 433<0 20>
AnchorPoint: "Anchor-0" 222 0 basechar 0
LayerCount: 2
Fore
SplineSet
461 20 m 1
 457 0 l 1
 28 0 l 1
 150 690 l 1
 172 690 l 1
 54 20 l 1
 461 20 l 1
EndSplineSet
Position2: "'cpsp' Capital Spacing in Latin lookup 0 subtable" dx=5 dy=0 dh=10 dv=0
EndChar

StartChar: Ldot
Encoding: 319 319 54
Width: 518
GlyphClass: 2
Flags: MW
HStem: 0 20<54 457> 380 40<303 309> 670 20G<150 172 172 172>
VStem: 286 40<396 404>
AnchorPoint: "Anchor-0" 222 0 basechar 0
LayerCount: 2
Fore
SplineSet
461 20 m 1
 457 0 l 1
 28 0 l 1
 150 690 l 1
 172 690 l 1
 54 20 l 1
 461 20 l 1
303 380 m 0
 293 380 286 388 286 397 c 0
 286 411 297 420 309 420 c 0
 319 420 326 412 326 403 c 0
 326 389 315 380 303 380 c 0
EndSplineSet
Ligature2: "Ligature Substitution lookup 6 subtable" L periodcentered
Position2: "'cpsp' Capital Spacing in Latin lookup 0 subtable" dx=5 dy=0 dh=10 dv=0
EndChar

StartChar: ldot
Encoding: 320 320 168
Width: 191
GlyphClass: 2
Flags: MW
HStem: -5 21 715 20G<151 173 173 173>
VStem: 30 23<28.5 39.5> 160 40<396 404>
AnchorPoint: "Anchor-0" 66 0 basechar 0
LayerCount: 2
Fore
SplineSet
173 735 m 1
 65 120 l 2
 54 60 53 49 53 40 c 0
 53 17 66 11 104 16 c 1
 100 -3 l 1
 90 -5 81 -5 71 -5 c 0
 47 -5 30 4 30 34 c 0
 30 45 32 58 43 120 c 2
 151 735 l 1
 173 735 l 1
183 420 m 0
 193 420 200 412 200 403 c 0
 200 389 189 380 177 380 c 0
 167 380 160 388 160 397 c 0
 160 411 171 420 183 420 c 0
EndSplineSet
Ligature2: "Ligature Substitution lookup 6 subtable" l periodcentered
EndChar

StartChar: Lslash
Encoding: 321 321 55
Width: 597
GlyphClass: 2
Flags: MW
HStem: 0 20<133 536> 670 20G<229 251 251 251>
VStem: 10 530<20 245>
AnchorPoint: "Anchor-0" 301 0 basechar 0
LayerCount: 2
Fore
SplineSet
540 20 m 1
 536 0 l 1
 107 0 l 1
 165 328 l 1
 10 245 l 1
 15 269 l 1
 169 352 l 1
 229 690 l 1
 251 690 l 1
 194 365 l 1
 368 459 l 1
 364 435 l 1
 189 341 l 1
 133 20 l 1
 540 20 l 1
EndSplineSet
Position2: "'cpsp' Capital Spacing in Latin lookup 0 subtable" dx=5 dy=0 dh=10 dv=0
EndChar

StartChar: lslash
Encoding: 322 322 169
Width: 207
GlyphClass: 2
Flags: MW
HStem: -5 21 715 20G<173 195 195 195>
VStem: 52 23<28.5 39.5>
AnchorPoint: "Anchor-0" 88 0 basechar 0
LayerCount: 2
Fore
SplineSet
127 345 m 1
 187 384 l 1
 183 358 l 1
 122 319 l 1
 87 120 l 2
 76 60 75 49 75 40 c 0
 75 17 88 11 126 16 c 1
 122 -3 l 1
 112 -5 103 -5 93 -5 c 0
 69 -5 52 4 52 34 c 0
 52 45 54 58 65 120 c 2
 97 303 l 1
 29 260 l 1
 34 286 l 1
 102 329 l 1
 173 735 l 1
 195 735 l 1
 127 345 l 1
EndSplineSet
EndChar

StartChar: Nacute
Encoding: 323 323 58
Width: 600
GlyphClass: 2
Flags: MW
HStem: 0 20<479 479 479 498 464 479> 672 18<168 168> 736 94<381 478 381 478>
VStem: 28 592
AnchorPoint: "Anchor-0" 263 0 basechar 0
LayerCount: 2
Fore
SplineSet
400 736 m 1
 381 736 l 1
 450 830 l 1
 478 830 l 1
 400 736 l 1
620 690 m 1
 498 0 l 1
 464 0 l 1
 168 672 l 1
 50 0 l 1
 28 0 l 1
 150 690 l 1
 183 690 l 1
 479 20 l 1
 598 690 l 1
 620 690 l 1
EndSplineSet
Position2: "'cpsp' Capital Spacing in Latin lookup 0 subtable" dx=5 dy=0 dh=10 dv=0
EndChar

StartChar: Ncommaaccent
Encoding: 325 325 60
Width: 600
GlyphClass: 2
Flags: MW
HStem: -159 108<192 268 192 268> 0 20<479 479 479 498 464 479> 672 18<168 168>
VStem: 28 592
AnchorPoint: "Anchor-0" 263 0 basechar 0
LayerCount: 2
Fore
SplineSet
620 690 m 1
 498 0 l 1
 464 0 l 1
 168 672 l 1
 50 0 l 1
 28 0 l 1
 150 690 l 1
 183 690 l 1
 479 20 l 1
 598 690 l 1
 620 690 l 1
241 -51 m 1
 268 -51 l 1
 268 -54 l 1
 210 -159 l 1
 192 -159 l 1
 241 -51 l 1
EndSplineSet
Position2: "'cpsp' Capital Spacing in Latin lookup 0 subtable" dx=5 dy=0 dh=10 dv=0
EndChar

StartChar: ncommaaccent
Encoding: 326 326 174
Width: 531
GlyphClass: 2
Flags: MW
HStem: -159 108<145 221 145 221> 0 21G<25 47 25 25 396 418 396 396> 506 20G<117 139 139 139> 519 21<295.5 371>
VStem: 458 23<379 429.5>
AnchorPoint: "Anchor-0" 216 0 basechar 0
LayerCount: 2
Fore
SplineSet
328 540 m 0xd8
 428 540 481 485 481 396 c 0
 481 362 478 339 470 292 c 2
 418 0 l 1
 396 0 l 1
 446 283 l 2
 454 327 458 361 458 393 c 0
 458 466 418 519 324 519 c 0xd8
 223 519 126 450 101 312 c 1
 47 0 l 1
 25 0 l 1
 117 526 l 1
 139 526 l 1xe8
 118 406 l 1
 150 462 l 1
 199 517 263 540 328 540 c 0xd8
194 -51 m 1
 221 -51 l 1
 221 -54 l 1
 163 -159 l 1
 145 -159 l 1
 194 -51 l 1
EndSplineSet
EndChar

StartChar: Ncaron
Encoding: 327 327 59
Width: 600
GlyphClass: 2
Flags: MW
HStem: 0 20<479 479 479 498 464 479> 672 18<168 168> 736 15<382 396 396 396 396 407>
VStem: 28 592
AnchorPoint: "Anchor-0" 263 0 basechar 0
LayerCount: 2
Fore
SplineSet
382 736 m 1
 333 830 l 1
 357 830 l 1
 396 751 l 1
 462 830 l 1
 488 830 l 1
 407 736 l 1
 382 736 l 1
620 690 m 1
 498 0 l 1
 464 0 l 1
 168 672 l 1
 50 0 l 1
 28 0 l 1
 150 690 l 1
 183 690 l 1
 479 20 l 1
 598 690 l 1
 620 690 l 1
EndSplineSet
Position2: "'cpsp' Capital Spacing in Latin lookup 0 subtable" dx=5 dy=0 dh=10 dv=0
EndChar

StartChar: ncaron
Encoding: 328 328 173
Width: 531
GlyphClass: 2
Flags: MW
HStem: 0 21G<25 47 25 25 396 418 396 396> 506 20G<117 139 139 139> 519 21<295.5 371> 580 16<307 321 321 321 321 331> 670 20G<262 285 285 285 392 416 416 416>
VStem: 458 23<379 429.5>
AnchorPoint: "Anchor-0" 216 0 basechar 0
LayerCount: 2
Fore
SplineSet
307 580 m 1xbc
 262 690 l 1
 285 690 l 1
 321 596 l 1
 392 690 l 1
 416 690 l 1
 331 580 l 1
 307 580 l 1xbc
328 540 m 0
 428 540 481 485 481 396 c 0
 481 362 478 339 470 292 c 2
 418 0 l 1
 396 0 l 1
 446 283 l 2
 454 327 458 361 458 393 c 0
 458 466 418 519 324 519 c 0xbc
 223 519 126 450 101 312 c 1
 47 0 l 1
 25 0 l 1
 117 526 l 1
 139 526 l 1xdc
 118 406 l 1
 150 462 l 1
 199 517 263 540 328 540 c 0
EndSplineSet
EndChar

StartChar: Eng
Encoding: 330 330 61
Width: 600
GlyphClass: 2
Flags: MW
HStem: -223 21<322 363.5> 0 20 670 20<169 169>
VStem: 29 591
LayerCount: 2
Fore
SplineSet
620 690 m 1
 487 -67 l 2
 468 -172 441 -219 322 -223 c 1
 325 -202 l 1
 402 -202 446 -175 462 -83 c 2
 473 -19 l 1
 169 670 l 1
 51 0 l 1
 29 0 l 1
 150 690 l 1
 183 690 l 1
 480 20 l 1
 598 690 l 1
 620 690 l 1
EndSplineSet
Position2: "'cpsp' Capital Spacing in Latin lookup 0 subtable" dx=5 dy=0 dh=10 dv=0
EndChar

StartChar: eng
Encoding: 331 331 175
Width: 531
GlyphClass: 2
Flags: MW
HStem: -174 21<250 291.5> 0 21G<25 47 25 25> 506 20G<117 139 139 139> 519 21<295.5 371>
VStem: 458 23<379 429.5>
LayerCount: 2
Fore
SplineSet
328 540 m 0xd8
 428 540 481 485 481 396 c 0
 481 362 478 339 470 292 c 2
 415 -18 l 2
 412 -36 410 -45 407 -59 c 0
 387 -140 337 -171 250 -174 c 1
 253 -153 l 1
 330 -153 374 -126 390 -34 c 2
 446 283 l 2
 454 327 458 361 458 393 c 0
 458 466 418 519 324 519 c 0xd8
 223 519 126 450 101 312 c 1
 47 0 l 1
 25 0 l 1
 117 526 l 1
 139 526 l 1xe8
 118 406 l 1
 150 462 l 1
 199 517 263 540 328 540 c 0xd8
EndSplineSet
EndChar

StartChar: Omacron
Encoding: 332 332 69
Width: 743
GlyphClass: 2
Flags: MW
HStem: -14 21<272 451 272 458> 683 21<331 510> 772 21<395 531 391 535>
VStem: 68 23<199 383 199 385.5> 691 23<307 491>
LayerCount: 2
Fore
SplineSet
531 772 m 1
 391 772 l 1
 395 793 l 1
 535 793 l 1
 531 772 l 1
444 704 m 0
 600 704 714 589 714 403 c 0
 714 206 578 -14 338 -14 c 0
 182 -14 68 101 68 287 c 0
 68 484 204 704 444 704 c 0
341 7 m 0
 561 7 691 211 691 403 c 0
 691 579 579 683 441 683 c 0
 221 683 91 479 91 287 c 0
 91 111 203 7 341 7 c 0
EndSplineSet
Position2: "'cpsp' Capital Spacing in Latin lookup 0 subtable" dx=5 dy=0 dh=10 dv=0
EndChar

StartChar: Ohungarumlaut
Encoding: 336 336 68
Width: 743
GlyphClass: 2
Flags: MW
HStem: -14 21<272 451 272 458> 683 21<331 510> 736 94<401 498 401 498 488 498 470 507 488 488>
VStem: 68 23<199 383 199 385.5> 691 23<307 491>
LayerCount: 2
Fore
SplineSet
420 736 m 1
 401 736 l 1
 470 830 l 1
 498 830 l 1
 420 736 l 1
488 736 m 1
 557 830 l 1
 585 830 l 1
 507 736 l 1
 488 736 l 1
444 704 m 0
 600 704 714 589 714 403 c 0
 714 206 578 -14 338 -14 c 0
 182 -14 68 101 68 287 c 0
 68 484 204 704 444 704 c 0
341 7 m 0
 561 7 691 211 691 403 c 0
 691 579 579 683 441 683 c 0
 221 683 91 479 91 287 c 0
 91 111 203 7 341 7 c 0
EndSplineSet
Position2: "'cpsp' Capital Spacing in Latin lookup 0 subtable" dx=5 dy=0 dh=10 dv=0
EndChar

StartChar: ohungarumlaut
Encoding: 337 337 182
Width: 551
GlyphClass: 2
Flags: MW
HStem: -14 21<185.5 327.5 185.5 336.5> 519 21<222.5 364.5> 580 110<267 375 267 375 367 375 347 386 367 367>
VStem: 26 23<149 279 147.5 281> 501 23<247 377 245 378.5>
LayerCount: 2
Fore
SplineSet
286 580 m 1
 267 580 l 1
 347 690 l 1
 375 690 l 1
 286 580 l 1
367 580 m 1
 447 690 l 1
 475 690 l 1
 386 580 l 1
 367 580 l 1
314 540 m 0
 452 540 524 442 524 312 c 0
 524 178 437 -14 236 -14 c 0
 98 -14 26 84 26 214 c 0
 26 348 113 540 314 540 c 0
240 7 m 0
 415 7 501 182 501 312 c 0
 501 445 419 519 310 519 c 0
 135 519 49 344 49 214 c 0
 49 81 131 7 240 7 c 0
EndSplineSet
EndChar

StartChar: OE
Encoding: 338 338 72
Width: 1123
GlyphClass: 2
Flags: MW
HStem: -14 21<260 379.5> 0 20<640 1043> 335 20<699 1072 695 1076> 670 20<754 754 754 1151> 683 21<327 507.5 317.5 554.5>
VStem: 68 23<194.5 373 194.5 375.5> 682.76 16.24
LayerCount: 2
Fore
SplineSet
754 670 m 1x76
 699 355 l 1
 1076 355 l 1
 1072 335 l 1
 695 335 l 1
 640 20 l 1
 1047 20 l 1
 1043 0 l 1
 614 0 l 1x76
 649 198 l 1
 605 121 l 1
 527 22 435 -14 324 -14 c 0
 162 -14 68 106 68 283 c 0
 68 468 185 704 450 704 c 0xae
 565 704 634 667 682 566 c 1
 699 483 l 1
 736 690 l 1
 1155 690 l 1
 1151 670 l 1
 754 670 l 1x76
327 7 m 0xae
 491 7 633 112 675 345 c 1
 703 509 662 683 447 683 c 0
 207 683 91 462 91 284 c 0
 91 105 193 7 327 7 c 0xae
EndSplineSet
Position2: "'cpsp' Capital Spacing in Latin lookup 0 subtable" dx=5 dy=0 dh=10 dv=0
EndChar

StartChar: oe
Encoding: 339 339 186
Width: 1000
GlyphClass: 2
Flags: MW
HStem: -14 21<185.5 291.5 643.5 727.5> 258 21<530 937 530 956 526 937> 523 21<231 387 223 403 732.5 821.5>
VStem: 27 23<151.5 286 151.5 286.5> 497 24 508.09 23.91 943 23<329.5 394 326 407.5>
LayerCount: 2
Fore
SplineSet
956 258 m 1xf6
 526 258 l 1
 522 235 521 214 521 195 c 0
 521 60 601 7 686 7 c 0
 769 7 860 54 910 161 c 1
 932 161 l 1
 875 37 780 -14 680 -14 c 0
 589 -14 505 49 497 173 c 1xfa
 448 55 352 -14 231 -14 c 0
 103 -14 27 80 27 219 c 0
 27 354 117 544 329 544 c 0
 445 544 525 474 532 356 c 1
 580 475 679 544 786 544 c 0
 913 544 966 448 966 340 c 0
 966 312 962 286 956 258 c 1xf6
503 264 m 0xf6
 525 391 481 523 325 523 c 0
 137 523 50 352 50 220 c 0
 50 83 136 7 235 7 c 0
 354 7 472 88 503 264 c 0xf6
780 523 m 0
 679 523 563 444 530 279 c 1
 937 279 l 1
 941 301 943 320 943 339 c 0
 943 476 863 523 780 523 c 0
EndSplineSet
EndChar

StartChar: Racute
Encoding: 340 340 77
Width: 551
GlyphClass: 2
Flags: MW
HStem: 0 21G<28 50 28 28 447 471 447 447> 338 21<113 271 110 275> 669 21<168 313 168 168> 736 94<328 425 328 425>
VStem: 432 22 531 25<494.5 577.5>
AnchorPoint: "Anchor-0" 200 0 basechar 0
LayerCount: 2
Fore
SplineSet
347 736 m 1
 328 736 l 1
 397 830 l 1
 425 830 l 1
 347 736 l 1
556 546 m 0
 556 443 486 364 379 347 c 1
 433 330 452 276 454 196 c 0
 456 72 463 32 471 0 c 1
 447 0 l 1
 441 34 435 70 432 199 c 0
 430 270 410 333 334 337 c 0
 312 338 287 338 271 338 c 2
 110 338 l 1
 50 0 l 1
 28 0 l 1
 150 690 l 1
 317 690 l 2
 352 690 384 689 416 685 c 0
 507 674 556 623 556 546 c 0
350 361 m 0
 458 369 531 443 531 542 c 0
 531 613 487 654 408 664 c 0
 376 668 349 669 313 669 c 2
 168 669 l 1
 113 359 l 1
 275 359 l 2
 301 359 317 359 350 361 c 0
EndSplineSet
Position2: "'cpsp' Capital Spacing in Latin lookup 0 subtable" dx=5 dy=0 dh=10 dv=0
EndChar

StartChar: racute
Encoding: 341 341 191
Width: 264
GlyphClass: 2
Flags: MW
HStem: 0 21G<25 47 25 25> 510 20G<118 140 140 140> 519 21<256.5 300> 670 20G<252 280 280 280>
VStem: 25 279
AnchorPoint: "Anchor-0" 36 0 basechar 0
LayerCount: 2
Fore
SplineSet
191 580 m 1xd8
 172 580 l 1
 252 690 l 1
 280 690 l 1
 191 580 l 1xd8
281 540 m 0xb8
 289 540 297 540 304 539 c 1
 300 519 l 1xb8
 233 524 135 498 98 295 c 1
 97 288 l 1
 47 0 l 1
 25 0 l 1
 118 530 l 1
 140 530 l 1xd8
 120 416 l 1
 150 473 l 1
 186 515 232 540 281 540 c 0xb8
EndSplineSet
EndChar

StartChar: rcommaaccent
Encoding: 343 343 193
Width: 264
GlyphClass: 2
Flags: MW
HStem: -159 108<-35 41 -35 41> 0 21G<25 47 25 25> 510 20G<118 140 140 140> 519 21<256.5 300>
VStem: -35 339
AnchorPoint: "Anchor-0" 36 0 basechar 0
LayerCount: 2
Fore
SplineSet
281 540 m 0xd8
 289 540 297 540 304 539 c 1
 300 519 l 1xd8
 233 524 135 498 98 295 c 1
 97 288 l 1
 47 0 l 1
 25 0 l 1
 118 530 l 1
 140 530 l 1xe8
 120 416 l 1
 150 473 l 1
 186 515 232 540 281 540 c 0xd8
14 -51 m 1xe8
 41 -51 l 1
 41 -54 l 1
 -17 -159 l 1
 -35 -159 l 1
 14 -51 l 1xe8
EndSplineSet
EndChar

StartChar: rcaron
Encoding: 345 345 192
Width: 264
GlyphClass: 2
Flags: MW
HStem: 0 21G<25 47 25 25> 510 20G<118 140 140 140> 519 21<256.5 300> 580 16<173 187 187 187 187 197> 670 20G<128 151 151 151 258 282 282 282>
VStem: 25 279
AnchorPoint: "Anchor-0" 36 0 basechar 0
LayerCount: 2
Fore
SplineSet
173 580 m 1xdc
 128 690 l 1
 151 690 l 1
 187 596 l 1
 258 690 l 1
 282 690 l 1
 197 580 l 1
 173 580 l 1xdc
281 540 m 0xbc
 289 540 297 540 304 539 c 1
 300 519 l 1xbc
 233 524 135 498 98 295 c 1
 97 288 l 1
 47 0 l 1
 25 0 l 1
 118 530 l 1
 140 530 l 1xdc
 120 416 l 1
 150 473 l 1
 186 515 232 540 281 540 c 0xbc
EndSplineSet
EndChar

StartChar: Scedilla
Encoding: 350 350 83
Width: 544
GlyphClass: 2
Flags: MW
HStem: -210 21<175 212.5 175 213> -69 18 -14 21<225 225 247 247> 683 21<290.5 389.5>
VStem: 18 22<180 180> 108 25<467 561.5> 273 23<-142 -103> 462 25<125.5 220> 511 22<514 567>
AnchorPoint: "Anchor-0" 242 0 basechar 0
LayerCount: 2
Fore
SplineSet
346 704 m 0
 475 704 538 617 533 514 c 1
 511 514 l 1xbe80
 511 620 438 683 341 683 c 0
 240 683 133 627 133 506 c 0
 133 428 190 397 305 362 c 0
 425 326 487 276 487 179 c 0
 487 69 389 -9 247 -14 c 1
 221 -51 l 1
 266 -55 296 -78 296 -121 c 0
 296 -181 246 -210 180 -210 c 0
 162 -210 145 -208 129 -203 c 1
 133 -182 l 1
 151 -188 166 -189 184 -189 c 0
 241 -189 273 -162 273 -122 c 0
 273 -84 246 -66 185 -69 c 1
 225 -14 l 1
 108 -11 8 51 18 180 c 1
 40 180 l 1
 33 67 117 7 242 7 c 0
 366 7 462 75 462 176 c 0xff80
 462 264 408 306 291 341 c 0
 168 378 108 417 108 501 c 0
 108 622 205 704 346 704 c 0
EndSplineSet
Substitution2: "'locl' Localized Forms in Latin lookup 2 subtable" Scommaaccent
Substitution2: "'locl' Localized Forms in Latin lookup 1 subtable" Scommaaccent
Substitution2: "'aalt' Access All Alternates in Latin lookup 0 subtable" Scommaaccent
Position2: "'cpsp' Capital Spacing in Latin lookup 0 subtable" dx=5 dy=0 dh=10 dv=0
EndChar

StartChar: scedilla
Encoding: 351 351 197
Width: 456
GlyphClass: 2
Flags: MW
HStem: -210 21<120 157.5 120 158> -69 18 -14 21<192 201 192 192> -13 20<171 171> 519 21<207.5 295.5>
VStem: 16 22<150 150> 82 23<359.5 423.5 359.5 431.5> 218 23<-142 -103> 363 23<94 164.5> 403 22<383 383>
AnchorPoint: "Anchor-0" 187 0 basechar 0
LayerCount: 2
Fore
SplineSet
255 519 m 0xaf80
 160 519 105 455 105 392 c 0
 105 327 154 296 227 276 c 0
 331 248 386 212 386 133 c 0
 386 34 299 -14 201 -14 c 2
 192 -14 l 1xaf80
 166 -51 l 1
 211 -55 241 -78 241 -121 c 0
 241 -181 191 -210 125 -210 c 0
 107 -210 90 -208 74 -203 c 1
 78 -182 l 1
 96 -188 111 -189 129 -189 c 0
 186 -189 218 -162 218 -122 c 0
 218 -84 191 -66 130 -69 c 1
 171 -13 l 1xdf80
 83 -4 17 42 16 150 c 1
 38 150 l 1
 42 46 104 7 207 7 c 0
 301 7 363 58 363 130 c 0xaf80
 363 199 320 229 214 257 c 0
 149 274 82 309 82 391 c 0
 82 472 152 540 260 540 c 0
 358 540 419 485 425 383 c 1
 403 383 l 1xafc0
 394 483 336 519 255 519 c 0xaf80
EndSplineSet
Substitution2: "'locl' Localized Forms in Latin lookup 2 subtable" scommaaccent
Substitution2: "'locl' Localized Forms in Latin lookup 1 subtable" scommaaccent
Substitution2: "'aalt' Access All Alternates in Latin lookup 0 subtable" scommaaccent
EndChar

StartChar: scaron
Encoding: 353 353 196
Width: 456
GlyphClass: 2
Flags: MW
HStem: -14 21<155.5 250> 519 21<207.5 295.5> 580 16<268 282 282 282 282 292> 670 20G<223 246 246 246 353 377 377 377>
VStem: 16 22<150 150> 82 23<359.5 423.5 359.5 431.5> 363 23<94 164.5> 403 22<383 383>
AnchorPoint: "Anchor-0" 187 0 basechar 0
LayerCount: 2
Fore
SplineSet
268 580 m 1
 223 690 l 1
 246 690 l 1
 282 596 l 1
 353 690 l 1
 377 690 l 1
 292 580 l 1
 268 580 l 1
255 519 m 0
 160 519 105 455 105 392 c 0
 105 327 154 296 227 276 c 0
 331 248 386 212 386 133 c 0
 386 34 299 -14 201 -14 c 0
 98 -14 17 30 16 150 c 1
 38 150 l 1
 42 46 104 7 207 7 c 0
 301 7 363 58 363 130 c 0xfe
 363 199 320 229 214 257 c 0
 149 274 82 309 82 391 c 0
 82 472 152 540 260 540 c 0
 358 540 419 485 425 383 c 1
 403 383 l 1xff
 394 483 336 519 255 519 c 0
EndSplineSet
EndChar

StartChar: Tcedilla
Encoding: 354 354 88
Width: 580
GlyphClass: 2
Flags: MW
HStem: -210 21<188 225.5 188 226> -69 18 670 20<107 367 103 657 389 389 389 653>
VStem: 286 23<-142 -103>
AnchorPoint: "Anchor-0" 255 0 basechar 0
LayerCount: 2
Fore
SplineSet
270 0 m 1
 234 -51 l 1
 279 -55 309 -78 309 -121 c 0
 309 -181 259 -210 193 -210 c 0
 175 -210 158 -208 142 -203 c 1
 146 -182 l 1
 164 -188 179 -189 197 -189 c 0
 254 -189 286 -162 286 -122 c 0
 286 -84 259 -66 198 -69 c 1
 249 2 l 1
 367 670 l 1
 103 670 l 1
 107 690 l 1
 657 690 l 1
 653 670 l 1
 389 670 l 1
 270 0 l 1
EndSplineSet
Substitution2: "'locl' Localized Forms in Latin lookup 2 subtable" uni021A
Substitution2: "'locl' Localized Forms in Latin lookup 1 subtable" uni021A
Substitution2: "'aalt' Access All Alternates in Latin lookup 0 subtable" uni021A
Position2: "'cpsp' Capital Spacing in Latin lookup 0 subtable" dx=5 dy=0 dh=10 dv=0
EndChar

StartChar: tcedilla
Encoding: 355 355 203
Width: 243
GlyphClass: 2
Flags: MW
HStem: -210 21<33 70.5 33 71> -69 18 -7 18.02 -7 21 -4 15.02 504 18<62 123 59 126 148 248>
VStem: 48 22<36 63.5> 131 23<-142 -103>
AnchorPoint: "Anchor-0" 100 0 basechar 0
LayerCount: 2
Fore
SplineSet
145 504 m 1xa7
 79 128 l 2
 72 91 70 73 70 57 c 0xa7
 70 15 99 5 164 14 c 1x97
 161 -4 l 1
 147 -6 136 -7 116 -7 c 2
 110 -7 l 1xa7
 79 -51 l 1
 124 -55 154 -78 154 -121 c 0
 154 -181 104 -210 38 -210 c 0
 20 -210 3 -208 -13 -203 c 1
 -9 -182 l 1
 9 -188 24 -189 42 -189 c 0
 99 -189 131 -162 131 -122 c 0
 131 -84 104 -66 43 -69 c 1
 90 -4 l 1
 62 2 48 19 48 53 c 0xcf
 48 74 50 94 57 132 c 2
 123 504 l 1
 59 504 l 1
 62 522 l 1
 126 522 l 1
 145 630 l 1
 167 630 l 1
 148 522 l 1
 251 522 l 1
 248 504 l 1
 145 504 l 1xa7
EndSplineSet
Substitution2: "'locl' Localized Forms in Latin lookup 2 subtable" uni021B
Substitution2: "'locl' Localized Forms in Latin lookup 1 subtable" uni021B
Substitution2: "'aalt' Access All Alternates in Latin lookup 0 subtable" uni021B
EndChar

StartChar: Tcaron
Encoding: 356 356 87
Width: 580
GlyphClass: 2
Flags: MW
HStem: 0 21G<249 271 249 249> 670 20<107 367 103 657 389 653 389 389> 670 160<330 354 330 367 459 485 330 653 330 389> 736 15<379 393 393 393 393 404>
VStem: 103 554<670 690>
AnchorPoint: "Anchor-0" 255 0 basechar 0
LayerCount: 2
Fore
SplineSet
379 736 m 1xd8
 330 830 l 1
 354 830 l 1xa8
 393 751 l 1xd8
 459 830 l 1
 485 830 l 1xa8
 404 736 l 1
 379 736 l 1xd8
653 670 m 1xd8
 389 670 l 1
 271 0 l 1
 249 0 l 1
 367 670 l 1
 103 670 l 1
 107 690 l 1
 657 690 l 1
 653 670 l 1xd8
EndSplineSet
Position2: "'cpsp' Capital Spacing in Latin lookup 0 subtable" dx=5 dy=0 dh=10 dv=0
EndChar

StartChar: tcaron
Encoding: 357 357 202
Width: 221
GlyphClass: 2
Flags: MW
HStem: -7 18.02 -7 21 504 18<62 123 59 126 148 248> 582 48<145 218 145 200> 582 108<200 276 200 276> 670 20G<249 276 276 276>
VStem: 48 22<36 63.5>
AnchorPoint: "Anchor-0" 100 0 basechar 0
LayerCount: 2
Fore
SplineSet
276 690 m 1xb6
 276 687 l 1xb6
 218 582 l 1
 200 582 l 1xaa
 249 690 l 1
 276 690 l 1xb6
148 522 m 1
 251 522 l 1
 248 504 l 1
 145 504 l 1
 79 128 l 2
 72 91 70 73 70 57 c 0xb6
 70 15 99 5 164 14 c 1x76
 161 -4 l 1
 147 -6 136 -7 116 -7 c 0
 71 -7 48 10 48 53 c 0
 48 74 50 94 57 132 c 2
 123 504 l 1
 59 504 l 1
 62 522 l 1
 126 522 l 1
 145 630 l 1
 167 630 l 1
 148 522 l 1
EndSplineSet
EndChar

StartChar: Tbar
Encoding: 358 358 86
Width: 580
GlyphClass: 2
Flags: MW
HStem: 0 21G<249 271 249 249> 323 21<178 306 174 310 332 484 178 328> 670 20<107 367 103 657 389 653 389 389>
VStem: 103 554<670 690>
AnchorPoint: "Anchor-0" 255 0 basechar 0
LayerCount: 2
Fore
SplineSet
389 670 m 1
 332 344 l 1
 488 344 l 1
 484 323 l 1
 328 323 l 1
 271 0 l 1
 249 0 l 1
 306 323 l 1
 174 323 l 1
 178 344 l 1
 310 344 l 1
 367 670 l 1
 103 670 l 1
 107 690 l 1
 657 690 l 1
 653 670 l 1
 389 670 l 1
EndSplineSet
Position2: "'cpsp' Capital Spacing in Latin lookup 0 subtable" dx=5 dy=0 dh=10 dv=0
EndChar

StartChar: tbar
Encoding: 359 359 201
Width: 243
GlyphClass: 2
Flags: MW
HStem: -7 18.02 -7 21 330 21<42 92 38 96 118 178 42 114> 504 18<62 123 59 126 148 248>
VStem: 48 22<36 63.5>
AnchorPoint: "Anchor-0" 100 0 basechar 0
LayerCount: 2
Fore
SplineSet
145 504 m 1xb8
 118 351 l 1
 182 351 l 1
 178 330 l 1
 114 330 l 1
 79 128 l 2
 72 91 70 73 70 57 c 0xb8
 70 15 99 5 164 14 c 1x78
 161 -4 l 1
 147 -6 136 -7 116 -7 c 0
 71 -7 48 10 48 53 c 0
 48 74 50 94 57 132 c 2
 92 330 l 1
 38 330 l 1
 42 351 l 1
 96 351 l 1
 123 504 l 1
 59 504 l 1
 62 522 l 1
 126 522 l 1
 145 630 l 1
 167 630 l 1
 148 522 l 1
 251 522 l 1
 248 504 l 1
 145 504 l 1xb8
EndSplineSet
EndChar

StartChar: umacron
Encoding: 363 363 211
Width: 527
GlyphClass: 2
Flags: MW
HStem: -14 21<156 231.5> 0 21G<388 410 388 388> 506 20G<109 131 131 131 480 502 502 502> 620 21<246 382 242 386>
VStem: 46 23<96.5 147>
LayerCount: 2
Fore
SplineSet
382 620 m 1xb8
 242 620 l 1
 246 641 l 1
 386 641 l 1
 382 620 l 1xb8
502 526 m 1
 410 0 l 1
 388 0 l 1x78
 409 120 l 1
 377 64 l 1
 328 9 264 -14 199 -14 c 0
 99 -14 46 41 46 130 c 0
 46 164 49 187 57 234 c 2
 109 526 l 1
 131 526 l 1
 81 243 l 2
 73 199 69 165 69 133 c 0
 69 60 109 7 203 7 c 0
 304 7 401 76 426 214 c 1
 480 526 l 1
 502 526 l 1
EndSplineSet
EndChar

StartChar: Uring
Encoding: 366 366 98
Width: 600
GlyphClass: 2
Flags: MW
HStem: -14 21<210 337.5 210 340.5> 670 20G<165 187 187 187 587 609 609 609> 722 21<385 410 385 410.5> 823 21<396 421>
VStem: 76 22<110 162.5 110 162.5> 339 24<765.5 787 765.5 793.5> 443 24<779 800.5>
LayerCount: 2
Fore
SplineSet
414 844 m 0
 444 844 467 826 467 795 c 0
 467 750 429 722 392 722 c 0
 362 722 339 740 339 771 c 0
 339 816 377 844 414 844 c 0
410 823 m 0
 382 823 363 800 363 774 c 0
 363 757 374 743 396 743 c 0
 424 743 443 766 443 792 c 0
 443 809 432 823 410 823 c 0
609 690 m 1
 529 239 l 2
 525 217 520 193 515 172 c 0
 489 66 414 -14 267 -14 c 0
 143 -14 76 54 76 147 c 0
 76 178 79 204 85 239 c 2
 165 690 l 1
 187 690 l 1
 107 235 l 2
 102 206 98 177 98 148 c 0
 98 72 149 7 271 7 c 0
 404 7 471 82 495 178 c 0
 500 198 503 213 508 240 c 2
 587 690 l 1
 609 690 l 1
EndSplineSet
Position2: "'cpsp' Capital Spacing in Latin lookup 0 subtable" dx=5 dy=0 dh=10 dv=0
EndChar

StartChar: uring
Encoding: 367 367 213
Width: 527
GlyphClass: 2
Flags: MW
HStem: -14 21<156 231.5> 0 21G<388 410 388 388> 506 20G<109 131 131 131 480 502 502 502> 572 21<296 321 296 322> 675 21<307 332>
VStem: 46 23<96.5 147> 251 23<616 638 616 644> 354 23<630 652>
LayerCount: 2
Fore
SplineSet
303 572 m 0xbf
 273 572 251 591 251 621 c 0
 251 667 287 696 325 696 c 0
 355 696 377 677 377 647 c 0
 377 601 341 572 303 572 c 0xbf
321 675 m 0
 293 675 274 651 274 625 c 0
 274 607 285 593 307 593 c 0
 335 593 354 617 354 643 c 0
 354 661 343 675 321 675 c 0
502 526 m 1
 410 0 l 1
 388 0 l 1x7f
 409 120 l 1
 377 64 l 1
 328 9 264 -14 199 -14 c 0
 99 -14 46 41 46 130 c 0
 46 164 49 187 57 234 c 2
 109 526 l 1
 131 526 l 1
 81 243 l 2
 73 199 69 165 69 133 c 0
 69 60 109 7 203 7 c 0
 304 7 401 76 426 214 c 1
 480 526 l 1
 502 526 l 1
EndSplineSet
EndChar

StartChar: Uhungarumlaut
Encoding: 368 368 95
Width: 600
GlyphClass: 2
Flags: MW
HStem: -14 21<210 337.5 210 340.5> 670 20G<165 187 187 187 587 609 609 609> 736 94<341 438 341 438 428 428 428 438 410 447>
VStem: 76 22<110 162.5 110 162.5>
LayerCount: 2
Fore
SplineSet
360 736 m 1
 341 736 l 1
 410 830 l 1
 438 830 l 1
 360 736 l 1
447 736 m 1
 428 736 l 1
 497 830 l 1
 525 830 l 1
 447 736 l 1
609 690 m 1
 529 239 l 2
 525 217 520 193 515 172 c 0
 489 66 414 -14 267 -14 c 0
 143 -14 76 54 76 147 c 0
 76 178 79 204 85 239 c 2
 165 690 l 1
 187 690 l 1
 107 235 l 2
 102 206 98 177 98 148 c 0
 98 72 149 7 271 7 c 0
 404 7 471 82 495 178 c 0
 500 198 503 213 508 240 c 2
 587 690 l 1
 609 690 l 1
EndSplineSet
Position2: "'cpsp' Capital Spacing in Latin lookup 0 subtable" dx=5 dy=0 dh=10 dv=0
EndChar

StartChar: uhungarumlaut
Encoding: 369 369 210
Width: 527
GlyphClass: 2
Flags: MW
HStem: -14 21<156 231.5> 0 21G<388 410 388 388> 506 20G<109 131 131 131 480 502 502 502> 580 110<241 349 241 349 341 349 321 360 341 341>
VStem: 46 23<96.5 147>
LayerCount: 2
Fore
SplineSet
260 580 m 1xb8
 241 580 l 1
 321 690 l 1
 349 690 l 1
 260 580 l 1xb8
341 580 m 1
 421 690 l 1
 449 690 l 1
 360 580 l 1
 341 580 l 1
502 526 m 1
 410 0 l 1
 388 0 l 1x78
 409 120 l 1
 377 64 l 1
 328 9 264 -14 199 -14 c 0
 99 -14 46 41 46 130 c 0
 46 164 49 187 57 234 c 2
 109 526 l 1
 131 526 l 1
 81 243 l 2
 73 199 69 165 69 133 c 0
 69 60 109 7 203 7 c 0
 304 7 401 76 426 214 c 1
 480 526 l 1
 502 526 l 1
EndSplineSet
EndChar

StartChar: Uogonek
Encoding: 370 370 97
Width: 600
GlyphClass: 2
Flags: MW
HStem: -223 20<237.5 255> -14 21<210 272.5> 670 20G<165 187 187 187 587 609 609 609>
VStem: 76 22<110 162.5 110 162.5> 187 23<-177 -138.5>
LayerCount: 2
Fore
SplineSet
609 690 m 1
 529 239 l 2
 525 217 520 193 515 172 c 0
 495 89 444 22 352 -3 c 1
 259 -51 210 -100 210 -162 c 0
 210 -192 226 -203 249 -203 c 0
 272 -203 293 -194 319 -172 c 1
 315 -195 l 1
 293 -214 269 -223 241 -223 c 0
 213 -223 187 -208 187 -165 c 0
 187 -112 223 -58 300 -13 c 1
 289 -14 278 -14 267 -14 c 0
 143 -14 76 54 76 147 c 0
 76 178 79 204 85 239 c 2
 165 690 l 1
 187 690 l 1
 107 235 l 2
 102 206 98 177 98 148 c 0
 98 72 149 7 271 7 c 0
 404 7 471 82 495 178 c 0
 500 198 503 213 508 240 c 2
 587 690 l 1
 609 690 l 1
EndSplineSet
Position2: "'cpsp' Capital Spacing in Latin lookup 0 subtable" dx=5 dy=0 dh=10 dv=0
EndChar

StartChar: uogonek
Encoding: 371 371 212
Width: 527
GlyphClass: 2
Flags: MW
HStem: -223 20<288.5 306> -14 21<156 231.5> 506 20G<109 131 131 131 480 502 502 502>
VStem: 46 23<96.5 147> 238 23<-177 -134>
LayerCount: 2
Fore
SplineSet
502 526 m 1
 410 0 l 1
 312 -49 261 -99 261 -162 c 0
 261 -192 277 -203 300 -203 c 0
 323 -203 344 -194 370 -172 c 1
 366 -195 l 1
 344 -214 320 -223 292 -223 c 0
 264 -223 238 -208 238 -165 c 0
 238 -103 286 -41 389 8 c 1
 409 120 l 1
 377 64 l 1
 328 9 264 -14 199 -14 c 0
 99 -14 46 41 46 130 c 0
 46 164 49 187 57 234 c 2
 109 526 l 1
 131 526 l 1
 81 243 l 2
 73 199 69 165 69 133 c 0
 69 60 109 7 203 7 c 0
 304 7 401 76 426 214 c 1
 480 526 l 1
 502 526 l 1
EndSplineSet
EndChar

StartChar: Wcircumflex
Encoding: 372 372 102
Width: 823
GlyphClass: 2
Flags: MW
HStem: 0 28<171 171 171 180 153 171> 658 22<496 496> 670 20G<101 123 123 123 878 901 901 901> 815 15<528 528>
VStem: 101 800<690 690>
LayerCount: 2
Fore
SplineSet
462 736 m 1xb8
 436 736 l 1
 517 830 l 1
 542 830 l 1
 591 736 l 1
 567 736 l 1
 528 815 l 1
 462 736 l 1xb8
901 690 m 1
 592 0 l 1
 566 0 l 1
 496 658 l 1xd8
 180 0 l 1
 153 0 l 1
 101 690 l 1
 123 690 l 1xb8
 171 28 l 1
 482 680 l 1
 515 680 l 1xd8
 584 30 l 1
 878 690 l 1
 901 690 l 1
EndSplineSet
Position2: "'cpsp' Capital Spacing in Latin lookup 0 subtable" dx=5 dy=0 dh=10 dv=0
EndChar

StartChar: wcircumflex
Encoding: 373 373 217
Width: 717
GlyphClass: 2
Flags: MW
HStem: 0 21<144 144 144 157 126 144> 0 24<477 477 477 487 458 477> 504 20<396 396> 674 16<425 425>
VStem: 56 691<526 526>
LayerCount: 2
Fore
SplineSet
354 580 m 1xb8
 330 580 l 1
 415 690 l 1
 439 690 l 1
 484 580 l 1
 461 580 l 1
 425 674 l 1
 354 580 l 1xb8
747 526 m 1
 487 0 l 1
 458 0 l 1
 396 504 l 1
 157 0 l 1
 126 0 l 1
 56 526 l 1
 78 526 l 1
 144 21 l 1xb8
 382 524 l 1
 414 524 l 1
 477 24 l 1x78
 722 526 l 1
 747 526 l 1
EndSplineSet
EndChar

StartChar: Ycircumflex
Encoding: 374 374 108
Width: 545
GlyphClass: 2
Flags: MW
HStem: 0 21G<221 243 221 221> 670 20G<98 122 122 122 583 612 612 612> 815 15<379 379>
VStem: 98 514<690 690>
LayerCount: 2
Fore
SplineSet
313 736 m 1
 287 736 l 1
 368 830 l 1
 393 830 l 1
 442 736 l 1
 418 736 l 1
 379 815 l 1
 313 736 l 1
291 270 m 1
 243 0 l 1
 221 0 l 1
 269 271 l 1
 98 690 l 1
 122 690 l 1
 284 295 l 1
 583 690 l 1
 612 690 l 1
 291 270 l 1
EndSplineSet
Position2: "'cpsp' Capital Spacing in Latin lookup 0 subtable" dx=5 dy=0 dh=10 dv=0
EndChar

StartChar: Ydieresis
Encoding: 376 376 109
Width: 545
GlyphClass: 2
Flags: MW
HStem: 0 21G<221 243 221 221> 670 20G<98 122 122 122 583 612 612 612> 763 40<333 337 403 407>
VStem: 315 40<780.5 785.5> 385 40<780.5 785.5>
LayerCount: 2
Fore
SplineSet
331 763 m 0
 321 763 315 770 315 779 c 0
 315 792 327 803 339 803 c 0
 349 803 355 796 355 787 c 0
 355 774 343 763 331 763 c 0
401 763 m 0xe8
 391 763 385 770 385 779 c 0
 385 792 397 803 409 803 c 0
 419 803 425 796 425 787 c 0
 425 774 413 763 401 763 c 0xe8
291 270 m 1
 243 0 l 1
 221 0 l 1
 269 271 l 1
 98 690 l 1
 122 690 l 1
 284 295 l 1
 583 690 l 1
 612 690 l 1
 291 270 l 1
EndSplineSet
Position2: "'cpsp' Capital Spacing in Latin lookup 0 subtable" dx=5 dy=0 dh=10 dv=0
EndChar

StartChar: Zacute
Encoding: 377 377 112
Width: 538
GlyphClass: 2
Flags: MW
HStem: 0 21<24 465> 669 21<139 548 135 581> 669 161<414 442 414 548>
VStem: -11 592
LayerCount: 2
Fore
SplineSet
364 736 m 1xb0
 345 736 l 1
 414 830 l 1
 442 830 l 1
 364 736 l 1xb0
577 670 m 1xd0
 24 21 l 1
 469 21 l 1
 465 0 l 1
 -11 0 l 1
 -8 17 l 1
 548 669 l 1
 135 669 l 1
 139 690 l 1
 581 690 l 1
 577 670 l 1xd0
EndSplineSet
Position2: "'cpsp' Capital Spacing in Latin lookup 0 subtable" dx=5 dy=0 dh=10 dv=0
EndChar

StartChar: zacute
Encoding: 378 378 227
Width: 464
GlyphClass: 2
Flags: MW
HStem: 0 19<8 384> 501 21<91 436 88 470> 501 189<354 382 354 436>
VStem: -25 495
LayerCount: 2
Fore
SplineSet
293 580 m 1xd0
 274 580 l 1
 354 690 l 1
 382 690 l 1xb0
 293 580 l 1xd0
467 502 m 1xd0
 8 19 l 1
 387 19 l 1
 384 0 l 1
 -25 0 l 1
 -22 18 l 1
 436 501 l 1
 88 501 l 1
 91 522 l 1
 470 522 l 1
 467 502 l 1xd0
EndSplineSet
EndChar

StartChar: Zdotaccent
Encoding: 379 379 114
Width: 538
GlyphClass: 2
Flags: MW
HStem: 0 21<24 465> 669 21<139 548 135 581> 763 40<363 367>
VStem: 345 40<780.5 785.5>
LayerCount: 2
Fore
SplineSet
361 763 m 0
 351 763 345 770 345 779 c 0
 345 792 357 803 369 803 c 0
 379 803 385 796 385 787 c 0
 385 774 373 763 361 763 c 0
577 670 m 1
 24 21 l 1
 469 21 l 1
 465 0 l 1
 -11 0 l 1
 -8 17 l 1
 548 669 l 1
 135 669 l 1
 139 690 l 1
 581 690 l 1
 577 670 l 1
EndSplineSet
Position2: "'cpsp' Capital Spacing in Latin lookup 0 subtable" dx=5 dy=0 dh=10 dv=0
EndChar

StartChar: zdotaccent
Encoding: 380 380 229
Width: 464
GlyphClass: 2
Flags: MW
HStem: 0 19<8 384> 501 21<91 436 88 470> 613 40<292 298>
VStem: 275 40<629 637>
LayerCount: 2
Fore
SplineSet
292 613 m 0
 282 613 275 621 275 630 c 0
 275 644 286 653 298 653 c 0
 308 653 315 645 315 636 c 0
 315 622 304 613 292 613 c 0
467 502 m 1
 8 19 l 1
 387 19 l 1
 384 0 l 1
 -25 0 l 1
 -22 18 l 1
 436 501 l 1
 88 501 l 1
 91 522 l 1
 470 522 l 1
 467 502 l 1
EndSplineSet
EndChar

StartChar: Zcaron
Encoding: 381 381 113
Width: 538
GlyphClass: 2
Flags: MW
HStem: 0 21<24 465> 669 21<139 548 135 581> 669 161<297 321 426 452 297 548> 736 15<346 360 360 360 360 371>
VStem: -11 592
LayerCount: 2
Fore
SplineSet
346 736 m 1xd8
 297 830 l 1
 321 830 l 1xa8
 360 751 l 1xd8
 426 830 l 1
 452 830 l 1xa8
 371 736 l 1
 346 736 l 1xd8
577 670 m 1xd8
 24 21 l 1
 469 21 l 1
 465 0 l 1
 -11 0 l 1
 -8 17 l 1
 548 669 l 1
 135 669 l 1
 139 690 l 1
 581 690 l 1
 577 670 l 1xd8
EndSplineSet
Position2: "'cpsp' Capital Spacing in Latin lookup 0 subtable" dx=5 dy=0 dh=10 dv=0
EndChar

StartChar: zcaron
Encoding: 382 382 228
Width: 464
GlyphClass: 2
Flags: MW
HStem: 0 19<8 384> 501 21<91 436 88 470> 501 189<230 253 360 384 230 436 88 253> 580 16<275 289 289 289 289 299>
VStem: -25 495
LayerCount: 2
Fore
SplineSet
275 580 m 1xd8
 230 690 l 1
 253 690 l 1xa8
 289 596 l 1xd8
 360 690 l 1
 384 690 l 1xa8
 299 580 l 1
 275 580 l 1xd8
467 502 m 1xd8
 8 19 l 1
 387 19 l 1
 384 0 l 1
 -25 0 l 1
 -22 18 l 1
 436 501 l 1
 88 501 l 1
 91 522 l 1
 470 522 l 1
 467 502 l 1xd8
EndSplineSet
EndChar

StartChar: uni021A
Encoding: 538 538 89
Width: 580
GlyphClass: 2
Flags: MW
HStem: -159 108<184 260 184 260> 0 21G<249 271 249 249> 670 20<107 367 103 657 389 653 389 389>
VStem: 103 554<670 690>
AnchorPoint: "Anchor-0" 255 0 basechar 0
LayerCount: 2
Fore
SplineSet
653 670 m 1
 389 670 l 1
 271 0 l 1
 249 0 l 1
 367 670 l 1
 103 670 l 1
 107 690 l 1
 657 690 l 1
 653 670 l 1
233 -51 m 1
 260 -51 l 1
 260 -54 l 1
 202 -159 l 1
 184 -159 l 1
 233 -51 l 1
EndSplineSet
Position2: "'cpsp' Capital Spacing in Latin lookup 0 subtable" dx=5 dy=0 dh=10 dv=0
EndChar

StartChar: uni021B
Encoding: 539 539 204
Width: 243
GlyphClass: 2
Flags: MW
HStem: -159 108<29 105 29 105> -7 18.02 -7 21 504 18<62 123 59 126 148 248>
VStem: 48 22<36 63.5>
AnchorPoint: "Anchor-0" 100 0 basechar 0
LayerCount: 2
Fore
SplineSet
145 504 m 1x58
 79 128 l 2
 72 91 70 73 70 57 c 0xd8
 70 15 99 5 164 14 c 1x38
 161 -4 l 1
 147 -6 136 -7 116 -7 c 0
 71 -7 48 10 48 53 c 0
 48 74 50 94 57 132 c 2
 123 504 l 1
 59 504 l 1
 62 522 l 1
 126 522 l 1
 145 630 l 1
 167 630 l 1
 148 522 l 1
 251 522 l 1
 248 504 l 1
 145 504 l 1x58
78 -51 m 1
 105 -51 l 1
 105 -54 l 1
 47 -159 l 1
 29 -159 l 1
 78 -51 l 1
EndSplineSet
EndChar

StartChar: circumflex
Encoding: 710 710 330
Width: 300
Flags: MW
HStem: 674 16<159 159>
VStem: 64 154<580 580>
LayerCount: 2
Fore
SplineSet
195 580 m 1
 159 674 l 1
 88 580 l 1
 64 580 l 1
 149 690 l 1
 173 690 l 1
 218 580 l 1
 195 580 l 1
EndSplineSet
EndChar

StartChar: caron
Encoding: 711 711 328
Width: 300
Flags: MW
HStem: 580 16<143 143 143 153 129 143> 670 20G<84 107 107 107 214 238 238 238>
VStem: 84 154<690 690>
LayerCount: 2
Fore
SplineSet
238 690 m 1
 153 580 l 1
 129 580 l 1
 84 690 l 1
 107 690 l 1
 143 596 l 1
 214 690 l 1
 238 690 l 1
EndSplineSet
EndChar

StartChar: breve
Encoding: 728 728 327
Width: 300
Flags: MW
HStem: 570 21<121.5 165.5 121.5 168.5> 670 20G<70 88 88 88 233 251 251 251>
VStem: 67.42 20.58
LayerCount: 2
Fore
SplineSet
233 690 m 1
 251 690 l 1
 236 617 198 570 139 570 c 0
 81 570 59 614 70 690 c 1
 88 690 l 1
 79 617 100 591 143 591 c 0
 188 591 219 628 233 690 c 1
EndSplineSet
EndChar

StartChar: dotaccent
Encoding: 729 729 332
Width: 300
Flags: MW
HStem: 613 40<147 153>
VStem: 130 40<629 637>
LayerCount: 2
Fore
SplineSet
153 653 m 0
 163 653 170 645 170 636 c 0
 170 622 159 613 147 613 c 0
 137 613 130 621 130 630 c 0
 130 644 141 653 153 653 c 0
EndSplineSet
EndChar

StartChar: ring
Encoding: 730 730 337
Width: 300
Flags: MW
HStem: 572 21<132 157 132 158> 675 21<143 168>
VStem: 87 23<616 638 616 644> 190 23<630 652>
LayerCount: 2
Fore
SplineSet
161 696 m 0
 191 696 213 677 213 647 c 0
 213 601 177 572 139 572 c 0
 109 572 87 591 87 621 c 0
 87 667 123 696 161 696 c 0
157 675 m 0
 129 675 110 651 110 625 c 0
 110 607 121 593 143 593 c 0
 171 593 190 617 190 643 c 0
 190 661 179 675 157 675 c 0
EndSplineSet
EndChar

StartChar: ogonek
Encoding: 731 731 336
Width: 300
Flags: MW
HStem: -223 20<58.5 76> 0 21G<180 180>
VStem: 8 23<-177 -133>
LayerCount: 2
Fore
SplineSet
171 13 m 1
 180 0 l 1
 82 -49 31 -99 31 -162 c 0
 31 -192 47 -203 70 -203 c 0
 93 -203 114 -194 140 -172 c 1
 136 -195 l 1
 114 -214 90 -223 62 -223 c 0
 34 -223 8 -208 8 -165 c 0
 8 -101 60 -36 171 13 c 1
EndSplineSet
EndChar

StartChar: tilde
Encoding: 732 732 338
Width: 300
Flags: MW
HStem: 626 21<197.5 207 197.5 214> 650 21<93 102.5>
VStem: 59 20<630 630> 221 20<667 667>
LayerCount: 2
Fore
SplineSet
98 671 m 0
 114 671 131 667 157 658 c 0
 179 650 193 647 202 647 c 0
 212 647 219 652 221 667 c 1
 241 667 l 1
 240 641 226 626 202 626 c 0xb0
 186 626 169 630 143 639 c 0
 121 647 107 650 98 650 c 0
 88 650 81 645 79 630 c 1
 59 630 l 1
 60 656 74 671 98 671 c 0
EndSplineSet
EndChar

StartChar: hungarumlaut
Encoding: 733 733 334
Width: 300
Flags: MW
HStem: 580 110<76 184 76 184 176 176 176 184 156 195>
VStem: 76 208<580 690>
LayerCount: 2
Fore
SplineSet
95 580 m 1
 76 580 l 1
 156 690 l 1
 184 690 l 1
 95 580 l 1
195 580 m 1
 176 580 l 1
 256 690 l 1
 284 690 l 1
 195 580 l 1
EndSplineSet
EndChar

StartChar: uni0326
Encoding: 806 806 339
Width: 0
GlyphClass: 4
Flags: MW
HStem: -159 108<98 174 98 174>
VStem: 98 76
AnchorPoint: "Anchor-0" 169 0 mark 0
LayerCount: 2
Fore
SplineSet
174 -54 m 1
 116 -159 l 1
 98 -159 l 1
 147 -51 l 1
 174 -51 l 1
 174 -54 l 1
EndSplineSet
EndChar

StartChar: wgrave
Encoding: 7809 7809 219
Width: 717
GlyphClass: 2
Flags: MW
HStem: 0 21<144 144 144 157 126 144> 0 24<477 477 477 487 458 477> 504 20<396 396> 580 110<350 400 350 418> 670 20G<350 376 376 376>
VStem: 56 691<526 526>
LayerCount: 2
Fore
SplineSet
400 580 m 1x74
 350 690 l 1
 376 690 l 1
 418 580 l 1
 400 580 l 1x74
747 526 m 1
 487 0 l 1
 458 0 l 1
 396 504 l 1
 157 0 l 1
 126 0 l 1
 56 526 l 1
 78 526 l 1
 144 21 l 1xac
 382 524 l 1
 414 524 l 1
 477 24 l 1
 722 526 l 1
 747 526 l 1
EndSplineSet
EndChar

StartChar: Wacute
Encoding: 7810 7810 101
Width: 823
GlyphClass: 2
Flags: MW
HStem: 0 28<171 171 171 180 153 171> 658 22<496 496> 670 20G<101 123 123 123 878 901 901 901> 736 94<499 596 499 596>
VStem: 101 800<690 690>
LayerCount: 2
Fore
SplineSet
518 736 m 1xb8
 499 736 l 1
 568 830 l 1
 596 830 l 1
 518 736 l 1xb8
901 690 m 1
 592 0 l 1
 566 0 l 1
 496 658 l 1xd8
 180 0 l 1
 153 0 l 1
 101 690 l 1
 123 690 l 1xb8
 171 28 l 1
 482 680 l 1
 515 680 l 1xd8
 584 30 l 1
 878 690 l 1
 901 690 l 1
EndSplineSet
Position2: "'cpsp' Capital Spacing in Latin lookup 0 subtable" dx=5 dy=0 dh=10 dv=0
EndChar

StartChar: wacute
Encoding: 7811 7811 216
Width: 717
GlyphClass: 2
Flags: MW
HStem: 0 21<144 144 144 157 126 144> 0 24<477 477 477 487 458 477> 504 20<396 396> 670 20G<474 502 502 502>
VStem: 56 691<526 526>
LayerCount: 2
Fore
SplineSet
413 580 m 1xb8
 394 580 l 1
 474 690 l 1
 502 690 l 1
 413 580 l 1xb8
747 526 m 1
 487 0 l 1
 458 0 l 1
 396 504 l 1
 157 0 l 1
 126 0 l 1
 56 526 l 1
 78 526 l 1
 144 21 l 1xb8
 382 524 l 1
 414 524 l 1
 477 24 l 1x78
 722 526 l 1
 747 526 l 1
EndSplineSet
EndChar

StartChar: Wdieresis
Encoding: 7812 7812 103
Width: 823
GlyphClass: 2
Flags: MW
HStem: 0 28<171 171 171 180 153 171> 658 22<496 496> 670 20G<101 123 123 123 878 901 901 901> 763 40<482 486 552 556>
VStem: 101 800<690 690> 464 40<780.5 785.5> 534 40<780.5 785.5>
LayerCount: 2
Fore
SplineSet
480 763 m 0xb4
 470 763 464 770 464 779 c 0
 464 792 476 803 488 803 c 0
 498 803 504 796 504 787 c 0
 504 774 492 763 480 763 c 0xb4
550 763 m 0xb2
 540 763 534 770 534 779 c 0
 534 792 546 803 558 803 c 0
 568 803 574 796 574 787 c 0
 574 774 562 763 550 763 c 0xb2
901 690 m 1
 592 0 l 1
 566 0 l 1
 496 658 l 1xd8
 180 0 l 1
 153 0 l 1
 101 690 l 1
 123 690 l 1xb8
 171 28 l 1
 482 680 l 1
 515 680 l 1xd8
 584 30 l 1
 878 690 l 1
 901 690 l 1
EndSplineSet
Position2: "'cpsp' Capital Spacing in Latin lookup 0 subtable" dx=5 dy=0 dh=10 dv=0
EndChar

StartChar: wdieresis
Encoding: 7813 7813 218
Width: 717
GlyphClass: 2
Flags: MW
HStem: 0 21<144 144 144 157 126 144> 0 24<477 477 477 487 458 477> 504 20<396 396> 613 40<373 377 453 457>
VStem: 56 691<526 526> 355 40<630.5 635.5> 435 40<630.5 635.5>
LayerCount: 2
Fore
SplineSet
371 613 m 0x76
 361 613 355 620 355 629 c 0
 355 642 367 653 379 653 c 0
 389 653 395 646 395 637 c 0
 395 624 383 613 371 613 c 0x76
451 613 m 0
 441 613 435 620 435 629 c 0
 435 642 447 653 459 653 c 0
 469 653 475 646 475 637 c 0
 475 624 463 613 451 613 c 0
747 526 m 1
 487 0 l 1
 458 0 l 1
 396 504 l 1
 157 0 l 1
 126 0 l 1
 56 526 l 1
 78 526 l 1
 144 21 l 1xb8
 382 524 l 1
 414 524 l 1
 477 24 l 1
 722 526 l 1
 747 526 l 1
EndSplineSet
EndChar

StartChar: Ygrave
Encoding: 7922 7922 110
Width: 545
GlyphClass: 2
Flags: MW
HStem: 0 21G<221 243 221 221> 670 20G<98 122 122 122 583 612 612 612> 736 94<306 353 306 371>
VStem: 98 514<690 690>
LayerCount: 2
Fore
SplineSet
353 736 m 1
 306 830 l 1
 332 830 l 1
 371 736 l 1
 353 736 l 1
291 270 m 1
 243 0 l 1
 221 0 l 1
 269 271 l 1
 98 690 l 1
 122 690 l 1
 284 295 l 1
 583 690 l 1
 612 690 l 1
 291 270 l 1
EndSplineSet
Position2: "'cpsp' Capital Spacing in Latin lookup 0 subtable" dx=5 dy=0 dh=10 dv=0
EndChar

StartChar: ygrave
Encoding: 7923 7923 225
Width: 472
GlyphClass: 2
Flags: MW
HStem: -210 20<-15.5 14 -15.5 16.5> -5 21G<171 171> 506 20G<56 80 80 80 476 502 502 502> 580 110<225 275 225 293>
VStem: -44 546
LayerCount: 2
Fore
SplineSet
275 580 m 1
 225 690 l 1
 251 690 l 1
 293 580 l 1
 275 580 l 1
502 526 m 1
 200 0 l 1
 96 -184 46 -210 -13 -210 c 0
 -23 -210 -34 -209 -44 -206 c 1
 -41 -187 l 1
 -28 -190 -20 -190 -11 -190 c 0
 39 -190 82 -156 156 -30 c 1
 171 -5 l 1
 56 526 l 1
 80 526 l 1
 188 20 l 1
 476 526 l 1
 502 526 l 1
EndSplineSet
EndChar

StartChar: endash
Encoding: 8211 8211 270
Width: 500
Flags: MW
HStem: 280 21<72 428 68 432>
VStem: 68 364<280 301>
LayerCount: 2
Fore
SplineSet
428 280 m 1
 68 280 l 1
 72 301 l 1
 432 301 l 1
 428 280 l 1
EndSplineSet
EndChar

StartChar: emdash
Encoding: 8212 8212 269
Width: 1000
Flags: MW
HStem: 280 21<72 928 68 932>
VStem: 68 864<280 301>
LayerCount: 2
Fore
SplineSet
928 280 m 1
 68 280 l 1
 72 301 l 1
 932 301 l 1
 928 280 l 1
EndSplineSet
EndChar

StartChar: quoteleft
Encoding: 8216 8216 279
Width: 179
Flags: MW
HStem: 715 20G<196 216 216 216>
VStem: 103 113
LayerCount: 2
Fore
SplineSet
103 496 m 1
 196 735 l 1
 216 735 l 1
 126 491 l 1
 103 491 l 1
 103 496 l 1
EndSplineSet
EndChar

StartChar: quoteright
Encoding: 8217 8217 280
Width: 179
Flags: MW
HStem: 715 20G<156 179 179 179>
VStem: 66 113
LayerCount: 2
Fore
SplineSet
179 730 m 1
 86 491 l 1
 66 491 l 1
 156 735 l 1
 179 735 l 1
 179 730 l 1
EndSplineSet
EndChar

StartChar: quotesinglbase
Encoding: 8218 8218 281
Width: 127
Flags: MW
HStem: -116 140<-95 1 -95 1>
VStem: -95 96
LayerCount: 2
Fore
SplineSet
1 19 m 1
 -74 -116 l 1
 -95 -116 l 1
 -24 24 l 1
 1 24 l 1
 1 19 l 1
EndSplineSet
EndChar

StartChar: quotedblleft
Encoding: 8220 8220 277
Width: 269
Flags: MW
HStem: 715 20G<196 216 216 216 286 306 306 306>
VStem: 103 203
LayerCount: 2
Fore
SplineSet
103 496 m 1
 196 735 l 1
 216 735 l 1
 126 491 l 1
 103 491 l 1
 103 496 l 1
193 496 m 1
 286 735 l 1
 306 735 l 1
 216 491 l 1
 193 491 l 1
 193 496 l 1
EndSplineSet
EndChar

StartChar: quotedblright
Encoding: 8221 8221 278
Width: 269
Flags: MW
HStem: 715 20G<156 179 179 179 246 269 269 269>
VStem: 66 203
LayerCount: 2
Fore
SplineSet
179 730 m 1
 86 491 l 1
 66 491 l 1
 156 735 l 1
 179 735 l 1
 179 730 l 1
269 730 m 1
 176 491 l 1
 156 491 l 1
 246 735 l 1
 269 735 l 1
 269 730 l 1
EndSplineSet
EndChar

StartChar: quotedblbase
Encoding: 8222 8222 276
Width: 217
Flags: MW
HStem: -116 140<-95 1 -95 1 -5 -5 -5 1 -24 16>
VStem: -95 186<-116 19>
LayerCount: 2
Fore
SplineSet
1 19 m 1
 -74 -116 l 1
 -95 -116 l 1
 -24 24 l 1
 1 24 l 1
 1 19 l 1
91 19 m 1
 16 -116 l 1
 -5 -116 l 1
 66 24 l 1
 91 24 l 1
 91 19 l 1
EndSplineSet
EndChar

StartChar: dagger
Encoding: 8224 8224 319
Width: 600
Flags: MW
HStem: 403.5 22 670 20G<337 363 363 363>
VStem: 100 402<403 426>
LayerCount: 2
Fore
SplineSet
498 403 m 1
 311 404 l 1
 213 -160 l 1
 189 -160 l 1
 287 404 l 1
 100 403 l 1
 104 426 l 1
 291 425 l 1
 337 690 l 1
 363 690 l 1
 315 425 l 1
 502 426 l 1
 498 403 l 1
EndSplineSet
EndChar

StartChar: daggerdbl
Encoding: 8225 8225 320
Width: 600
Flags: MW
HStem: 102.5 22 403.5 22 670 20G<337 363 363 363>
VStem: 47 455<102 426>
LayerCount: 2
Fore
SplineSet
312 404 m 1
 262 124 l 1
 449 125 l 1
 445 102 l 1
 259 103 l 1
 213 -160 l 1
 189 -160 l 1
 235 103 l 1
 47 102 l 1
 51 125 l 1
 238 124 l 1
 288 404 l 1
 100 403 l 1
 104 426 l 1
 291 425 l 1
 337 690 l 1
 363 690 l 1
 315 425 l 1
 502 426 l 1
 498 403 l 1
 312 404 l 1
EndSplineSet
EndChar

StartChar: bullet
Encoding: 8226 8226 246
Width: 174
Flags: MW
HStem: 260 90<80.5 93.5>
VStem: 41 92<299 311>
LayerCount: 2
Fore
SplineSet
95 350 m 0
 118 350 133 335 133 314 c 0
 133 284 108 260 79 260 c 0
 56 260 41 275 41 296 c 0
 41 326 66 350 95 350 c 0
EndSplineSet
EndChar

StartChar: ellipsis
Encoding: 8230 8230 249
Width: 327
Flags: MW
HStem: -14 40<-6.5 0.5 93.5 100.5 193.5 200.5>
VStem: -23 40<2 10> 77 40<2 10> 177 40<2 10>
LayerCount: 2
Fore
SplineSet
-1 26 m 0
 10 26 17 18 17 9 c 0
 17 -5 6 -14 -5 -14 c 0
 -16 -14 -23 -6 -23 3 c 0
 -23 17 -12 26 -1 26 c 0
99 26 m 0
 110 26 117 18 117 9 c 0
 117 -5 106 -14 95 -14 c 0
 84 -14 77 -6 77 3 c 0
 77 17 88 26 99 26 c 0
199 26 m 0
 210 26 217 18 217 9 c 0
 217 -5 206 -14 195 -14 c 0
 184 -14 177 -6 177 3 c 0
 177 17 188 26 199 26 c 0
EndSplineSet
EndChar

StartChar: perthousand
Encoding: 8240 8240 306
Width: 999
Flags: MW
HStem: -14 21<432 504.5 432 508.5 732 804.5> 0 21G<64 92 64 64> 283 21<454.5 527 754.5 827> 386 21<200 272.5 200 276.5> 670 20G<631 659 659 659> 683 21<222.5 295>
VStem: 116 23<481.5 550 481.5 555.5> 348 23<81.5 150 81.5 155.5> 356 23<540 608.5> 588 23<140 208.5> 648 23<81.5 150 81.5 155.5> 888 23<140 208.5>
LayerCount: 2
Fore
SplineSet
225 386 m 0xb770
 157 386 116 440 116 515 c 0
 116 596 167 704 270 704 c 0
 338 704 379 650 379 575 c 0x1680
 379 494 328 386 225 386 c 0xb770
659 690 m 1x4820
 92 0 l 1
 64 0 l 1
 631 690 l 1
 659 690 l 1x4820
267 683 m 0x36c0
 178 683 139 585 139 515 c 0
 139 448 172 407 228 407 c 0
 317 407 356 505 356 575 c 0
 356 642 323 683 267 683 c 0x36c0
502 304 m 0
 570 304 611 250 611 175 c 0
 611 94 560 -14 457 -14 c 0
 389 -14 348 40 348 115 c 0xa140
 348 196 399 304 502 304 c 0
802 304 m 0xa170
 870 304 911 250 911 175 c 0
 911 94 860 -14 757 -14 c 0
 689 -14 648 40 648 115 c 0
 648 196 699 304 802 304 c 0xa170
460 7 m 0
 549 7 588 105 588 175 c 0
 588 242 555 283 499 283 c 0
 410 283 371 185 371 115 c 0
 371 48 404 7 460 7 c 0
760 7 m 0
 849 7 888 105 888 175 c 0
 888 242 855 283 799 283 c 0
 710 283 671 185 671 115 c 0
 671 48 704 7 760 7 c 0
EndSplineSet
EndChar

StartChar: guilsinglleft
Encoding: 8249 8249 274
Width: 336
Flags: MW
HStem: 82 332<205 294 205 294>
VStem: 97 197<248 414>
LayerCount: 2
Fore
SplineSet
126 246 m 1
 232 82 l 1
 205 82 l 1
 97 248 l 1
 263 414 l 1
 294 414 l 1
 126 246 l 1
EndSplineSet
EndChar

StartChar: guilsinglright
Encoding: 8250 8250 275
Width: 336
Flags: MW
HStem: 82 332<36 125 36 125>
VStem: 36 197<82 248>
LayerCount: 2
Fore
SplineSet
233 248 m 1
 67 82 l 1
 36 82 l 1
 204 250 l 1
 98 414 l 1
 125 414 l 1
 233 248 l 1
EndSplineSet
EndChar

StartChar: fraction
Encoding: 8260 8260 243
Width: 333
Flags: MW
HStem: 0 21G<-117 -89 -117 -117> 670 20G<450 478 478 478>
VStem: -117 595
LayerCount: 2
Fore
SplineSet
-89 0 m 1
 -117 0 l 1
 450 690 l 1
 478 690 l 1
 -89 0 l 1
EndSplineSet
EndChar

StartChar: Euro
Encoding: 8364 8364 286
Width: 530
Flags: MW
HStem: -14 21<254.5 333.5> 280 21<25 100 12 102 125 420> 390 21<70 114 56 119 142 462 70 138> 683 21<322 424>
VStem: 98 23<149 232> 102 23<301 301> 114 24<390 390>
LayerCount: 2
Fore
SplineSet
396 704 m 0xf8
 470 704 512 687 549 644 c 1
 532 629 l 1
 496 669 457 683 391 683 c 0
 253 683 176 555 142 411 c 1
 477 411 l 1
 462 390 l 1
 138 390 l 1
 132 360 127 331 125 301 c 1xf4
 432 301 l 1
 420 280 l 1
 123 280 l 1
 122 261 121 242 121 224 c 0
 121 74 191 7 318 7 c 0
 368 7 416 22 465 49 c 1
 461 23 l 1
 407 -5 357 -14 310 -14 c 0
 178 -14 98 60 98 223 c 0
 98 241 99 260 100 280 c 1
 12 280 l 1
 25 301 l 1xf8
 102 301 l 1xf4
 104 330 108 360 114 390 c 1
 56 390 l 1
 70 411 l 1
 119 411 l 1xf2
 154 564 237 704 396 704 c 0xf8
EndSplineSet
EndChar

StartChar: trademark
Encoding: 8482 8482 325
Width: 517
Flags: MW
HStem: 458 18<328 328 328 336 312 328> 641 19<42 123 39 232 145 229 145 145>
VStem: 39 422<641 659>
LayerCount: 2
Fore
SplineSet
145 641 m 1
 112 456 l 1
 90 456 l 1
 123 641 l 1
 39 641 l 1
 42 660 l 1
 232 660 l 1
 229 641 l 1
 145 641 l 1
461 659 m 1
 425 456 l 1
 405 456 l 1
 440 641 l 1
 336 458 l 1
 312 458 l 1
 274 640 l 1
 243 456 l 1
 223 456 l 1
 259 659 l 1
 290 659 l 1
 328 476 l 1
 431 659 l 1
 461 659 l 1
EndSplineSet
EndChar

StartChar: partialdiff
Encoding: 8706 8706 304
Width: 530
Flags: MW
HStem: -14 21<180 282 180 311.5> 436 21<219 335.5> 683 20G<168 168> 737 21<302.5 379.5>
VStem: 56 23<111.5 214 111.5 219> 476 23<481 579.5>
LayerCount: 2
Fore
SplineSet
332 758 m 0
 448 758 499 664 499 506 c 0
 499 230 405 -14 218 -14 c 0
 117 -14 56 58 56 160 c 0
 56 278 122 457 306 457 c 0
 387 457 446 413 466 359 c 1
 474 417 476 457 476 505 c 0
 476 654 434 737 325 737 c 0
 271 737 228 723 179 687 c 1
 168 703 l 1
 223 743 273 758 332 758 c 0
222 7 m 0
 342 7 428 141 460 321 c 1
 446 406 368 436 303 436 c 0
 135 436 79 268 79 160 c 0
 79 63 138 7 222 7 c 0
EndSplineSet
EndChar

StartChar: product
Encoding: 8719 8719 309
Width: 530
Flags: MW
HStem: 669 21<118 170 114 562 192 480 192 192 502 558 502 502>
VStem: 32 530
LayerCount: 2
Fore
SplineSet
558 669 m 1
 502 669 l 1
 364 -110 l 1
 342 -110 l 1
 480 669 l 1
 192 669 l 1
 54 -110 l 1
 32 -110 l 1
 170 669 l 1
 114 669 l 1
 118 690 l 1
 562 690 l 1
 558 669 l 1
EndSplineSet
EndChar

StartChar: summation
Encoding: 8721 8721 311
Width: 530
Flags: MW
HStem: -110 21<-6 431> 669 21<157 563 157 157>
VStem: -38 605
LayerCount: 2
Fore
SplineSet
563 669 m 1
 157 669 l 1
 350 300 l 1
 -6 -89 l 1
 435 -89 l 1
 431 -110 l 1
 -38 -110 l 1
 -34 -90 l 1
 322 301 l 1
 130 670 l 1
 134 690 l 1
 567 690 l 1
 563 669 l 1
EndSplineSet
EndChar

StartChar: minus
Encoding: 8722 8722 301
Width: 531
Flags: MW
HStem: 307 21<76 472 72 476>
VStem: 72 404<307 328>
LayerCount: 2
Fore
SplineSet
472 307 m 1
 72 307 l 1
 76 328 l 1
 476 328 l 1
 472 307 l 1
EndSplineSet
EndChar

StartChar: radical
Encoding: 8730 8730 310
Width: 530
Flags: MW
HStem: -160 17<185 185 185 200> 289 21<51 113 47 133>
VStem: 47 537<289 780>
LayerCount: 2
Fore
SplineSet
584 780 m 1
 200 -160 l 1
 166 -160 l 1
 113 289 l 1
 47 289 l 1
 51 310 l 1
 133 310 l 1
 185 -143 l 1
 561 780 l 1
 584 780 l 1
EndSplineSet
EndChar

StartChar: infinity
Encoding: 8734 8734 296
Width: 996
Flags: MW
HStem: -14 21<173 266 173 273.5 640 772.5> 523 21<223.5 356 730 823>
VStem: 25 24<142 274.5> 486 20 490 20 947 24<253.5 386.5>
LayerCount: 2
Fore
SplineSet
782 544 m 0xf4
 900 544 971 451 971 323 c 0
 971 184 882 -14 684 -14 c 0
 565 -14 498 62 490 213 c 1xec
 433 62 333 -14 214 -14 c 0
 96 -14 25 78 25 205 c 0
 25 344 114 544 312 544 c 0
 431 544 498 468 506 318 c 1
 559 466 663 544 782 544 c 0xf4
486 265 m 1
 494 459 404 523 308 523 c 0
 139 523 49 345 49 207 c 0
 49 77 128 7 218 7 c 0
 314 7 438 80 486 265 c 1
688 7 m 0
 857 7 947 183 947 321 c 0
 947 452 868 523 778 523 c 0
 682 523 557 450 510 265 c 1xec
 501 71 592 7 688 7 c 0
EndSplineSet
EndChar

StartChar: integral
Encoding: 8747 8747 297
Width: 530
Flags: MW
HStem: -160 21<170 204.5 170 206.5> 733 21<336 369>
VStem: 245 23<506.5 604.5 506.5 616> 272 23<-10.5 84.5>
LayerCount: 2
Fore
SplineSet
365 754 m 0
 387 754 405 745 418 726 c 1
 402 712 l 1
 389 728 377 733 361 733 c 0
 311 733 268 671 268 538 c 0xe0
 268 475 270 425 281 300 c 0
 291 190 295 118 295 63 c 0
 295 -108 240 -160 173 -160 c 0
 151 -160 134 -151 121 -132 c 1
 136 -118 l 1
 150 -134 162 -139 178 -139 c 0
 231 -139 272 -83 272 62 c 0xd0
 272 107 270 149 258 294 c 0
 247 424 245 470 245 538 c 0
 245 694 300 754 365 754 c 0
EndSplineSet
EndChar

StartChar: approxequal
Encoding: 8776 8776 289
Width: 530
Flags: MW
HStem: 170 21<333 369.5> 240 21<129.5 166> 350 21<365 401.5> 420 21<161.5 198>
VStem: 27 477<190 421>
LayerCount: 2
Fore
SplineSet
186 441 m 0
 221 441 243 430 288 404 c 0
 332 379 349 371 381 371 c 0
 428 371 454 388 491 433 c 1
 504 421 l 1
 468 372 426 350 377 350 c 0
 342 350 320 361 274 387 c 0
 231 412 214 420 182 420 c 0
 135 420 109 403 71 358 c 1
 58 370 l 1
 95 419 137 441 186 441 c 0
154 261 m 0
 189 261 211 250 257 224 c 0
 300 199 317 191 349 191 c 0
 396 191 422 208 460 253 c 1
 473 241 l 1
 436 192 394 170 345 170 c 0
 310 170 288 181 243 207 c 0
 199 232 182 240 150 240 c 0
 103 240 77 223 40 178 c 1
 27 190 l 1
 63 239 105 261 154 261 c 0
EndSplineSet
EndChar

StartChar: notequal
Encoding: 8800 8800 303
Width: 530
Flags: MW
HStem: 217 21<50 173 46 189 213 466 50 197> 397 21<82 310 78 326 350 498 82 334> 397 136<78 437 413 437 413 498 334 437>
VStem: 46 456<217 418>
LayerCount: 2
Fore
SplineSet
334 397 m 1xd0
 213 238 l 1
 470 238 l 1
 466 217 l 1
 197 217 l 1
 110 103 l 1
 86 103 l 1
 173 217 l 1
 46 217 l 1
 50 238 l 1
 189 238 l 1
 310 397 l 1
 78 397 l 1
 82 418 l 1
 326 418 l 1xd0
 413 533 l 1
 437 533 l 1xb0
 350 418 l 1
 502 418 l 1
 498 397 l 1
 334 397 l 1xd0
EndSplineSet
EndChar

StartChar: lessequal
Encoding: 8804 8804 299
Width: 530
Flags: MW
HStem: 0 21<16 412 12 416>
VStem: 12 482<0 460>
LayerCount: 2
Fore
SplineSet
489 436 m 1
 89 275 l 1
 433 114 l 1
 428 90 l 1
 59 265 l 1
 63 285 l 1
 494 460 l 1
 489 436 l 1
16 21 m 1
 416 21 l 1
 412 0 l 1
 12 0 l 1
 16 21 l 1
EndSplineSet
EndChar

StartChar: greaterequal
Encoding: 8805 8805 295
Width: 530
Flags: MW
HStem: 0 21<16 412 12 416>
VStem: 12 451<0 285>
LayerCount: 2
Fore
SplineSet
463 285 m 1
 459 265 l 1
 28 90 l 1
 33 114 l 1
 433 275 l 1
 89 436 l 1
 94 460 l 1
 463 285 l 1
16 21 m 1
 416 21 l 1
 412 0 l 1
 12 0 l 1
 16 21 l 1
EndSplineSet
EndChar

StartChar: lozenge
Encoding: 9674 9674 312
Width: 508
Flags: MW
HStem: 0 24<197 197 197 204 182 197> 665 25<310 310>
VStem: 76 356<345 345>
LayerCount: 2
Fore
SplineSet
432 345 m 1
 204 0 l 1
 182 0 l 1
 76 345 l 1
 304 690 l 1
 326 690 l 1
 432 345 l 1
408 345 m 1
 310 665 l 1
 100 345 l 1
 197 24 l 1
 408 345 l 1
EndSplineSet
EndChar

StartChar: fi
Encoding: 64257 64257 231
Width: 389
GlyphClass: 3
Flags: MW
HStem: 0 21G<29 51 29 29 250 272 250 250> 501 21<74 117 70 120 142 338 74 139> 732.59 16.41 732.59 21.41
VStem: 124 22
LayerCount: 2
Fore
SplineSet
161 616 m 0xe8
 155 594 153 581 150 566 c 2
 142 522 l 1
 364 522 l 1
 272 0 l 1
 250 0 l 1
 338 501 l 1
 139 501 l 1
 51 0 l 1
 29 0 l 1
 117 501 l 1
 70 501 l 1
 74 522 l 1
 120 522 l 1
 128 566 l 2
 131 581 134 598 140 619 c 0
 162 699 233 754 335 754 c 0xd8
 355 754 364 753 382 749 c 1
 378 728 l 1
 249 751 179 684 161 616 c 0xe8
EndSplineSet
Ligature2: "'liga' Standard Ligatures in Latin lookup 4 subtable" f i
EndChar

StartChar: fl
Encoding: 64258 64258 232
Width: 403
GlyphClass: 3
Flags: MW
HStem: -5 21 0 21G<29 51 29 29> 501 21<74 118 70 121 143 246 74 140> 715 20G<402 402> 733 21<261 315.5>
VStem: 125 22 259 23<28.5 39.5>
LayerCount: 2
Fore
SplineSet
282 40 m 0xae
 282 17 295 11 332 16 c 1
 329 -3 l 1
 319 -5 310 -5 300 -5 c 0
 276 -5 259 4 259 34 c 0xae
 259 45 261 58 272 120 c 2
 377 721 l 1
 363 729 328 733 303 733 c 0
 219 733 177 676 162 616 c 0
 156 594 153 581 151 566 c 2
 143 522 l 1
 250 522 l 1
 246 501 l 1
 140 501 l 1
 51 0 l 1
 29 0 l 1
 118 501 l 1
 70 501 l 1
 74 522 l 1
 121 522 l 1
 129 566 l 2
 131 581 134 598 140 619 c 0
 161 695 216 754 306 754 c 0x6e
 339 754 386 747 402 735 c 1xb6
 294 120 l 2
 283 60 282 49 282 40 c 0xae
EndSplineSet
Ligature2: "'liga' Standard Ligatures in Latin lookup 4 subtable" f l
EndChar

StartChar: .notdef
Encoding: 65536 -1 0
Width: 576
Flags: MW
HStem: 0 50<156 496 156 576> 650 50<156 496 156 156>
LayerCount: 2
Fore
SplineSet
76 0 m 1
 76 700 l 1
 576 700 l 1
 576 0 l 1
 76 0 l 1
326 395 m 1
 496 650 l 1
 156 650 l 1
 326 395 l 1
356 350 m 1
 526 95 l 1
 526 605 l 1
 356 350 l 1
156 50 m 1
 496 50 l 1
 326 305 l 1
 156 50 l 1
126 605 m 1
 126 95 l 1
 296 350 l 1
 126 605 l 1
EndSplineSet
EndChar

StartChar: a.alt
Encoding: 65537 -1 230
Width: 546
GlyphClass: 2
Flags: MW
HStem: -14 21<161.5 250> 0 21G<407 429 407 407> 506 20G<499 521 521 521> 519 21<225 348 218.5 373>
VStem: 25 23<144.5 279.5 144.5 283> 464.52 13.48
LayerCount: 2
Fore
SplineSet
521 526 m 1xac
 429 0 l 1
 407 0 l 1x5c
 428 119 l 1
 390 60 l 1
 333 4 289 -14 211 -14 c 0
 94 -14 25 75 25 199 c 0
 25 367 128 540 309 540 c 0
 387 540 427 518 461 463 c 1x9c
 478 405 l 1
 499 526 l 1
 521 526 l 1xac
449 238 m 1
 459 298 l 1
 481 422 440 519 306 519 c 0
 144 519 48 359 48 200 c 0
 48 89 107 7 216 7 c 0x9c
 320 7 418 66 449 238 c 1
EndSplineSet
EndChar

StartChar: braceleft.001
Encoding: 65538 -1 268
Width: 287
Flags: MW
HStem: -80 21<158 212 194 208> 339 22<76 80> 759 21<281.5 360 343 356>
VStem: 79 23<-17.5 23 -17.5 23.5> 142 23<254 285.5>
LayerCount: 2
Fore
SplineSet
360 780 m 1
 356 759 l 1
 338 759 l 2
 225 759 214 685 210 575 c 1
 205 470 202 372 107 350 c 1
 152 338 165 303 165 269 c 0
 165 238 159 207 132 129 c 0
 107 58 102 38 102 8 c 0
 102 -43 139 -59 194 -59 c 2
 212 -59 l 1
 208 -80 l 1
 191 -80 l 2
 125 -80 79 -53 79 8 c 0
 79 39 88 68 113 139 c 0
 137 206 142 240 142 268 c 0
 142 303 125 334 76 339 c 1
 80 361 l 1
 180 371 184 467 187 565 c 0
 191 695 208 780 343 780 c 2
 360 780 l 1
EndSplineSet
EndChar
